<svg xmlns="http://www.w3.org/2000/svg" id="Layer_1" version="1.1" viewBox="0 0 1200 900"><defs><style>.st0{fill:#241f20}</style></defs><path d="m177.175 598.375 18.095-43.291h22.302c-1.618.859-2.8 2.362-2.8 4.832v63.375c0 2.365 1.182 3.868 2.8 4.832h-22.625c1.725-.964 2.588-2.467 2.588-4.832v-52.525c0-1.29.431-2.685.431-2.685l-1.186 2.898-25.317 58.647-24.99-57.357-1.617-2.685v53.707c0 2.365 1.186 3.868 3.016 4.832h-13.25c1.83-.964 2.908-2.467 2.908-4.832v-63.375c0-2.039-1.614-3.973-3.34-4.832h23.053zM272.047 622.86c-.323-1.072-2.8-6.875-5.6-13.426h-24.778c-2.8 6.551-5.173 12.354-5.389 13.102-.539 2.581-.215 4.3 2.8 5.587H222.6c3.015-2.042 3.878-3.222 5.064-5.264 2.261-4.077 31.133-70.569 31.133-70.569s29.947 66.492 31.78 70.57c1.183 2.041 1.938 3.22 5.493 5.263h-26.823c3.016-1.719 3.34-3.222 2.8-5.264m-27.578-19.976h19.174c-4.522-10.312-9.803-22.45-9.803-22.45s-7.433 17.94-9.371 22.45M334.721 555.084h16.805c-3.34.859-6.355 4.832-7.646 7.302l-17.236 32.444v28.46c0 2.366 2.045 3.87 3.875 4.833h-24.882c1.614-.964 3.77-2.042 3.77-4.832v-28.037L287.43 560.24c-1.51-2.578-2.046-3.653-5.28-5.155h27.793c-2.477 1.075-4.09 1.61-1.506 6.658l14.652 26.214 14.004-27.289c1.183-2.038.752-5.048-2.372-5.583M408.168 572.377c0 13.752-15.406 17.081-15.406 17.081s21.977 1.072 21.977 18.258c0 8.593-6.247 20.407-28.548 20.407h-29.947c1.725-.964 3.016-2.467 3.016-4.832v-63.375c0-2.47-1.291-3.973-3.016-4.832h27.146c7.326 0 24.778 3.009 24.778 17.293m-27.793-11.17c-1.51 0-4.095.215-4.095.215v25.347h2.8c7.326 0 14.113-4.077 14.113-12.889 0-6.123-4.306-12.674-12.818-12.674m.647 32.113c-.971 0-4.742.216-4.742.216v28.036s1.186.216 2.265.216c11.093 0 18.527-5.264 18.527-14.928 0-10.103-6.895-13.54-16.05-13.54M474.178 555.084l.324 10.635c-2.049-3.01-4.094-3.977-7.865-4.085-4.31-.212-18.315-.428-18.315-.428v23.521h15.299c1.506 0 3.232-1.61 3.77-3.006v12.354c-.538-1.503-2.264-3.006-3.77-3.006h-15.299v30.18c2.37.323 10.45.539 15.73.108 6.895 0 11.633 0 15.727-6.551l-2.477 13.317h-49.448c2.261-1.072 3.34-2.042 3.34-4.832v-63.375c0-2.47-1.506-3.973-3.124-4.832zM544.502 573.129c0 11.814-10.773 17.401-19.174 17.832 8.616.54 12.064 5.587 13.897 8.162 0 0 14.004 21.162 16.913 24.707 2.045 2.574 7.11 4.293 7.11 4.293l-16.913.216c-4.31 0-8.404-2.042-10.665-5.048-3.987-5.264-9.806-14.396-13.682-20.407-2.803-4.3-5.28-8.917-9.374-8.917h-3.016v29.324c0 2.365 1.078 3.868 2.8 4.832h-22.837c1.83-.964 3.016-2.467 3.016-4.832v-63.375c0-2.47-1.186-3.973-3.016-4.832h26.392c22.84 0 28.549 10.635 28.549 18.045m-30.379-11.923c-1.725 0-4.525.216-4.525.216v26.318s2.584.216 3.555.216c6.355 0 13.466-3.33 13.466-13.645 0-4.835-2.585-13.105-12.496-13.105M619.775 573.129c0 11.814-10.776 17.401-19.18 17.832 8.62.54 12.07 5.587 13.897 8.162 0 0 14.004 21.162 16.916 24.707 2.049 2.574 7.11 4.293 7.11 4.293l-16.916.216c-4.307 0-8.404-2.042-10.662-5.048-3.99-5.264-9.806-14.396-13.681-20.407-2.804-4.3-5.277-8.917-9.372-8.917h-3.016v29.324c0 2.365 1.079 3.868 2.8 4.832h-22.836c1.83-.964 3.016-2.467 3.016-4.832v-63.375c0-2.47-1.186-3.973-3.016-4.832h26.392c22.833 0 28.548 10.635 28.548 18.045m-30.378-11.923c-1.725 0-4.525.216-4.525.216v26.318s2.584.216 3.555.216c6.352 0 13.462-3.33 13.462-13.645 0-4.835-2.581-13.105-12.492-13.105M677.708 555.084h16.802c-3.336.859-6.356 4.832-7.65 7.302l-17.232 32.444v28.46c0 2.366 2.042 3.87 3.875 4.833H648.62c1.617-.964 3.767-2.042 3.767-4.832v-28.037L630.41 560.24c-1.503-2.578-2.042-3.653-5.277-5.155h27.794c-2.473 1.075-4.09 1.61-1.51 6.658l14.652 26.214 14.005-27.289c1.186-2.038.755-5.048-2.366-5.583M748.554 623.29c0 2.79 1.287 3.546 3.12 4.833h-23.372c2.042-1.287 3.228-2.042 3.228-4.832v-63.375c0-2.47-1.51-3.973-3.228-4.832h48.578l.755 11.922c-1.18-2.794-3.228-4.832-8.074-5.048-4.205-.216-20.791-.752-20.791-.752v23.521h15.83c1.51 0 3.451-1.61 3.775-3.006v12.354c-.324-1.503-2.265-3.006-3.774-3.006H748.77zM815.754 622.86c-.324-1.072-2.804-6.875-5.6-13.426h-24.782c-2.797 6.551-5.17 12.354-5.385 13.102-.54 2.581-.216 4.3 2.804 5.587h-16.485c3.02-2.042 3.882-3.222 5.061-5.264 2.265-4.077 31.137-70.569 31.137-70.569s29.95 66.492 31.777 70.57c1.186 2.041 1.94 3.22 5.492 5.263H812.95c3.02-1.719 3.343-3.222 2.804-5.264m-27.578-19.976h19.173c-4.522-10.312-9.799-22.45-9.799-22.45s-7.433 17.94-9.374 22.45M899.762 573.129c0 11.814-10.777 17.401-19.181 17.832 8.62.54 12.07 5.587 13.897 8.162 0 0 14.005 21.162 16.916 24.707 2.049 2.574 7.11 4.293 7.11 4.293l-16.916.216c-4.307 0-8.404-2.042-10.662-5.048-3.99-5.264-9.806-14.396-13.681-20.407-2.804-4.3-5.277-8.917-9.375-8.917h-3.012v29.324c0 2.365 1.071 3.868 2.797 4.832H844.82c1.827-.964 3.013-2.467 3.013-4.832v-63.375c0-2.47-1.186-3.973-3.013-4.832h26.392c22.833 0 28.549 10.635 28.549 18.045m-30.382-11.923c-1.725 0-4.522.216-4.522.216v26.318s2.581.216 3.551.216c6.356 0 13.466-3.33 13.466-13.645 0-4.835-2.588-13.105-12.495-13.105M962.75 598.375l18.101-43.291h22.295c-1.611.859-2.797 2.362-2.797 4.832v63.375c0 2.365 1.186 3.868 2.797 4.832h-22.618c1.719-.964 2.581-2.467 2.581-4.832v-52.525c0-1.29.432-2.685.432-2.685l-1.187 2.898-25.313 58.647-24.99-57.357-1.618-2.685v53.707c0 2.365 1.186 3.868 3.02 4.832h-13.257c1.833-.964 2.911-2.467 2.911-4.832v-63.375c0-2.039-1.617-3.973-3.336-4.832h23.05zM1045.234 582.476c9.584 4.293 20.576 8.054 20.576 23.629 0 13.425-11.532 23.096-26.608 23.096-9.914 0-17.563-2.797-21.33-4.3l-.432-20.299c1.726 7.623 8.512 18.15 19.713 18.15 9.59 0 13.142-6.228 13.142-11.491 0-10.096-11.2-10.959-20.252-16.431-9.374-5.587-12.71-11.713-12.71-19.551 0-16.115 15.298-21.59 24.666-21.59 3.45 0 11.1.751 17.348 3.757l.539 17.833c-2.049-6.231-8.297-14.824-18.75-14.824-7.11 0-10.661 4.724-10.661 9.344 0 6.551 5.061 8.593 14.76 12.677zM153.546 649.352l6.571 26.898 6.976-26.898h13.543V688.9h-8.472v-30.51l-8.128 30.51h-8.3l-7.723-30.51v30.51h-8.242v-39.548zM207.782 649.352l11.3 39.548h-9.167l-2.304-8.761h-11.872l-2.366 8.76h-8.586l11.528-39.547zm-10.372 24.815h8.415l-4.324-17.199zM236.718 649.352q5.88-.002 8.964 1.948 3.084 1.94 4.408 5.5c.886 2.379 1.327 6.611 1.327 12.71q-.001 8.656-1.442 12.246c-1.44 3.59-2.527 4.178-4.697 5.365s-5.217 1.779-9.136 1.779h-12.795v-39.548zm-4.495 33.361h2.133q3.977 0 5.362-.93c.92-.62 1.65-1.739 2.19-3.343.536-1.61.805-4.509.805-8.707q0-6.136-.606-9.18c-.401-2.028-1.106-3.383-2.103-4.077q-1.5-1.043-5.361-1.044h-2.42zM281.102 649.352v6.08h-14.009v9.752h12.913v6.079h-12.913v11.45h14.47v6.187h-23.17v-39.547zM325.148 649.352v6.08h-12.853v10.136h12.276v6.079h-12.276V688.9h-8.761v-39.547zM343.59 649.352q5.768 0 8.502 2.548 2.74 2.546 2.74 7.912-.001 4.278-1.847 6.605c-1.846 2.327-3.13 2.568-5.705 3.04q4.208.605 5.705 2.352 1.5 1.756 1.732 5.425l.401 6.793q.117 2.297.26 3.29c.097.653.222 1.185.377 1.583h-8.532q-.52-1.092-.721-1.941c-.201-.85-.202-1.361-.202-2.386v-6.079q0-3.56-1.497-4.765-1.501-1.205-5.246-1.206h-1.672V688.9h-8.761v-39.548zm-5.705 17.092h2.019q3.863-.001 5.04-1.368 1.185-1.374 1.184-4.273c0-2.008-.425-3.404-1.267-4.192q-1.27-1.182-5.132-1.18h-1.844zM366.474 687.478c-1.998-1.422-3.43-3.39-4.293-5.89q-1.298-3.751-1.297-12.954 0-8.33 1.354-12.272c.9-2.629 2.383-4.624 4.438-5.999 2.056-1.368 4.907-2.048 8.56-2.048 3.996 0 7.012.66 9.047 1.994q3.054 2.004 4.267 5.614 1.209 3.618 1.21 12.927c0 5.957-.358 10.156-1.066 12.603q-1.07 3.67-4.151 5.917c-3.081 2.247-5.196 2.244-9.422 2.244q-5.65-.002-8.647-2.136m3.286-17.691q0 9.419 1.354 11.693 1.353 2.272 4.122 2.27 2.996-.001 4.148-1.994 1.151-2.001 1.328-5.398.171-3.397.171-8.108v-3.78q0-5.643-1.24-7.94-1.237-2.305-4.35-2.305c-3.113 0-3.518.822-4.323 2.467s-1.21 4.893-1.21 9.752zM410.163 649.352l6.571 26.898 6.976-26.898h13.543V688.9h-8.472v-30.51l-8.128 30.51h-8.3l-7.723-30.51v30.51h-8.242v-39.548zM475.769 649.352q6.4 0 9.25 2.851 2.855 2.841 2.854 9.038 0 6.188-3.053 8.87c-2.039 1.792-5.034 2.688-8.994 2.688h-5.934V688.9h-8.761v-39.547zm-2.362 17.368q2.764-.001 4.209-1.348 1.437-1.336 1.438-4.3.002-2.9-1.297-4.272-1.295-1.367-5.041-1.368h-2.824v11.288zM501.649 649.352v26.622c0 5.189 1.765 7.777 5.304 7.777q2.935 0 4.35-1.941c.94-1.3 1.412-3.221 1.412-5.782v-26.675h8.471v26.513c0 4.71-1.152 8.182-3.457 10.406q-3.458 3.344-10.894 3.342-7.147-.001-10.517-3.37c-3.37-3.368-3.373-5.721-3.373-10.432v-26.46zM542.628 649.352q5.768 0 8.502 2.548 2.74 2.546 2.74 7.912-.001 4.278-1.847 6.605c-1.846 2.327-3.13 2.568-5.705 3.04q4.208.605 5.705 2.352 1.5 1.756 1.732 5.425l.401 6.793q.117 2.297.26 3.29c.097.653.222 1.185.377 1.583h-8.532q-.52-1.092-.721-1.941c-.201-.85-.202-1.361-.202-2.386v-6.079q0-3.56-1.497-4.765-1.501-1.205-5.246-1.206h-1.672V688.9h-8.761v-39.548zm-5.705 17.092h2.019q3.862-.001 5.04-1.368 1.184-1.374 1.184-4.273-.002-3.011-1.267-4.192-1.27-1.182-5.133-1.18h-1.843zM583.092 649.352v6.08h-14.008v9.752h12.913v6.079h-12.913v11.45h14.47v6.187h-23.17v-39.547zM597.097 681.668l-4.266 12.603h-5.533l2.247-12.603zM643.849 660.58h-8.532v-.93c0-3.43-1.402-5.149-4.206-5.149-1.267 0-2.291.405-3.06 1.207s-1.152 1.86-1.152 3.174c0 .843.216 1.618.634 2.332.424.708 1.098 1.341 2.021 1.887l8.411 5.095c2.386 1.463 4.044 2.912 4.988 4.354.943 1.442 1.415 3.336 1.415 5.668q-.002 5.752-3.491 8.572c-3.49 2.82-5.924 2.824-10.804 2.824-4.192 0-7.34-.896-9.455-2.682q-3.167-2.692-3.168-7.777v-2.467h8.816v1.038c0 1.974.35 3.45 1.037 4.441.695.984 1.921 1.476 3.694 1.476q2.183 0 3.396-1.152 1.214-1.144 1.214-3.229 0-1.645-.749-2.716c-.505-.707-1.192-1.34-2.075-1.887l-6.922-3.996q-4.548-2.577-6.193-5.041c-1.092-1.645-1.645-3.781-1.645-6.41 0-3.43 1.22-6.045 3.66-7.831 2.44-1.793 5.816-2.689 10.116-2.689q5.822 0 8.936 2.386c3.114 2.386 3.114 4.3 3.114 8.134zM658.777 649.352v16.654l10.257-16.654h9.57l-11.645 17.746 11.646 21.802h-9.8l-10.028-19.99v19.99h-8.761v-39.548zM691.282 649.352V688.9h-8.701v-39.548zM710.422 649.352l11.127 27.39v-27.39h8.067V688.9h-11.41l-11.417-28.92v28.92h-8.067v-39.548zM750.016 671.317v5.587h-14.119v-5.587zM768.058 649.352l11.127 27.39v-27.39h8.067V688.9h-11.41l-11.416-28.92v28.92h-8.068v-39.548zM799.815 687.478c-2.002-1.422-3.43-3.39-4.293-5.89s-1.301-6.82-1.301-12.954q0-8.33 1.355-12.272c1.355-3.942 2.385-4.624 4.44-5.999 2.056-1.368 4.907-2.048 8.56-2.048 3.997 0 7.01.66 9.051 1.994q3.055 2.004 4.26 5.614 1.213 3.618 1.213 12.927-.002 8.934-1.065 12.603c-.715 2.446-2.096 4.42-4.152 5.917s-5.196 2.244-9.421 2.244q-5.653-.002-8.647-2.136m3.282-17.691q0 9.419 1.354 11.693c1.354 2.274 2.278 2.27 4.125 2.27 1.995 0 3.383-.666 4.152-1.994q1.15-2.001 1.32-5.398.174-3.397.176-8.108v-3.78q.002-5.643-1.24-7.94c-.83-1.537-2.278-2.305-4.354-2.305q-3.105 0-4.32 2.467c-1.215 2.467-1.213 4.893-1.213 9.752zM838.432 649.352v26.622c0 5.189 1.766 7.777 5.297 7.777q2.94 0 4.354-1.941c.944-1.3 1.415-3.221 1.415-5.782v-26.675h8.472v26.513c0 4.71-1.153 8.182-3.458 10.406-2.311 2.23-5.937 3.342-10.897 3.342q-7.146-.001-10.52-3.37-3.369-3.366-3.37-10.432v-26.46zM879.408 649.352c3.842 0 6.672.85 8.499 2.548s2.736 4.334 2.736 7.912q0 4.278-1.84 6.605c-1.233 1.55-3.134 2.568-5.708 3.04q4.203.605 5.708 2.352c.998 1.172 1.57 2.978 1.726 5.425l.404 6.793c.08 1.53.162 2.629.263 3.29.094.653.215 1.185.37 1.583h-8.525c-.35-.728-.586-1.375-.721-1.941s-.202-1.361-.202-2.386v-6.079q0-3.56-1.503-4.765c-.998-.802-2.743-1.206-5.244-1.206H873.7V688.9h-8.761v-39.548zm-5.708 17.092h2.015q3.864-.001 5.048-1.368 1.182-1.374 1.18-4.273-.002-3.011-1.268-4.192c-.849-.789-2.554-1.18-5.128-1.18H873.7zM905.86 649.352V688.9h-8.7v-39.548zM938.54 660.58h-8.531v-.93c0-3.43-1.402-5.149-4.206-5.149-1.267 0-2.291.405-3.06 1.207s-1.152 1.86-1.152 3.174c0 .843.216 1.618.633 2.332.425.708 1.099 1.341 2.022 1.887l8.411 5.095c2.386 1.463 4.044 2.912 4.987 4.354s1.416 3.336 1.416 5.668q-.002 5.752-3.491 8.572c-3.49 2.82-5.924 2.824-10.804 2.824-4.192 0-7.34-.896-9.455-2.682q-3.167-2.692-3.168-7.777v-2.467h8.815v1.038c0 1.974.35 3.45 1.038 4.441.694.984 1.921 1.476 3.694 1.476q2.183 0 3.396-1.152 1.213-1.144 1.213-3.229 0-1.645-.748-2.716c-.505-.707-1.193-1.34-2.075-1.887l-6.922-3.996c-3.033-1.719-5.095-3.397-6.194-5.041-1.091-1.645-1.644-3.781-1.644-6.41 0-3.43 1.22-6.045 3.66-7.831 2.44-1.793 5.816-2.689 10.116-2.689q5.822 0 8.936 2.386c3.114 2.386 3.114 4.3 3.114 8.134zM954.27 649.352v15.67h9.86v-15.67h8.762V688.9h-8.761v-17.415h-9.86V688.9h-8.755v-39.548zM989.141 649.352V688.9h-8.7v-39.548zM1008.281 649.352l11.127 27.39v-27.39h8.067V688.9h-11.41l-11.416-28.92v28.92h-8.068v-39.548zM1062.629 661.241h-8.64v-1.92c0-1.53-.445-2.764-1.328-3.694q-1.326-1.404-3.633-1.402c-1.994 0-3.41.795-4.239 2.386q-1.234 2.385-1.348 5.641c-.08 2.177-.12 4.3-.12 6.382q.002 3.945.174 7.313.17 3.364 1.442 5.425 1.266 2.053 4.725 2.163c.768 0 1.51-.067 2.217-.195a14 14 0 0 0 2.163-.573v-8.707h-4.785v-6.14h13.372v20.05c-2.339.438-4.448.788-6.309 1.045a43 43 0 0 1-5.735.377c-4.38 0-7.75-.68-10.116-2.049q-3.549-2.062-4.751-6.025-1.213-3.974-1.213-12.96c0-5.473.458-9.476 1.381-11.996s2.433-4.482 4.53-5.884c2.088-1.409 5.02-2.11 8.787-2.11 4.3 0 7.61 1.011 9.914 3.04s3.478 4.974 3.512 8.842zM147.824 704.131v39.548h-8.12V704.13zM165.684 704.131l10.386 27.39v-27.39h7.531v39.548h-10.652l-10.652-28.926v28.926h-7.531V704.13zM216.416 716.02h-8.07v-1.921q-.002-2.297-1.238-3.693-1.237-1.404-3.39-1.402-2.8 0-3.952 2.386c-.772 1.584-1.193 3.47-1.267 5.64q-.106 3.257-.105 6.383c0 2.628.05 5.068.159 7.312q.16 3.366 1.348 5.419 1.181 2.062 4.41 2.163c.715 0 1.406-.06 2.07-.188s1.337-.317 2.018-.573v-8.714h-4.465v-6.133h12.482v20.05c-2.19.438-4.152.782-5.894 1.038a37 37 0 0 1-5.351.384c-4.088 0-7.235-.68-9.442-2.056q-3.306-2.052-4.438-6.025-1.129-3.965-1.13-12.953c0-5.48.432-9.476 1.292-11.997q1.291-3.78 4.222-5.883 2.932-2.112 8.205-2.11 6.024-.002 9.254 3.04 3.226 3.041 3.282 8.842zM236.749 704.131q5.377 0 7.936 2.548 2.553 2.545 2.554 7.912c0 2.85-.573 5.048-1.722 6.605-1.15 1.55-2.925 2.56-5.324 3.04 2.615.397 4.39 1.185 5.324 2.351q1.399 1.758 1.614 5.426l.377 6.793c.071 1.53.152 2.628.243 3.282.088.66.206 1.186.347 1.59h-7.96q-.485-1.089-.673-1.947-.188-.842-.189-2.379v-6.08c0-2.371-.465-3.962-1.398-4.764-.934-.809-2.565-1.206-4.897-1.206h-1.56v16.377h-8.175V704.13zm-5.328 17.092h1.884q3.605 0 4.707-1.375 1.102-1.363 1.102-4.273c0-2.008-.394-3.397-1.182-4.185s-2.386-1.18-4.789-1.18h-1.722zM274.514 704.131v6.08h-13.075v9.751h12.05v6.08h-12.05v11.45h13.503v6.187h-21.624V704.13zM292.855 704.131q5.488-.002 8.367 1.948 2.877 1.94 4.115 5.5c.825 2.378 1.236 6.61 1.236 12.71 0 5.77-.448 9.846-1.344 12.239s-2.359 4.185-4.384 5.371-4.87 1.78-8.526 1.78h-11.942V704.13zm-4.195 33.36h1.991q3.712.002 5.001-.936 1.293-.93 2.046-3.336.754-2.416.754-8.714c0-4.091-.188-7.144-.566-9.173s-1.03-3.383-1.964-4.077-2.598-1.045-5.001-1.045h-2.261zM321.205 704.131v39.548h-8.121V704.13zM349.235 704.131v6.08H336.16v9.751h12.05v6.08h-12.05v11.45h13.503v6.187h-21.624V704.13zM365.962 704.131l10.386 27.39v-27.39h7.531v39.548h-10.652l-10.652-28.926v28.926h-7.53V704.13zM413.947 704.131v6.41h-9.037v33.138h-8.23V710.54h-8.93v-6.41zM441.384 715.36h-7.963v-.93q.001-5.148-3.926-5.15c-1.182 0-2.133.405-2.85 1.207s-1.075 1.86-1.075 3.174c0 .836.195 1.617.59 2.332.394.707 1.02 1.34 1.883 1.887l7.855 5.095c2.22 1.456 3.774 2.911 4.654 4.354q1.315 2.161 1.317 5.667 0 5.753-3.255 8.573c-3.255 2.82-5.533 2.824-10.086 2.824-3.912 0-6.85-.896-8.825-2.69q-2.958-2.68-2.959-7.777v-2.46h8.233v1.038q0 2.96.967 4.435c.647.99 1.792 1.483 3.444 1.483q2.042 0 3.174-1.153c.751-.768 1.129-1.84 1.129-3.228q0-1.646-.698-2.716c-.468-.708-1.112-1.341-1.937-1.887l-6.457-4.003q-4.25-2.568-5.782-5.035c-1.532-2.467-1.534-3.78-1.534-6.416 0-3.423 1.14-6.038 3.417-7.824 2.278-1.793 5.422-2.69 9.44-2.69q5.433 0 8.34 2.386c2.906 2.386 2.904 4.3 2.904 8.128zM482.906 715.36h-7.963v-.93q.001-5.148-3.925-5.15c-1.183 0-2.133.405-2.851 1.207s-1.075 1.86-1.075 3.174c0 .836.195 1.617.59 2.332.394.707 1.02 1.34 1.883 1.887l7.855 5.095c2.22 1.456 3.774 2.911 4.654 4.354q1.316 2.161 1.317 5.667 0 5.753-3.255 8.573c-3.255 2.82-5.533 2.824-10.086 2.824-3.912 0-6.85-.896-8.825-2.69q-2.958-2.68-2.959-7.777v-2.46h8.233v1.038q0 2.96.967 4.435.969 1.484 3.444 1.483 2.042 0 3.174-1.153c.752-.768 1.129-1.84 1.129-3.228q0-1.646-.698-2.716c-.468-.708-1.112-1.341-1.937-1.887l-6.457-4.003q-4.25-2.568-5.782-5.035c-1.532-2.467-1.533-3.78-1.533-6.416 0-3.423 1.139-6.038 3.417-7.824q3.414-2.69 9.438-2.69 5.435 0 8.34 2.386c2.905 2.386 2.905 4.3 2.905 8.128zM512.277 704.131v6.41h-9.038v33.138h-8.229V710.54h-8.93v-6.41zM529.385 704.131q5.378 0 7.936 2.548 2.553 2.545 2.554 7.912c0 2.85-.573 5.048-1.722 6.605-1.149 1.55-2.925 2.56-5.324 3.04 2.615.397 4.39 1.185 5.324 2.351q1.4 1.758 1.614 5.426l.378 6.793c.07 1.53.151 2.628.242 3.282.088.66.206 1.186.347 1.59h-7.959q-.486-1.089-.674-1.947-.187-.842-.189-2.379v-6.08c0-2.371-.465-3.962-1.398-4.764-.933-.809-2.564-1.206-4.896-1.206h-1.56v16.377h-8.175V704.13zm-5.328 17.092h1.884q3.605 0 4.708-1.375 1.101-1.363 1.102-4.273c0-2.008-.395-3.397-1.183-4.185s-2.386-1.18-4.789-1.18h-1.722zM564.458 704.131 575 743.68h-8.552l-2.15-8.762h-11.083l-2.207 8.762h-8.014l10.76-39.548zm-9.682 24.815h7.855l-4.037-17.2zM586.944 704.131v39.548h-8.121V704.13zM619.647 716.02h-8.067v-1.921q.002-2.297-1.24-3.693-1.234-1.404-3.39-1.402c-1.86 0-3.18.795-3.95 2.386-.774 1.584-1.192 3.47-1.266 5.64s-.101 4.3-.101 6.383c0 2.628.047 5.068.155 7.312s.559 4.05 1.348 5.419q1.182 2.062 4.407 2.163c.721 0 1.409-.06 2.076-.188q.992-.19 2.015-.573v-8.714h-4.468v-6.133h12.481v20.05c-2.183.438-4.151.782-5.89 1.038s-3.525.384-5.351.384c-4.091 0-7.232-.68-9.442-2.056q-3.304-2.052-4.435-6.025-1.132-3.965-1.132-12.953c0-5.48.431-9.476 1.294-11.997s2.264-4.481 4.219-5.883q2.933-2.112 8.202-2.11 6.027-.002 9.253 3.04 3.234 3.041 3.282 8.842zM635.088 704.131v15.663h9.199V704.13h8.175v39.548h-8.175v-17.422h-9.2v17.422h-8.175V704.13zM682.642 704.131v6.41h-9.038v33.138h-8.23V710.54h-8.929v-6.41zM718.03 704.131v6.08h-11.996v10.135h11.458v6.08h-11.458v17.253h-8.175V704.13zM735.243 704.131q5.38 0 7.94 2.548c1.698 1.698 2.554 4.333 2.554 7.912 0 2.85-.573 5.048-1.719 6.605-1.152 1.55-2.925 2.56-5.33 3.04 2.621.397 4.394 1.185 5.33 2.351.93 1.173 1.47 2.98 1.611 5.426l.377 6.793c.068 1.53.149 2.628.243 3.282.088.66.202 1.186.35 1.59h-7.966q-.484-1.089-.667-1.947-.19-.842-.189-2.379v-6.08c0-2.371-.471-3.962-1.401-4.764-.93-.809-2.561-1.206-4.893-1.206h-1.564v16.377h-8.175V704.13zm-5.324 17.092h1.887q3.601 0 4.704-1.375 1.104-1.363 1.106-4.273c0-2.008-.398-3.397-1.186-4.185s-2.386-1.18-4.785-1.18h-1.726zM756.601 742.257c-1.86-1.43-3.201-3.39-4.003-5.89q-1.214-3.753-1.213-12.954.001-8.33 1.267-12.273c1.266-3.943 2.217-4.623 4.138-5.998q2.878-2.05 7.993-2.049c3.727 0 6.544.66 8.444 1.995s3.228 3.208 3.977 5.614c.754 2.406 1.132 6.72 1.132 12.927 0 5.95-.33 10.156-.998 12.602-.66 2.447-1.954 4.415-3.868 5.911-1.92 1.503-4.853 2.25-8.795 2.25q-5.275-.001-8.074-2.135m3.066-17.698c0 6.28.425 10.183 1.267 11.7s2.123 2.27 3.849 2.27c1.86 0 3.154-.667 3.868-2.001q1.08-1.993 1.24-5.392.162-3.397.162-8.107v-3.781c0-3.76-.384-6.41-1.16-7.94q-1.154-2.304-4.056-2.304c-1.941 0-3.283.822-4.037 2.467-.755 1.637-1.133 4.892-1.133 9.752zM797.382 704.131l6.133 26.89 6.503-26.89h12.644v39.548h-7.906v-30.51l-7.589 30.51h-7.743l-7.212-30.51v30.51h-7.69V704.13zM864.231 704.131v6.41h-9.038v33.138h-8.229V710.54h-8.93v-6.41zM876.443 704.131v15.663h9.2V704.13h8.174v39.548h-8.175v-17.422h-9.2v17.422h-8.174V704.13zM922.063 704.131v6.08h-13.075v9.751h12.05v6.08h-12.05v11.45h13.506v6.187h-21.627V704.13zM959.386 704.131v6.08H947.39v10.135h11.457v6.08H947.39v17.253h-8.175V704.13zM980.797 704.131l10.541 39.548h-8.552l-2.15-8.762h-11.087l-2.204 8.762h-8.013l10.756-39.548zm-9.684 24.815h7.851l-4.03-17.2zM1008.497 704.131c3.585 0 6.234.85 7.939 2.548 1.698 1.698 2.554 4.333 2.554 7.912 0 2.85-.573 5.048-1.718 6.605-1.153 1.55-2.925 2.56-5.331 3.04 2.621.397 4.394 1.185 5.33 2.351.93 1.173 1.47 2.98 1.611 5.426l.378 6.793c.067 1.53.148 2.628.243 3.282.087.66.202 1.186.35 1.59h-7.966q-.486-1.089-.667-1.947-.191-.842-.19-2.379v-6.08c0-2.371-.47-3.962-1.4-4.764-.931-.809-2.562-1.206-4.894-1.206h-1.563v16.377h-8.175V704.13zm-5.324 17.092h1.887c2.399 0 3.97-.459 4.704-1.375q1.104-1.363 1.105-4.273c0-2.008-.397-3.397-1.186-4.185s-2.386-1.18-4.785-1.18h-1.725zM1037.767 704.131l6.133 26.89 6.503-26.89h12.644v39.548h-7.906v-30.51l-7.589 30.51h-7.743l-7.212-30.51v30.51h-7.69V704.13zM667.54 266.71a3.95 3.95 0 0 1 1.686 1.67l30.729 58.412 10.227-5.437-32.967-62.647-76.843-39.753-76.843 39.753-32.968 62.647 10.228 5.437 30.728-58.411a3.97 3.97 0 0 1 1.684-1.672l65.354-33.808a3.95 3.95 0 0 1 3.633 0zM563.116 418.436h74.629L600.43 387.42zM644.734 413.962v-63.37l-38.117 31.685zM600.43 377.134l37.315-31.016h-74.63zM556.125 413.96l38.118-31.683-38.118-31.684z" class="st0"/><path d="M580.936 282.51h38.986v22.286h-38.986z" class="st0"/><path d="M600.372 155.607c-104.461 0-189.446 84.808-189.446 189.052 0 104.241 84.985 189.05 189.446 189.05 104.462 0 189.447-84.809 189.447-189.05 0-104.244-84.985-189.052-189.447-189.052m0 370.19c-54.516 0-103.457-24.136-136.761-62.221h1.568c58.736 0 114.106 28.742 158.599 51.838 4.442 2.306 8.762 4.537 13.02 6.716a182 182 0 0 1-36.427 3.667m46.388-6.018c-6.41-3.212-13.05-6.645-19.943-10.223-45.127-23.425-101.291-52.578-161.638-52.578h-7.07c-11.782-14.826-21.316-31.503-28.02-49.552h34.042c52.854 0 105.76 20.743 141.048 36.41 22.21 9.777 43.769 20.525 63.028 30.147 13.112 6.55 25.564 12.749 37.272 18.201-17.528 12.48-37.343 21.952-58.72 27.595m1.93-181.573c.062 0 .113.032.174.035.284.012.549.093.824.166.23.061.46.097.67.196.216.1.394.258.591.398.227.163.455.311.642.517.043.047.102.066.142.115.12.145.16.321.257.477.146.233.292.456.387.719.096.264.126.53.163.804.025.181.106.341.106.529v71.67c-12.21 3.697-23.75 7.973-34.718 12.516h-37.436c-10.08-3.947-20.908-7.835-32.28-11.353v-72.833c0-.19.083-.352.109-.534.037-.271.066-.534.16-.796.097-.27.246-.497.397-.736.094-.15.132-.322.25-.463.039-.047.096-.066.137-.11.193-.214.428-.368.665-.535.188-.133.36-.285.565-.381.22-.105.464-.143.705-.206.264-.067.516-.146.787-.159.064-.003.117-.036.182-.036zm-75.666-29.454v-30.198a3.956 3.956 0 0 1 3.956-3.956h46.899a3.957 3.957 0 0 1 3.956 3.956v30.198a3.957 3.957 0 0 1-3.956 3.956H576.98a3.956 3.956 0 0 1-3.956-3.956M711.51 487.708c-10.76-4.937-22.271-10.605-34.366-16.638 17.071-4.527 36.614-7.493 59.559-7.493h.43a183.2 183.2 0 0 1-25.623 24.131m31.127-30.732h-5.934c-26.9 0-49.19 3.952-68.34 9.714-18.594-9.286-39.179-19.501-60.443-28.866 35.844-16.034 78.223-30.264 129.699-30.264h32.984c-6.7 17.997-16.214 34.628-27.965 49.416m-5.018-103.425h44.063a179.6 179.6 0 0 1-8.8 47.416h-35.263c-16.605 0-32.243 1.46-47.038 3.94v-78.95l-27.777-52.793-62.432-32.297-62.42 32.297-27.786 52.79v79.462c-15.04-2.845-30.521-4.583-46.034-4.583h-36.313a179.7 179.7 0 0 1-8.76-47.536h45.073c12.788 0 25.577 1.228 38.122 3.291v-6.691c-12.531-2.013-25.316-3.194-38.122-3.194H418.89c-.008-.684-.052-1.359-.052-2.044 0-25.647 5.401-50.048 15.077-72.179l54.148 36.633 3.707-7.043-54.494-36.866a182 182 0 0 1 34.169-47.918l38.343 50.546 4.066-7.728-36.67-48.34c14.988-13.841 32.303-25.195 51.3-33.403l19.566 58.755 7.113-3.68-19.331-58.046c19.111-7.28 39.755-11.41 61.31-11.79l-.297 48.274 1.71-.885a3.95 3.95 0 0 1 3.633 0l2.567 1.328.299-48.68c21.566.55 42.2 4.86 61.28 12.314l-20.064 57.843 7.099 3.672 20.284-58.475a182.1 182.1 0 0 1 51.094 33.904l-37.408 48.064 4.043 7.682 39.049-50.171c13.771 14.128 25.273 30.463 33.874 48.447l-54.841 36.085 3.7 7.033 54.45-35.827c9.201 21.667 14.293 45.477 14.293 70.45 0 .772-.05 1.531-.059 2.3h-44.23c-13.67 0-26.692.982-39.126 2.71v6.66a276.5 276.5 0 0 1 39.126-2.777" class="st0"/></svg>