<svg xmlns="http://www.w3.org/2000/svg" viewBox="0 0 1080 600"><path d="M465.526 159.221h-8.047l-1.184 2.508c-.166.33-.248.358-.58.358h-3.278c-.166 0-.221-.11-.221-.193 0-.082.055-.22.11-.33l7.771-16.01h2.867l7.77 16.01c.056.11.11.248.11.33s-.054.193-.22.193h-3.28c-.33 0-.412-.028-.577-.358zm-6.723-2.92h5.456l-1.488-3.06c-.579-1.185-1.158-2.949-1.158-2.949h-.165s-.579 1.764-1.158 2.949zM475.452 158.946h8.157c.166 0 .386.22.386.385v2.37c0 .166-.22.386-.386.386h-11.574a.355.355 0 0 1-.33-.33v-15.873c0-.165.165-.33.33-.33h3.086c.166 0 .331.165.331.33zM488.876 158.946h8.157c.165 0 .386.22.386.385v2.37c0 .166-.22.386-.386.386H485.46a.355.355 0 0 1-.33-.33v-15.873c0-.165.164-.33.33-.33h3.086c.166 0 .33.165.33.33zM517.375 162.087l-8.433-8.598c-.881-.88-1.873-2.122-1.873-2.122h-.084v10.39c0 .165-.165.33-.33.33h-3.086a.355.355 0 0 1-.331-.33v-15.873c0-.165.165-.33.33-.33h2.536l8.35 8.486c.91.91 1.929 2.233 1.929 2.233h.11v-10.39c0-.164.165-.33.33-.33h3.087c.165 0 .33.166.33.33v15.874c0 .165-.165.33-.33.33zM534.41 159.221h-8.047l-1.184 2.508c-.166.33-.248.358-.58.358h-3.278c-.166 0-.221-.11-.221-.193 0-.082.055-.22.11-.33l7.771-16.01h2.867l7.77 16.01c.056.11.11.248.11.33s-.054.193-.22.193h-3.28c-.33 0-.412-.028-.577-.358zm-6.723-2.92h5.456l-1.489-3.06c-.578-1.185-1.157-2.949-1.157-2.949h-.165s-.579 1.764-1.158 2.949zM536.537 148.694c-.165 0-.386-.22-.386-.386v-2.369c0-.165.22-.386.386-.386h15.652c.165 0 .385.22.385.386v2.37c0 .165-.22.385-.385.385h-5.952v13.063c0 .165-.166.33-.33.33h-3.087a.355.355 0 0 1-.33-.33v-13.063zM566.358 145.884c0-.165.166-.33.331-.33h3.086c.165 0 .332.165.332.33v8.294c0 5.347-3.362 8.185-8.433 8.185s-8.433-2.838-8.433-8.185v-8.294c0-.165.165-.33.33-.33h3.087c.165 0 .33.165.33.33v8.267c0 3.416 1.682 5.07 4.686 5.07s4.684-1.654 4.684-5.07zM572.454 145.884c0-.165.165-.33.33-.33h7.66c4.024 0 6.89 2.176 6.89 5.786 0 2.508-1.515 4.188-3.72 4.96v.056s.497.524.882 1.101l2.783 4.08c.139.192.166.302.166.357 0 .11-.056.193-.22.193h-3.666c-.138 0-.33-.11-.441-.275l-3.362-4.905h-3.554v4.85c0 .165-.166.33-.33.33h-3.088a.355.355 0 0 1-.33-.33zm3.748 2.81v5.236h3.996c2.066 0 3.389-.964 3.389-2.59s-1.323-2.646-3.39-2.646z" style="fill:#231f20"/><path d="M600.676 159.221h-8.046l-1.186 2.508c-.165.33-.247.358-.578.358h-3.28c-.165 0-.22-.11-.22-.193 0-.082.055-.22.11-.33l7.772-16.01h2.865l7.772 16.01c.055.11.11.248.11.33s-.055.193-.22.193h-3.28c-.33 0-.414-.028-.579-.358zm-6.724-2.92h5.456l-1.487-3.06c-.579-1.185-1.158-2.949-1.158-2.949h-.165s-.579 1.764-1.158 2.949zM610.603 158.946h8.156c.166 0 .387.22.387.385v2.37c0 .166-.221.386-.387.386h-11.573a.355.355 0 0 1-.33-.33v-15.873c0-.165.165-.33.33-.33h3.087c.165 0 .33.165.33.33zM432.72 295.65c0 6.56 6.35 9.755 6.35 13.205 0 1.477-1.182 2.892-3.25 3.08q-12.994 1.187-25.966 2.682c-2.067.238-3.243-.934-3.243-2.41 0-3.45 6.338-7.957 6.339-14.515V275.87a1734 1734 0 0 0-23.274 15.008v9.68c0 6.559 6.33 9.503 6.33 12.955 0 1.477-1.179 2.939-3.24 3.208a1100 1100 0 0 0-25.873 3.706c-2.056.32-3.23-.806-3.23-2.282 0-3.452 6.313-8.206 6.313-14.766v-90.736c0-6.569-6.314-9.362-6.313-12.802 0-1.476 1.174-2.976 3.23-3.295a1102 1102 0 0 1 25.874-3.706c2.06-.27 3.238.893 3.238 2.37 0 3.44-6.33 8.043-6.329 14.612v57.428a1729 1729 0 0 1 23.274-15.009v-45.286c0-6.57-6.34-9.61-6.339-13.052 0-1.476 1.177-2.93 3.243-3.167a1100 1100 0 0 1 25.967-2.681c2.067-.188 3.249 1.02 3.25 2.497-.002 3.44-6.352 7.793-6.351 14.362zM451.915 310.586c-2.07.158-3.253-1.059-3.252-2.536 0-3.45 6.356-7.711 6.356-14.27v-90.737c-.001-6.567-6.356-9.855-6.356-13.296 0-1.477 1.183-2.884 3.252-3.042a1101 1101 0 0 1 51.79-2.738c3.555-.103 5.034 1.506 5.034 5.444v18.705c0 2.461-.443 3.291-1.628 4.306-2.37 2.01-13.919 11.097-15.695 11.188-1.185.048-2.518-1.208-2.518-3.012v-18.05q-6.07.26-12.137.586c-1.036.056-1.924 1.092-1.924 2.074v40.2q6.586-4.959 13.173-9.84c1.334-1.044 2.664-1.753 3.849-1.801 1.775-.07 2.812 1.53 2.812 3.336v15.095c-.001 2.79-.592 4.124-2.812 5.688q-8.514 6.33-17.022 12.791v18.377c0 1.15.889 1.92 1.924 1.864q6.067-.327 12.137-.586v-10.337c0-2.46.446-3.3 1.627-4.334 2.37-2.087 13.918-11.172 15.696-11.2 1.185-.032 2.517 1.247 2.518 3.052v34.62c0 3.94-1.479 5.613-5.034 5.715a1101 1101 0 0 0-51.79 2.738M556.58 289.522v-10.337c0-2.46.442-3.274 1.627-4.234 2.371-1.94 13.923-10.316 15.698-10.235 1.185.04 2.517 1.403 2.518 3.207v34.62c0 3.94-1.482 5.522-5.034 5.406a1101 1101 0 0 0-46.807-.513c-2.073.02-3.259-1.274-3.259-2.75.001-3.452 6.37-7.293 6.37-13.85v-90.738c0-6.567-6.37-10.277-6.37-13.716 0-1.476 1.186-2.807 3.26-2.827q13.035-.135 26.07.04c2.073.027 3.259 1.36 3.259 2.837 0 3.441-6.37 7.129-6.37 13.697v89.26q4.52.048 9.037.133M619.767 292.526v-10.337c0-2.46.443-3.248 1.625-4.14 2.367-1.807 13.89-9.517 15.66-9.334 1.18.109 2.51 1.547 2.51 3.352v34.62c0 3.94-1.477 5.437-5.02 5.117a1101 1101 0 0 0-46.726-3.203c-2.072-.097-3.257-1.46-3.257-2.937 0-3.451 6.365-6.925 6.365-13.484v-90.737c0-6.568-6.365-10.644-6.365-14.083 0-1.475 1.186-2.737 3.257-2.64q13.025.615 26.036 1.538c2.07.148 3.253 1.548 3.253 3.025 0 3.44-6.357 6.763-6.358 13.33v89.261q4.512.307 9.02.652M646.935 299.699v-97.3c0-8.695 6.198-12.675 14.012-11.78q14.521 1.66 29.004 3.706c8.823 1.25 14.546 9.05 14.546 16.265v95.659c0 6.732-5.576 13.227-14.546 11.957q-14.483-2.047-29.004-3.706c-7.959-.91-14.012-6.266-14.012-14.801m20.793-2.452q8.029.968 16.046 2.054c.591.08 1.03-.515 1.03-1.008v-85.486c0-.656-.44-1.209-1.03-1.29a1103 1103 0 0 0-16.046-2.054c-.59-.07-1.032.369-1.031 1.026v85.486c-.001.493.44 1.2 1.03 1.272M425.62 431.848c-.002 6.56 5.641 9.78 5.641 13.23 0 1.478-1.05 2.888-2.887 3.07q-11.547 1.132-23.074 2.51c-1.831.218-2.881-.966-2.881-2.442 0-3.45 5.632-7.896 5.632-14.457v-21.822q-10.35 7.281-20.681 14.759v9.68c0 6.56 5.624 9.583 5.625 13.033 0 1.476-1.047 2.925-2.879 3.17a1101 1101 0 0 0-22.996 3.319c-1.826.284-2.87-.864-2.87-2.34 0-3.45 5.611-8.095 5.611-14.655v-90.737c-.001-6.566-5.611-9.47-5.61-12.912 0-1.476 1.043-2.954 2.87-3.238a1101 1101 0 0 1 22.995-3.319c1.832-.245 2.878.932 2.879 2.408 0 3.442-5.626 7.967-5.625 14.534v57.428a1891 1891 0 0 1 20.681-14.758v-45.286c0-6.568-5.633-9.668-5.632-13.11 0-1.476 1.05-2.918 2.881-3.137a1102 1102 0 0 1 23.074-2.51c1.838-.18 2.888 1.033 2.887 2.51 0 3.44-5.642 7.769-5.642 14.335zM439.13 433.855v-97.301c0-8.695 5.512-13.786 12.475-14.32q12.942-.993 25.9-1.682c7.893-.416 13.026 6.28 13.026 13.497v95.659c0 6.731-5.002 14.302-13.026 14.725q-12.957.69-25.9 1.683c-7.094.544-12.475-3.727-12.476-12.261m18.522-6.236q7.162-.51 14.33-.928c.526-.03.918-.708.919-1.2v-85.487c0-.657-.394-1.127-.92-1.096q-7.166.417-14.33.927c-.524.037-.922.56-.92 1.216v85.486c0 .492.396 1.12.92 1.082M501.313 443.427c-1.843.058-2.896-1.218-2.896-2.694 0-3.45 5.66-7.403 5.66-13.962v-90.737c0-6.568-5.66-10.163-5.66-13.604 0-1.477 1.053-2.826 2.896-2.884q7.898-.248 15.798-.383c4.084-.068 5.004 2.716 5.795 5.003a24538 24538 0 0 1 26.467 69.575v-58.085c0-6.568-5.661-10.394-5.662-13.837.001-1.477 1.053-2.782 2.897-2.765q11.258.11 22.511.45c1.845.055 2.897 1.403 2.897 2.88 0 3.441-5.66 7.043-5.661 13.61v101.567c0 3.446-1.84 5.69-4.738 5.622q-4.146-.096-8.294-.162c-3.557-.054-4.477-1.702-5.662-4.669a20043 20043 0 0 0-26.6-64.61v53.982c0 3.441 5.663 7.317 5.663 11.095 0 2.462-1.58 4.115-3.689 4.14q-10.863.126-21.722.468M580.169 443.773c-1.843-.074-2.897-1.424-2.896-2.901 0-3.45 5.66-6.997 5.66-13.557v-90.737c0-6.567-5.66-10.567-5.66-14.01 0-1.475 1.054-2.75 2.896-2.676 15.353.618 30.697 1.557 46.02 2.818 3.155.26 4.466 2.018 4.466 5.955v18.705c0 2.462-.393 3.247-1.444 4.142-2.102 1.774-12.347 9.668-13.925 9.57-1.054-.077-2.235-1.472-2.234-3.277v-18.05a1098 1098 0 0 0-10.781-.703c-.922-.056-1.71.883-1.71 1.867v40.2q5.852-4.25 11.701-8.437c1.184-.903 2.366-1.474 3.418-1.398 1.576.115 2.495 1.825 2.495 3.63v15.095c0 2.79-.525 4.062-2.495 5.395a2146 2146 0 0 0-15.119 10.984v18.376c.001 1.15.787 2.015 1.71 2.071q5.391.326 10.78.705v-10.337c.001-2.461.394-3.255 1.446-4.163 2.102-1.836 12.35-9.73 13.925-9.58 1.05.088 2.232 1.502 2.233 3.307v34.621c0 3.939-1.31 5.463-4.465 5.203-15.324-1.261-30.668-2.2-46.021-2.818M672.738 369.377q4.583-12.88 9.161-25.723c.001-4.597-4.187-9.25-4.187-12.694 0-1.476 1.046-2.654 2.878-2.411a1102 1102 0 0 1 24.697 3.559c1.828.284 2.871 1.763 2.87 3.24.001 3.443-4.697 7.3-7.048 13.017-7.31 17.74-18.686 46.54-19.604 50.04v37.574c0 6.56 5.624 11.099 5.624 14.549 0 1.476-1.045 2.643-2.875 2.394a1099 1099 0 0 0-23.04-2.886c-1.836-.21-2.883-1.638-2.884-3.115 0-3.45 5.634-6.579 5.635-13.139v-37.574c-.918-3.73-12.316-35.382-19.667-54.958-2.36-6.308-7.087-11.345-7.085-14.789 0-1.476 1.05-2.693 2.888-2.518q12.401 1.178 24.78 2.639c1.835.216 2.88 1.655 2.882 3.132 0 3.444-4.19 7.048-4.19 11.645q4.584 13.99 9.165 28.018M719.19 192.097c0-1.09-.482-1.864-1.392-2.244-.488-.2-1.209-.299-2.205-.299h-2.657a.344.344 0 0 0-.344.345v7.594c0 .19.153.344.344.344h1.338a.344.344 0 0 0 .345-.344v-2.642h.71c.805 0 1.16.107 1.314.195.363.214.546.7.546 1.441l.003.644.032.258a.5.5 0 0 0 .022.1l.027.107c.046.144.177.241.328.241h1.252a.34.34 0 0 0 .29-.161c.065-.101.07-.228.02-.334l-.044-.09a1.1 1.1 0 0 1-.035-.268 10 10 0 0 1-.018-.545v-.556c0-.451-.16-.911-.471-1.372q-.21-.3-.512-.507.11-.057.21-.118c.595-.388.896-.99.896-1.79m-3.705 1.122h-.866v-2.062h.799c.848 0 1.257.13 1.451.238.083.046.331.186.331.812 0 .444-.175.712-.57.867-.165.066-.499.145-1.145.145" style="fill:#231f20"/><path d="M720.866 188.59c-1.407-1.405-3.138-2.117-5.141-2.117-1.99 0-3.71.712-5.112 2.118-1.413 1.41-2.13 3.134-2.13 5.124 0 2.006.709 3.74 2.108 5.15 1.406 1.42 3.131 2.138 5.134 2.138s3.734-.719 5.144-2.137 2.127-3.15 2.127-5.151c0-1.995-.716-3.72-2.13-5.124m-5.141 10.782c-1.548 0-2.883-.555-3.965-1.65-1.08-1.097-1.626-2.442-1.626-3.998 0-1.544.549-2.879 1.634-3.97 1.106-1.11 2.398-1.65 3.957-1.65 1.564 0 2.861.54 3.968 1.65 1.085 1.091 1.634 2.426 1.634 3.97 0 1.556-.55 2.9-1.634 3.998-1.101 1.11-2.399 1.65-3.968 1.65" style="fill:#231f20"/><path d="M644.694 503.156c1.61 2.622 2.21 6.82 1.452 9.816-1.874 7.406-8.38 15.218-16.488 12.919-1.917-.703-2.254.365-3.96.625-.58.087-1.151.055-1.38-.483-.349-.822-.227-1.724-.136-2.5.163-1.411.034-1.2-.633-2.282-4.058-6.585.645-14.879 6.565-19.139 2.552-1.838 6.685-2.825 9.765-2.258a7.08 7.08 0 0 1 4.815 3.302" style="fill:#231f20;fill-rule:evenodd"/><path d="M625.28 529.883c-2.15 0-3.478-1.253-4.03-2.542-.68-1.609-.507-3.109-.39-4.105a9 9 0 0 1-.148-.233c-5.057-8.205.067-18.282 7.454-23.598 3.322-2.39 8.39-3.557 12.316-2.83 2.965.544 5.47 2.262 7.053 4.835v.002c2.075 3.379 2.832 8.468 1.843 12.378-1.503 5.944-5.278 11.274-9.85 13.912-3.384 1.953-7.112 2.437-10.78 1.396l-.161-.05-.028.014c-.507.233-1.272.584-2.362.75a6 6 0 0 1-.917.071m5.383-7.174c1.913.516 3.723.261 5.533-.783 3.02-1.742 5.656-5.578 6.718-9.772.545-2.158.07-5.41-1.062-7.254a3.74 3.74 0 0 0-2.575-1.766c-2.14-.396-5.377.36-7.216 1.684-4.235 3.048-8.796 9.619-5.674 14.684.099.158.183.282.252.384.63.928.881 1.664.93 2.516.822-.137 1.85-.124 3.094.307" style="fill:#231f20"/><path d="M644.32 499.16q-.776 1.14-1.202 2.001c-.177.358-.152.198-.04.48.04.097.045.206.015.308-.085.286-.431.292-.785.173-.41-.138-.777-.394-.967-.79-.106-.22-.054-.377.326-.45.232-.045.422.025.654-.218q1.433-2.04 1.593-2.203a33 33 0 0 1 1.225-1.561c.136-.165.115-.201.348-.148a.8.8 0 0 1 .33.172c.166.142.115.127-.013.293l-.958 1.251q.053.33.035.912.049.657.322 1.051c.133.192.162.23.378.27q8.596 1.629 4.674 14.422c-5.16-2.694-7.434-8.87-5.258-14.278q.078-.117.005-.184-.398-.406-.53-1.347a.19.19 0 0 0-.151-.153" style="fill:#231f20;fill-rule:evenodd"/><path d="M650.255 518.457a3.34 3.34 0 0 1-1.545-.378 14.61 14.61 0 0 1-7.88-12.955c-1.12-.482-1.995-1.306-2.497-2.354-.498-1.028-.501-2.199-.002-3.196a3.6 3.6 0 0 1 1.9-1.731c.663-.934.937-1.302 1.102-1.498q.699-.925.904-1.165l.331-.403c.877-1.133 2.21-1.605 3.655-1.277a4.14 4.14 0 0 1 1.77.898c.584.502 1.08 1.312 1.213 2.072.104.596.022 1.238-.204 1.82 2.231 1.005 3.532 2.493 4.274 3.721 2.001 3.317 2.056 7.926.166 14.09a3.33 3.33 0 0 1-3.187 2.356m-2.746-13.092c.033.996.253 1.97.641 2.875.004-1.477-.305-2.322-.584-2.783q-.026-.044-.057-.092m-7.458-2.335h.012zm3.267-8.04-.008.01q.004-.004.008-.01" style="fill:#231f20"/><path d="M644.694 503.156c1.61 2.622 2.21 6.82 1.452 9.816-1.874 7.406-8.38 15.218-16.488 12.919-1.917-.703-2.254.365-3.96.625-.58.087-1.151.055-1.38-.483-.349-.822-.227-1.724-.136-2.5.163-1.411.034-1.2-.633-2.282-4.058-6.585.645-14.879 6.565-19.139 2.552-1.838 6.685-2.825 9.765-2.258a7.08 7.08 0 0 1 4.815 3.302" style="fill:#fae166;fill-rule:evenodd"/><path d="M644.32 499.16q-.776 1.14-1.202 2.001c-.177.358-.152.198-.04.48.04.097.045.206.015.308-.085.286-.431.292-.785.173-.41-.138-.777-.394-.967-.79-.106-.22-.054-.377.326-.45.232-.045.422.025.654-.218q1.433-2.04 1.593-2.203a33 33 0 0 1 1.225-1.561c.136-.165.115-.201.348-.148a.8.8 0 0 1 .33.172c.166.142.115.127-.013.293l-.958 1.251q.053.33.035.912.049.657.322 1.051c.133.192.162.23.378.27q8.596 1.629 4.674 14.422c-5.16-2.694-7.434-8.87-5.258-14.278q.078-.117.005-.184-.398-.406-.53-1.347a.19.19 0 0 0-.151-.153" style="fill:#231f20;fill-rule:evenodd"/><path d="M650.255 516.234c-.177 0-.354-.042-.515-.125a12.4 12.4 0 0 1-6.544-12.875c-.365.113-.79.093-1.24-.058-.742-.25-1.315-.735-1.618-1.365-.273-.566-.13-1.02-.018-1.241.205-.411.587-.673 1.136-.78q.07-.014.135-.02c1.078-1.532 1.352-1.89 1.467-2.022q.679-.901.872-1.127l.353-.43c.388-.5.854-.658 1.45-.523q.451.106.808.414c.195.167.431.516.475.77.057.325-.09.76-.305 1.012l-.72.938q.01.275 0 .614c.011.1.033.181.057.246 2.452.522 4.238 1.698 5.325 3.498 1.656 2.744 1.638 6.764-.055 12.29a1.11 1.11 0 0 1-1.063.784m-4.456-14.35a10.185 10.185 0 0 0 3.788 11.533c1.087-4.117 1.049-7.176-.117-9.109-.739-1.223-1.942-2.019-3.67-2.424m-3.751.173h.012zm2.17-.607.047.045-.045-.049z" style="fill:#231f20"/><path d="M644.32 499.16q-.776 1.14-1.202 2.001c-.177.358-.152.198-.04.48.04.097.045.206.015.308-.085.286-.431.292-.785.173-.41-.138-.777-.394-.967-.79-.106-.22-.054-.377.326-.45.232-.045.422.025.654-.218q1.433-2.04 1.593-2.203a33 33 0 0 1 1.225-1.561c.136-.165.115-.201.348-.148a.8.8 0 0 1 .33.172c.166.142.115.127-.013.293l-.958 1.251q.053.33.035.912.049.657.322 1.051c.133.192.162.23.378.27q8.596 1.629 4.674 14.422c-5.16-2.694-7.434-8.87-5.258-14.278q.078-.117.005-.184-.398-.406-.53-1.347a.19.19 0 0 0-.151-.153" style="fill:#a2cf5f;fill-rule:evenodd"/><path d="M457.892 486.1c0 .23-.231.463-.463.463h-4.323a.5.5 0 0 1-.463-.463v-22.234c0-.232.231-.464.463-.464h4.323c.232 0 .463.232.463.464zM481.59 472.743c-.386 0-.58-.153-.657-.617-.385-2.663-2.817-4.709-6.29-4.709-3.976 0-7.219 3.05-7.219 7.566 0 4.477 3.088 7.566 7.218 7.566 3.512 0 5.867-1.738 6.291-4.324.078-.502.27-.655.734-.655h3.86c.308 0 .656.192.656.579 0 4.979-4.67 8.8-11.54 8.8-6.988 0-12.468-4.825-12.468-11.966 0-7.103 5.48-11.966 12.467-11.966 7.334 0 11.54 4.632 11.54 9.225 0 .27-.192.501-.617.501zM495.711 476.913v5.25h13.587c.231 0 .54.309.54.54v3.32c0 .231-.309.54-.54.54h-18.373a.5.5 0 0 1-.463-.463v-22.234c0-.232.231-.464.463-.464h18.142c.231 0 .54.31.54.542v3.318c0 .232-.309.54-.54.54H495.71v4.71h12.198c.231 0 .54.309.54.54v3.321c0 .231-.309.54-.54.54zM514.389 486.563a.5.5 0 0 1-.464-.463v-22.234c0-.232.232-.464.464-.464h9.765c7.334 0 12.815 4.517 12.815 11.581 0 6.986-4.632 11.58-12.738 11.58zm4.786-18.76v14.36h5.056c4.902 0 7.488-2.78 7.488-7.18s-3.165-7.18-7.565-7.18zM547.922 467.803c-.231 0-.54-.309-.54-.54v-3.32c0-.231.309-.54.54-.54h21.924c.233 0 .54.309.54.54v3.32c0 .231-.307.54-.54.54h-8.337V486.1c0 .23-.231.463-.463.463h-4.323a.5.5 0 0 1-.463-.463v-18.297zM578.759 476.913v5.25h13.586c.232 0 .54.309.54.54v3.32c0 .231-.308.54-.54.54h-18.372a.5.5 0 0 1-.463-.463v-22.234c0-.232.23-.464.463-.464h18.14c.232 0 .542.31.542.542v3.318c0 .232-.31.54-.542.54H578.76v4.71h12.196c.232 0 .54.309.54.54v3.321c0 .231-.307.54-.54.54zM613.26 482.549h-11.271l-1.66 3.512c-.23.463-.347.502-.81.502h-4.593c-.232 0-.31-.155-.31-.271 0-.115.078-.308.155-.463l10.884-22.427h4.015l10.885 22.427c.077.155.154.348.154.463s-.077.27-.308.27h-4.594c-.462 0-.578-.038-.81-.501zm-9.419-4.092h7.643l-2.084-4.285c-.81-1.66-1.621-4.13-1.621-4.13h-.232s-.81 2.47-1.62 4.13zM481.147 529.793h-1.845l-3.068-7.291c-.156-.378-.333-.933-.333-.933h-.045s-.156.555-.31.933l-3.091 7.291h-1.845l-5.935-12.937a.8.8 0 0 1-.09-.266c0-.067.045-.134.179-.134h2.667c.267 0 .312 0 .445.288l3.001 6.38c.333.689.711 1.935.711 1.935h.089s.222-.845.534-1.557l2.956-7.046h1.423l2.956 7.046c.311.734.534 1.557.534 1.557h.089s.378-1.246.711-1.935l3-6.38c.134-.266.179-.288.445-.288h2.668c.133 0 .178.067.178.134a.8.8 0 0 1-.09.266zM491.99 529.526c0 .133-.134.267-.267.267h-2.49c-.133 0-.266-.134-.266-.267v-12.804c0-.132.133-.266.266-.266h2.49c.133 0 .266.134.266.266zM494.1 518.99c-.133 0-.311-.179-.311-.311v-1.912c0-.133.178-.311.312-.311h12.625c.134 0 .311.178.311.31v1.913c0 .132-.177.31-.31.31h-4.802v10.537a.29.29 0 0 1-.267.267h-2.49c-.133 0-.266-.134-.266-.267V518.99zM522.55 529.526c0 .133-.133.267-.266.267h-2.49c-.133 0-.266-.134-.266-.267v-4.734h-7.67v4.734c0 .133-.133.267-.266.267h-2.49c-.133 0-.266-.134-.266-.267v-12.804c0-.132.133-.266.266-.266h2.49c.133 0 .267.134.267.266v5.536h7.669v-5.536c0-.132.133-.266.267-.266h2.49c.132 0 .266.134.266.266zM533.616 527.26h6.58c.133 0 .31.176.31.31v1.911c0 .134-.177.312-.31.312h-9.337c-.133 0-.266-.134-.266-.267v-12.804c0-.132.133-.266.266-.266h2.49c.133 0 .267.134.267.266zM545.55 524.236v3.023h7.825c.132 0 .31.177.31.311v1.911c0 .134-.178.312-.31.312h-10.582c-.133 0-.266-.134-.266-.267v-12.804c0-.132.133-.266.266-.266h10.448c.134 0 .31.178.31.31v1.913c0 .132-.176.31-.31.31h-7.691v2.712h7.024c.133 0 .31.178.31.312v1.911c0 .134-.177.312-.31.312zM571.465 516.456c.133 0 .267.134.267.266v12.804a.29.29 0 0 1-.267.267h-2.49a.29.29 0 0 1-.266-.267v-8.158h-.067s-.267.667-.823 1.423l-3.934 5.535-3.957-5.535c-.533-.756-.8-1.423-.8-1.423h-.066v8.158a.29.29 0 0 1-.267.267h-2.49c-.133 0-.267-.134-.267-.267v-12.804c0-.132.134-.266.266-.266h1.957a.51.51 0 0 1 .422.221l5.18 7.247h.044l5.179-7.247a.51.51 0 0 1 .423-.221zM588.91 523.124c0 4.179-3.356 6.892-7.358 6.892-4 0-7.357-2.713-7.357-6.892 0-4.112 3.357-6.89 7.357-6.89 4.002 0 7.359 2.778 7.359 6.89m-11.691 0c0 2.69 1.978 4.357 4.333 4.357 2.357 0 4.335-1.666 4.335-4.357 0-2.69-1.978-4.357-4.335-4.357-2.355 0-4.333 1.667-4.333 4.357M602.779 529.793l-6.803-6.935c-.712-.711-1.512-1.712-1.512-1.712h-.066v8.38a.29.29 0 0 1-.267.267h-2.49c-.132 0-.266-.134-.266-.267v-12.804c0-.132.134-.266.266-.266h2.046l6.735 6.846c.733.734 1.556 1.801 1.556 1.801h.09v-8.381c0-.132.133-.266.265-.266h2.49c.134 0 .268.134.268.266v12.804a.29.29 0 0 1-.268.267z" style="fill:#231f20"/><path d="M546.497 102.228c-.073.77-.185 1.517-.337 2.215-2.8 2.005-6.49 3.233-10.526 3.233s-7.726-1.22-10.518-3.233a19 19 0 0 1-.337-2.215c-.128-1.452-.12-2.968.056-4.348 2.824 1.685 6.627 2.704 10.799 2.704s7.975-1.02 10.807-2.704c.176 1.348.192 2.88.056 4.348" style="fill:#ebbb4d"/><path d="M524.607 104.776a20 20 0 0 1-.393-2.493c-.233-2.62.035-4.295.168-5.336l.745.445c5.849 3.49 15.127 3.508 21.023 0l.742-.442.112.857c.179 1.366.2 2.956.059 4.474a19 19 0 0 1-.395 2.496c-6.355 4.572-15.531 4.696-22.061-.001m1.02-.668c5.698 3.983 14.24 4.016 20.023-.002.122-.603.217-1.251.28-1.93a20.4 20.4 0 0 0 .034-3.378c-6.007 3.15-14.696 3.13-20.65.002-.081 1.068-.07 2.22.032 3.378.063.67.158 1.319.281 1.93" style="fill:#231f20"/><path d="M545.964 98.798c.578.782.348 4.947.196 5.645-2.8 2.005-6.49 3.233-10.526 3.233s-7.726-1.22-10.518-3.233c-.152-.706-.19-4.84.198-5.643.006 2.86 2.175 6.06 10.32 6.06 8.412 0 10.384-3.42 10.33-6.062" style="fill:#231f20"/><path d="M546.449 97.88c-2.832 1.685-6.635 2.704-10.807 2.704s-7.975-1.02-10.799-2.704a16 16 0 0 1-.08-2.326c.056-1.477.345-2.848.915-4.068 2.728 1.356 6.185 2.166 9.964 2.166s7.245-.81 9.972-2.174c.578 1.228.867 2.6.915 4.068.032.754.008 1.532-.08 2.334" style="fill:#ebbb4d"/><path d="M524.306 98.221c-.086-.853-.153-1.677-.11-2.692.099-2.599.846-4.024 1.214-4.811 2.99 1.487 6.083 2.365 10.232 2.365 4.117 0 7.303-.904 10.238-2.374.372.79 1.131 2.228 1.217 4.818.049 1.144-.036 1.98-.114 2.697-6.62 3.938-16.153 3.9-22.677-.003m1.077-.685c5.78 3.302 14.713 3.312 20.529-.001.158-1.732.051-3.64-.587-5.288-5.737 2.636-13.612 2.633-19.356.008-.638 1.662-.738 3.506-.586 5.281" style="fill:#231f20"/><path d="M546.449 97.88c-2.832 1.685-6.635 2.704-10.807 2.704s-7.975-1.02-10.799-2.704c-.08-.802.3-4.777 1.126-5.625-.649 3 3.707 5.625 9.719 5.625 6.324 0 10.253-2.954 9.637-5.633.893.677 1.212 4.83 1.124 5.633" style="fill:#231f20"/><path d="M543.215 115.947q-.469 1.408-1.13 2.576c-1.766 3.177-4.397 4.974-6.443 4.974-2.038 0-4.67-1.854-6.426-4.966a14.4 14.4 0 0 1-1.147-2.592c2.174 2.054 4.781 3.25 7.581 3.25s5.391-1.188 7.565-3.242" style="fill:#ebbb4d"/><path d="M535.642 124.066c-2.366 0-5.147-2.113-6.921-5.256-.852-1.492-1.163-2.603-1.909-4.84 1.892 1.787 4.459 4.65 8.838 4.65 4.36 0 6.912-2.837 8.821-4.641l-.716 2.148c-1.708 5.124-5.412 7.939-8.113 7.939m-6.185-6.281c1.572 3.048 4.163 5.143 6.185 5.143 1.665 0 4.149-1.448 5.945-4.681q.128-.225.249-.462c-1.917 1.296-4.023 1.972-6.186 1.972-2.166 0-4.274-.676-6.193-1.972" style="fill:#231f20"/><path d="M541.836 117.785c-.855 2.93-4.313 5.714-6.19 5.714-1.87 0-5.62-2.772-6.189-5.714 1.255 1.974 4.054 3.451 6.196 3.451s4.79-1.09 6.183-3.45M545.614 91.478c-2.727 1.364-6.193 2.174-9.972 2.174s-7.244-.81-9.972-2.174a9.6 9.6 0 0 1 .77-2.182c1.42-2.808 4.308-4.533 9.202-4.517 4.942.016 7.83 1.757 9.218 4.517.337.666.586 1.404.754 2.182" style="fill:#231f20"/><path d="M545.807 108.639c-.209.93-.514 1.829-.923 2.68-2.6 2.045-5.8 3.248-9.25 3.248s-6.643-1.195-9.242-3.24a14 14 0 0 1-.875-2.656 17 17 0 0 1-.4-4.228c2.791 2.013 6.482 3.233 10.517 3.233s7.726-1.228 10.526-3.233c.064 1.476-.048 2.88-.353 4.196" style="fill:#ebbb4d"/><path d="m526.04 111.773-.11-.087-.057-.128c-1.538-3.434-1.338-6.639-1.296-8.206l.872.63c5.744 4.144 14.528 4.19 20.38-.002l.853-.611c.069 1.582.357 4.792-1.342 8.315-6.114 4.792-13.83 4.393-19.3.09m.814-.807c5.218 4.03 12.294 4.07 17.574-.014.354-.758.631-1.578.824-2.438v-.004c.22-.942.338-1.953.354-3.015-5.888 3.662-14.06 3.665-19.919.015.067 2.053.502 3.92 1.167 5.456" style="fill:#231f20"/><path d="M545.606 105.495c.37 1.025-.313 4.973-.722 5.823-2.6 2.046-5.8 3.25-9.25 3.25s-6.643-1.196-9.242-3.242c-.377-.842-1.072-4.746-.705-5.816.404 3.118 3.535 6.121 9.947 6.121 6.736 0 9.675-3.378 9.972-6.136" style="fill:#231f20"/><path d="M544.892 111.318c-.136.915-.353 1.79-.666 2.6a10.2 10.2 0 0 1-1.01 2.03c-2.175 2.053-4.766 3.24-7.566 3.24s-5.407-1.195-7.581-3.249a9.6 9.6 0 0 1-1.035-2.037 10.5 10.5 0 0 1-.626-2.568c2.6 2.038 5.784 3.233 9.234 3.233s6.65-1.203 9.25-3.249" style="fill:#ebbb4d"/><path d="m527.678 116.352-.082-.096c-1.596-2.38-1.73-4.658-1.91-6.21 1.356 1.063 4.565 3.952 9.956 3.952 3.223 0 6.3-1.081 8.898-3.127l1.126-.886c-.258 1.73-.47 3.943-1.973 6.27l-.088.106c-4.797 4.532-11.12 4.533-15.927-.009m.828-.782c4.329 4.053 9.921 4.078 14.269.011a10.6 10.6 0 0 0 1.271-2.957c-5.152 3.354-11.67 3.353-16.826-.01.248.976.68 2.038 1.286 2.956" style="fill:#231f20"/><path d="M544.046 112.624c0 .807-.421 2.69-.83 3.323-2.175 2.054-4.766 3.241-7.566 3.241s-5.407-1.195-7.581-3.249c-.426-.634-1.014-2.464-.85-3.325.85 2.214 5.246 4.28 8.423 4.28 3.161 0 7.133-1.313 8.404-4.27M525.191 74.015c-.057 1.479.895 2.28 1.895 2.28s1.81-.873 1.81-1.95-.81-1.949-1.81-1.949-1.853.543-1.895 1.619M511.468 67.491c-.968-.233-2.323-.165-4.728.579-2.183.675-3.317-1.109-2.284-1.005 2.281.228 4.507-2.247 6.477-1.795z" style="fill:#231f20"/><path d="M519.515 68.572s-4.074-3.202-6.457-3.776c-3.86-1.103-4.371 2.206-.733 3.662 1.867.746 4.452 1.062 5.888 1.522.718-.833 1.302-1.408 1.302-1.408" style="fill:#231f20"/><path d="M526.448 72.896c-1.634-.926-5.54-3.886-6.225-4.41-1.22-.933-3.403.675-1.867 2.355 1.905 2.082 7.132 4.18 7.132 4.18z" style="fill:#231f20"/><path d="M524.527 72.544a30.6 30.6 0 0 1-4.712-3.32c1.1 1.533 2.77 2.61 4.712 3.32M517.193 67.84c-2.746-1.641-5.037-2.638-6.217-2.068 1.53.243 3.796 1.092 6.217 2.068" style="fill:#fff"/><path d="M522.102 59.262s.322-.675-.18-1.106c-.44-.377-2.395-1.208-3.322-2.68-.177-.28-.61-.215-.655.114a2.5 2.5 0 0 0 .53 1.878c.78.988 2.34 2.01 2.384 2.268.43-.215 1.243-.474 1.243-.474" style="fill:#231f20"/><path d="M524.675 63.622s-1.369-3.292-1.548-3.796c-.179-.505-.49-1.196-1.679-.698-.892.374-.893.853-.421 1.894.471 1.042 1.11 2.559 1.924 3.405.537-.276 1.724-.805 1.724-.805" style="fill:#231f20"/><path d="M530.063 70.65s-4.265-5.974-4.552-6.635-.804-1.78-1.924-1.321-1.884 1.108-1.264 1.867c.634.776 4.459 6.25 5.019 7.617z" style="fill:#231f20"/><path d="M527.838 68.84c-1.264-.991-2.955-3.543-3.246-4.857.993 1.615 2.257 3.555 3.246 4.857M523.36 62.098c-.411-1.26-.81-2.738-1.379-2.51.383.455.873 1.444 1.38 2.51" style="fill:#fff"/><path d="M508.98 91.914c-1.88 1.449-4.461 2.268-6.038 2.38-1.697.12-.605 1.217-.605 1.217s.926 1.012 3.054.487 5.594-2.81 5.594-2.81z" style="fill:#231f20"/><path d="M515.154 85.596s-3.2 4.39-5.374 5.431c-1.99.953-1.428 1.62-.986 1.93.442.308 1.874 1.049 3.763-.114 1.89-1.162 4.783-5.836 4.783-5.836z" style="fill:#231f20"/><path d="M525.82 79.695c-1.955 1.436-5.762 5.028-6.975 7.088-1.58 1.97-2.68.971-3.16.338-.442-.581-1.073-1.831-.214-2.913.859-1.08 6.73-6.739 8.776-6.93.676 1.966 1.574 2.417 1.574 2.417" style="fill:#231f20"/><path d="M533.02 73.491c-4.582 1.81-7.184 2.32-8.477 2.866-1.928.813-.831 4.807 1.148 4.133 1.233-.42 3.49-1.669 8.08-3.409z" style="fill:#231f20"/><path d="M522.724 78.685c-1.944 1.004-6.806 5.528-6.914 6.663 1.395-1.502 4.225-4.278 6.914-6.663M514.512 87.637c-1.824 2.43-3.47 4.074-4.823 4.51 1.69.24 3.251-1.558 4.823-4.51" style="fill:#fff"/><path d="M546.086 74.015c.057 1.479-.895 2.28-1.895 2.28s-1.81-.873-1.81-1.95.81-1.949 1.81-1.949 1.853.543 1.895 1.619M559.81 67.491c.967-.233 2.322-.165 4.728.579 2.182.675 3.317-1.109 2.283-1.005-2.28.228-4.506-2.247-6.476-1.795z" style="fill:#231f20"/><path d="M551.763 68.572s4.073-3.202 6.457-3.776c3.86-1.103 4.37 2.206.732 3.662-1.867.746-4.451 1.062-5.887 1.522-.718-.833-1.302-1.408-1.302-1.408" style="fill:#231f20"/><path d="M544.83 72.896c1.634-.926 5.54-3.886 6.224-4.41 1.22-.933 3.403.675 1.867 2.355-1.904 2.082-7.131 4.18-7.131 4.18z" style="fill:#231f20"/><path d="M546.75 72.544a30.6 30.6 0 0 0 4.712-3.32c-1.1 1.533-2.77 2.61-4.712 3.32M554.084 67.84c2.747-1.641 5.037-2.638 6.218-2.068-1.53.243-3.797 1.092-6.218 2.068" style="fill:#fff"/><path d="M549.176 59.262s-.323-.675.18-1.106c.44-.377 2.394-1.208 3.322-2.68.177-.28.61-.215.654.114a2.5 2.5 0 0 1-.53 1.878c-.78.988-2.34 2.01-2.383 2.268-.431-.215-1.243-.474-1.243-.474" style="fill:#231f20"/><path d="M546.602 63.622s1.37-3.292 1.548-3.796c.18-.505.49-1.196 1.68-.698.892.374.893.853.42 1.894-.471 1.042-1.11 2.559-1.923 3.405a49 49 0 0 0-1.725-.805" style="fill:#231f20"/><path d="M541.214 70.65s4.265-5.974 4.552-6.635.804-1.78 1.924-1.321 1.884 1.108 1.264 1.867c-.634.776-4.459 6.25-5.019 7.617z" style="fill:#231f20"/><path d="M543.44 68.84c1.263-.991 2.954-3.543 3.245-4.857-.993 1.615-2.256 3.555-3.245 4.857M547.917 62.098c.412-1.26.81-2.738 1.38-2.51-.383.455-.874 1.444-1.38 2.51" style="fill:#fff"/><path d="M562.297 91.914c1.88 1.449 4.461 2.268 6.038 2.38 1.697.12.605 1.217.605 1.217s-.926 1.012-3.054.487-5.594-2.81-5.594-2.81z" style="fill:#231f20"/><path d="M556.123 85.596s3.2 4.39 5.374 5.431c1.99.953 1.429 1.62.986 1.93-.442.308-1.874 1.049-3.763-.114-1.89-1.162-4.783-5.836-4.783-5.836z" style="fill:#231f20"/><path d="M545.457 79.695c1.956 1.436 5.762 5.028 6.975 7.088 1.58 1.97 2.68.971 3.16.338.442-.581 1.073-1.831.214-2.913-.858-1.08-6.73-6.739-8.776-6.93-.675 1.966-1.573 2.417-1.573 2.417" style="fill:#231f20"/><path d="M538.258 73.491c4.581 1.81 7.183 2.32 8.476 2.866 1.929.813.831 4.807-1.148 4.133-1.233-.42-3.49-1.669-8.079-3.409z" style="fill:#231f20"/><path d="M548.553 78.685c1.944 1.004 6.807 5.528 6.914 6.663-1.395-1.502-4.225-4.278-6.914-6.663M556.765 87.637c1.824 2.43 3.47 4.074 4.823 4.51-1.69.24-3.25-1.558-4.823-4.51" style="fill:#fff"/><path d="m539.364 59.888-3.729-.13-3.722.13c.6-1.702 2.068-3.48 3.722-4.156 1.661.675 3.13 2.454 3.73 4.156" style="fill:#231f20"/><path d="M528.57 65.166c0-3.903 3.165-6.677 7.069-6.677s7.068 2.774 7.068 6.677-3.165 7.46-7.068 7.46c-3.904 0-7.069-3.556-7.069-7.46" style="fill:#231f20"/><path d="M535.564 61.62c.384 1.518-.566 2.428-2.355 2.957 1.373-.74 2.232-1.696 2.355-2.958" style="fill:#fff"/><path d="M535.714 61.62c-.385 1.518.566 2.428 2.355 2.957-1.373-.74-2.232-1.696-2.355-2.958M533.907 60.105c.487.34-.18.924-.466.463z" style="fill:#fff"/><path d="M533.68 59.885a35.5 35.5 0 0 0-3.648-2.689c-.715-3.137-1.516-5.145-2.295-7.854-.17-.59-.927-.355-.737.189.91 2.61 1.633 4.748 2.525 7.91a.34.34 0 0 0 .117.169c1.203.842 2.266 1.675 3.618 2.815.371.486 1.04-.215.42-.54" style="fill:#231f20"/><path d="M537.37 60.105c-.486.34.181.924.466.463z" style="fill:#fff"/><path d="M537.597 59.885a35.5 35.5 0 0 1 3.648-2.689c.715-3.137 1.516-5.145 2.296-7.854.17-.59.926-.355.737.189-.911 2.61-1.633 4.748-2.526 7.91a.34.34 0 0 1-.116.169c-1.203.842-2.267 1.675-3.619 2.815-.371.486-1.04-.215-.42-.54" style="fill:#231f20"/><path d="M531.032 61.698c-.725.927-.748 2.394-.447 4.11.385.066.585-.17.635-.395.144-.64-.4-1.692-.188-3.715" style="fill:#fff"/><path d="M528.92 61.662c-.564.997-.808 2.164-.59 3.073.365 1.529 2.553 1.706 2.585.389.009-.36-.082-.786-.092-1.186-.026-1.012.046-1.934.467-3.08.15-.409.238-.68.088-.83-.469-.47-1.995.814-2.458 1.634" style="fill:#231f20"/><path d="M528.781 64.779c-.424-.93.239-2.94 1.257-3.934-.706 1.202-1.112 2.505-1.257 3.934M540.246 61.698c.724.927.747 2.394.446 4.11-.385.066-.584-.17-.635-.395-.144-.64.401-1.692.189-3.715" style="fill:#fff"/><path d="M542.358 61.662c.564.997.807 2.164.59 3.073-.365 1.529-2.554 1.706-2.586.389-.008-.36.082-.786.092-1.186.026-1.012-.046-1.934-.466-3.08-.15-.409-.239-.68-.09-.83.47-.47 1.996.814 2.46 1.634" style="fill:#231f20"/><path d="M542.496 64.779c.424-.93-.238-2.94-1.257-3.934.706 1.202 1.112 2.505 1.257 3.934M546.406 110.323c-7.656-5.989-7.336-24.094-6.68-27.813 1.448-.676 2.944-2.01 3.967-3.535 6.783 5.701 17.293 20.418 20.943 29.36 1.612 3.948 1.611 6.679 0 7.897-2.294 1.733-7.362.139-10.657-2.438-.614-.48-1.14-.977-1.567-1.477l-.06-.07-.091.001c-2.211.032-4.18-.616-5.855-1.925" style="fill:#fff"/><path d="M543.65 78.685c-.944 1.475-2.497 2.973-4.097 3.69-.822 4.284-1.229 30.27 12.71 30.069 4.29 5.031 17.895 8.9 12.554-4.183-3.79-9.283-14.49-24.063-21.167-29.576m9.459 31.795c-4.492-4.466-6.22-9.32-7.348-13.842.199 4.32 1.015 8.748 4.763 13.7a6.8 6.8 0 0 1-2.936-1.359c-6.45-5.045-6.351-20.832-5.78-25.523a13.4 13.4 0 0 0 2.118-1.913c6.286 5.958 16.828 20.46 18.852 27.784 1.773 6.392-4.66 6.131-9.67 1.153" style="fill:#231f20"/><path d="M546.62 83.654c.28 4.58 3.337 12.875 6.758 19.234-4.978-6.082-9.846-18.508-10.273-21.089l.745-.73 2.187 1.51z" style="fill:#231f20"/><path d="M544.883 85.268c-.284 2.25.05 6.319.589 9.521-1.313-3.192-2.43-6.403-2.597-8.9-.267 1.45-.37 2.82.122 4.71-1.064-1.922-1.506-4.3-1.694-6.272l-.086-1.598 2.046-1.403 1.597 3.086zM550.366 103.563c.533 2.57 2.552 5.474 5.014 6.997a33 33 0 0 1-5.014-6.997M551.423 92.243c4.881 6.23 8.382 12 9.258 16.83-2.373-5.112-5.584-10.809-9.258-16.83" style="fill:#231f20"/><path d="M524.87 110.323c7.658-5.989 7.338-24.094 6.68-27.813-1.447-.676-2.943-2.01-3.966-3.535-6.783 5.701-17.293 20.418-20.943 29.36-1.611 3.948-1.61 6.679.001 7.897 2.294 1.733 7.361.139 10.656-2.438.614-.48 1.141-.977 1.567-1.477l.06-.07.091.001c2.211.032 4.181-.616 5.855-1.925" style="fill:#fff"/><path d="M527.627 78.685c.944 1.475 2.497 2.973 4.098 3.69.821 4.284 1.228 30.27-12.712 30.069-4.288 5.031-17.893 8.9-12.553-4.183 3.79-9.283 14.49-24.063 21.167-29.576m-9.459 31.795c4.493-4.466 6.221-9.32 7.348-13.842-.199 4.32-1.015 8.748-4.763 13.7a6.8 6.8 0 0 0 2.936-1.359c6.45-5.045 6.351-20.832 5.78-25.523a13.4 13.4 0 0 1-2.118-1.913c-6.286 5.958-16.828 20.46-18.852 27.784-1.773 6.392 4.66 6.131 9.67 1.153" style="fill:#231f20"/><path d="M524.658 83.654c-.281 4.58-3.338 12.875-6.759 19.234 4.978-6.082 9.846-18.508 10.273-21.089l-.745-.73-2.187 1.51z" style="fill:#231f20"/><path d="M526.395 85.268c.283 2.25-.05 6.319-.59 9.521 1.314-3.192 2.43-6.403 2.598-8.9.266 1.45.369 2.82-.122 4.71 1.064-1.922 1.505-4.3 1.694-6.272l.085-1.598-2.046-1.403-1.597 3.086zM520.91 103.563c-.532 2.57-2.55 5.474-5.012 6.997a33 33 0 0 0 5.013-6.997M519.855 92.243c-4.882 6.23-8.383 12-9.259 16.83 2.374-5.112 5.585-10.809 9.259-16.83" style="fill:#231f20"/><path d="M530.824 69.285c3.214-1.648 6.424-1.653 9.63 0z" style="fill:#fff"/><path d="M545.598 78.14c-.737 5.713-5.346 9.07-9.96 9.07-4.613 0-9.221-3.357-9.959-9.07-.565-4.391 1.33-9.56 9.96-9.56s10.525 5.169 9.96 9.56" style="fill:#231f20"/><path d="M528.832 71.855c-1.42 3.018-.92 6.407.796 7.988-.657-.29-1.356-.996-1.596-1.51.23 1.842 1.496 4.588 3.441 5.986-4.322-2.423-5.712-8.476-2.641-12.464M542.445 71.855c1.42 3.018.921 6.407-.795 7.988.656-.29 1.355-.996 1.595-1.51-.23 1.842-1.496 4.588-3.441 5.986 4.322-2.423 5.712-8.476 2.641-12.464" style="fill:#fff"/></svg>