<svg xmlns="http://www.w3.org/2000/svg" viewBox="0 0 1200 900"><g data-name="Layer_1" style="isolation:isolate"><path d="M421.3 316.2c.4-.4.8-.9 1.2-1.3-.4.4-.8.8-1.2 1.3m2.1-2.3c.3-.3.6-.7 1-1-.3.3-.6.7-1 1m339.5 23.9c-1-1.6-2-3.1-3-4.7 1 1.5 2 3.1 3 4.7m-342-21.1c-2.3 2.6-4.5 5.4-6.8 8.6 2.3-3.2 4.6-6 6.8-8.6m5.4-5.7-.7.7zm329.9 16.6c-.8-1.2-1.7-2.4-2.6-3.7.9 1.2 1.7 2.4 2.6 3.7m-385 108.6c-.1 1.1-.2 2.1-.3 3.2 0-1.1.2-2.1.3-3.2m.3-2.9q.45-4.5 1.2-9c-.5 3-.8 6-1.2 9m385.3-104.7c1 1.5 2.1 3 3 4.5zM599.3 657.2l-6.1-.5h-6.1l-6.1.3-6.1.8c-8.1 1.4-16.3 3.7-24.4 6.8-12.2 4.8-24.3 10.4-36.5 16.6 26.7 7.4 44.2 11.5 52.7 12.4 8.6 1.3 16.9 1.9 25.1 1.8l6.1-.3c4-.3 8-.8 11.9-1.5 2-.2 7.8-1.5 17.3-4 5.7-1.5 15.1-4.8 28.1-9.7l5.6-2.1c-12.3-5.7-24.6-10.7-36.9-14.9-8.2-2.7-16.4-4.6-24.5-5.7zm118.2-66.6-8.6-.3-8.7-1.2-8.9-2.2c-6-1.8-12.1-4.1-18.3-6.7L635.1 563l-9.6-3.9c-6.4-2.5-12.9-4.5-19.3-6l-9.6-1.7-9.6-.5-9.5.7c-6.3.9-12.6 2.5-18.9 4.7-6.2 2.2-12.5 4.8-18.6 7.7l-36.5 18.3-9 4c-6 2.5-11.9 4.5-17.8 6l-8.8 1.6-8.7.7-8.7-.2-8.7-.9c-5.8-.9-11.5-2.1-17.2-3.8-17.1-5.4-34.2-12.3-51.1-20.7l26.7 39.4 7.1 2.4c14.1 5.1 28.3 8.6 42.7 10.5 9.6 1.1 19.3.7 29.2-1.3l7.4-2c5-1.6 10-3.6 15.1-6.1l39-20.7c5.3-2.7 10.7-5.1 16.2-7.1 5.4-2.1 10.9-3.6 16.5-4.6l8.4-.9c11.3-.3 22.7 1.7 34.2 5.8 5.7 1.9 11.5 4.1 17.2 6.6l33.8 14.4q8.25 3.3 16.2 5.4l7.9 1.8c5.2 1 10.3 1.5 15.3 1.7h7.5c4.9 0 9.8-.5 14.6-1.2 14.4-2.4 28.5-5.8 42.4-10.2l26.6-43c-15.3 9.6-31 17.7-46.9 24.2-10.6 4.1-21.6 6.4-32.9 6.8zm-9.4 51.7c-6-.3-12.7-1.4-19.9-3.5-9.5-3.2-15.5-5.5-17.9-6.9l-28.2-13.7c-5-2.4-10.2-4.6-15.4-6.7q-15.9-6.6-32.4-8.4l-8.2-.3-8.2.6-8.2 1.4c-5.5 1.2-10.8 2.8-16.2 4.8-5.3 2-10.5 4.2-15.6 6.7l-41.5 21.4c-2.3 1.3-7.8 3.4-16.5 6.2-6.7 1.8-12.8 2.9-18.3 3.1-4.3.3-10.8.1-19.7-.6l36 22.1c10.7-1.4 20.4-3.9 29.3-7.4 6.5-2.8 10.6-4.6 12.3-5.6l24.9-13.5c9.4-4.5 15.1-7 17.2-7.5 8-3 16.3-4.6 25-4.8 8.7 0 17.5 1.4 26.4 4.1 2.3.5 8.7 2.8 19.3 7 6.7 2.9 15.9 7.1 27.7 12.6 1.9.9 6 2.6 12.5 5.1 5.5 2.3 13.1 4.1 22.6 5.6l2.3.3 36-23.6c-7.9 1.3-16.3 1.8-25.2 1.6zM789 512.2c-22 18.1-52.5 26.5-91.4 25.3-6.7-.8-13.7-2.8-21.2-6-23.3-13.4-37.2-20.3-41.5-20.6q-35.4-10.8-51.6-9.3-11.1.45-33.9 8.1l-58.3 25.6c-17.9 5.5-31.2 8.1-39.9 7.7-10.3.2-20.7-1.4-31.4-4.8-7.9-1.5-21.4-8.5-40.6-21-6.6-24.3-9.5-47.9-8.5-70.9 0-2.4.3-4.7.4-7.1 0-1.1.2-2.1.3-3.2 0-1 .2-1.9.3-2.9q.45-4.5 1.2-9c-1.8.4-3.7.7-5.6.7-3.3 0-6.4-.6-9.4-1.9-2.8-1.2-5.3-2.8-7.4-4.9-.6-.6-1.2-1.3-1.7-1.9-6.6 38.6-3.1 78.2 10.4 118.8 31.6 20.4 58.5 31.6 80.7 33.7 17.7.4 33.2-1.2 46.8-4.7 8.4-1.6 28.1-11.3 59.1-29 12.6-4.8 23.3-7.6 32.1-8.3 10.3-.5 23.5 1 39.4 4.4l14.1 5 48 22.8c12.3 3.4 23.6 4.8 33.9 4.4 8.7.3 22.9-2.2 42.6-7.4 25.2-9.6 42.9-18.9 52.9-27.7q3.6-9.15 6.3-16.5c-3.8 1.4-8.6 2.3-13.7 2.3s-8.9-.7-12.2-1.7zM405.1 318.5c2.8 1.2 5.4 3 7.5 5.2.5.5 1 1 1.4 1.6 2.3-3.2 4.6-6 6.8-8.6l.5-.5c.4-.4.8-.9 1.2-1.3.3-.3.6-.7.9-1s.6-.7 1-1l1.2-1.2.7-.7c.7-.6 1.3-1.2 2-1.8 13.2-13.6 29.2-26.5 48-38.6 13.4-8.3 28.1-14.8 44.1-19.6 28.9-7.1 50.9-10.4 66-9.6h10c14 1.3 27.4 3.4 40.2 6.6s25.1 7.4 36.8 12.7l17.1 8.6c22.2 12.5 42.1 29.2 59.7 49.9 1.2 1.6 2.3 3.2 3.5 4.7.9 1.2 1.7 2.4 2.6 3.7.2.3.4.6.7.9 1 1.5 2.1 3 3 4.5 1 1.5 2 3.1 3 4.7 4.3-.4 8.7.4 12.5 2.2 4-1.5 8.1-2.3 12.1-2.3s4.5.2 6.6.6c-16.6-30.2-41.9-57.5-75.7-81.6-50.5-30.1-95.7-43.7-135.5-41h-2.5c-40.9 2.4-77.8 12.2-110.7 29.5-35.9 20.1-62.8 43.9-80.5 71.4h6.4c3.3 0 6.5.7 9.4 1.9zm-34.6 128c0-2.4.3-4.7.4-7.1-.2 2.4-.3 4.7-.4 7.1m1-13.2c-.1 1-.2 1.9-.3 2.9 0-1 .2-1.9.3-2.9m378.6-114.1c1.2 1.6 2.3 3.2 3.5 4.7-1.1-1.6-2.3-3.2-3.5-4.7m6.7 9.4c-.2-.3-.4-.6-.7-.9.2.3.4.6.7.9m-332.4-15.7 1.2-1.2zm-1 1c-.3.3-.6.6-.9 1 .3-.3.6-.7.9-1m-2.5 2.8.5-.5zm5.4-5.7c.7-.6 1.3-1.2 2-1.8-.6.6-1.3 1.1-2 1.8m-23.9 22.6q-1.35-1.35-3-2.1c-1.65-.75-2.4-.7-3.7-.7H367c-1.8 0-3.2.3-4.5.9-1.2.6-2.2 1.3-3 2.2s-1.3 1.9-1.6 3-.5 2.2-.6 3.2v61.2c0 1.3.3 2.6.8 3.7s1.2 2.1 2.1 3 1.9 1.5 3.1 2 2.4.7 3.7.7 2.6-.2 3.8-.7 2.2-1.2 3.1-2q1.35-1.35 2.1-3c.75-1.65.7-2.4.7-3.7v-21.1h11.1c1.3 0 2.6-.2 3.7-.7 1.2-.5 2.2-1.1 3.1-1.9s1.6-1.8 2.1-2.9.8-2.4.8-3.7-.3-2.6-.8-3.7c-.5-1.2-1.2-2.2-2.1-3.1s-1.9-1.6-3.1-2.1-2.4-.7-3.7-.7h-11.1v-11.3h19c1.3 0 2.6-.3 3.7-.7q1.65-.75 3-2.1c1.35-1.35 1.5-1.9 2-3.1s.8-2.4.8-3.8-.3-2.6-.8-3.7c-.5-1.2-1.2-2.2-2-3.1m57.8 27.1c-2.7-2.7-5.8-4.8-9.4-6.4s-7.5-2.3-11.6-2.3-7.9.8-11.5 2.3c-3.6 1.6-6.8 3.7-9.5 6.4s-4.9 5.9-6.4 9.5c-1.6 3.6-2.4 7.5-2.4 11.6s.8 7.9 2.4 11.6c1.6 3.6 3.7 6.8 6.4 9.5s5.9 4.8 9.5 6.4 7.4 2.3 11.5 2.3 8-.8 11.6-2.3c3.6-1.6 6.7-3.7 9.4-6.4s4.8-5.8 6.4-9.5c1.6-3.6 2.3-7.5 2.3-11.6s-.8-8-2.3-11.6c-1.6-3.6-3.7-6.8-6.4-9.5m-11.4 25.1c-.5 1.3-1.3 2.3-2.2 3.3-1 .9-2.1 1.7-3.3 2.2-1.3.5-2.6.8-4 .8s-2.8-.3-4-.8-2.4-1.3-3.3-2.2c-1-.9-1.7-2-2.3-3.3-.6-1.2-.8-2.6-.8-4.1s.3-2.8.8-4.1c.6-1.2 1.3-2.3 2.3-3.3 1-.9 2.1-1.7 3.3-2.2s2.6-.8 4-.8 2.8.3 4 .8c1.3.5 2.4 1.3 3.3 2.2 1 .9 1.7 2 2.2 3.3.5 1.2.8 2.6.8 4.1s-.3 2.8-.8 4.1m60.1 23.9c2-.8 4-1.8 5.8-3.2.8 1.3 1.9 2.4 3.3 3.2s2.9 1.2 4.7 1.2 2.7-.2 3.8-.7c1.2-.5 2.2-1.2 3.1-2q1.35-1.35 2.1-3c.75-1.65.8-2.4.8-3.7v-39.9c0-1.3-.3-2.5-.8-3.7s-1.2-2.2-2.1-3.1-1.9-1.6-3.1-2.1-2.4-.7-3.7-.7-2.6.2-3.7.7q-1.8.75-3 2.1c-.9.9-1.5 1.9-2 3.1s-.8 2.4-.8 3.7v21.2c0 2.7-.9 4.8-2.3 6.5-1.5 1.7-3.5 2.5-6.1 2.5s-2.5-.3-3.6-.9-2-1.4-2.7-2.4-1.3-2.1-1.7-3.3-.6-2.5-.6-3.7v-20.2c0-1.3-.3-2.6-.8-3.7s-1.2-2.1-2.1-3c-.9-.8-1.9-1.5-3.1-2s-2.4-.7-3.7-.7-2.6.2-3.7.7c-1.2.5-2.2 1.1-3.1 2q-1.35 1.2-2.1 3c-.5 1.1-.7 2.4-.7 3.7v20.3c0 3.9.6 7.6 1.9 11.1s3 6.7 5.3 9.3c2.2 2.7 4.9 4.8 8.1 6.4q4.65 2.4 10.2 2.4c5.55 0 4.2-.4 6.2-1.2zm85.7.5c1.2-.5 2.2-1.1 3.1-2s1.6-1.8 2.1-3c.5-1.1.8-2.4.8-3.7V381q0-5.85-1.5-11.1c-1.5-5.25-2.5-6.6-4.4-9.3s-4.3-4.8-7.2-6.4-6.1-2.4-9.8-2.4-4.8.5-7.2 1.4c-2.4 1-4.7 2.2-6.9 3.9-.8-1.6-1.9-2.9-3.4-3.9s-3.2-1.5-5.1-1.5-2.7.3-3.8.8-2.2 1.2-3.1 2.1-1.6 1.9-2.1 3.1-.8 2.4-.8 3.7v39.8c0 1.3.3 2.6.8 3.7s1.2 2.2 2.1 3c.9.9 1.9 1.6 3.1 2.1s2.4.7 3.8.7 2.6-.2 3.7-.7 2.2-1.2 3-2.1c.9-.9 1.5-1.9 2-3s.7-2.4.7-3.7v-20.7c0-1.4.2-2.6.7-3.8q.75-1.8 2.1-3c.9-.8 1.9-1.5 3.1-1.9 1.2-.5 2.4-.7 3.7-.7s2.4.3 3.3.9 1.6 1.3 2.2 2.3c.6.9 1 2 1.3 3.2s.4 2.4.5 3.6v20.5c0 1.3.2 2.6.7 3.7s1.2 2.1 2.1 3c.9.8 1.9 1.5 3.1 2s2.4.7 3.7.7 2.5-.2 3.7-.7z" style="fill:#fff"/><path d="M645.1 354.9c-.9-.9-1.9-1.6-3.1-2.1s-2.5-.8-3.9-.8h-.9v-11.7c0-1.3-.3-2.6-.7-3.7q-.75-1.65-2.1-3c-1.35-1.35-1.9-1.5-3.1-2s-2.4-.7-3.8-.7-2.6.2-3.7.7c-1.2.5-2.2 1.2-3.1 2s-1.6 1.9-2.1 3-.7 2.4-.7 3.7V352h-1c-1.3 0-2.6.3-3.8.8s-2.2 1.2-3.1 2.1-1.6 1.9-2.1 3.1-.8 2.4-.8 3.7.2 2.6.7 3.8 1.2 2.2 2.1 3.1 1.9 1.6 3.1 2.1 2.4.8 3.8.8h1v29.9c0 1.3.2 2.6.7 3.7q.75 1.8 2.1 3c.9.9 1.9 1.5 3.1 2s2.4.7 3.7.7 2.6-.2 3.8-.7 2.2-1.1 3.1-2 1.6-1.9 2.1-3c.5-1.2.8-2.4.8-3.7v-29.9h.9c1.4 0 2.7-.2 3.9-.7s2.2-1.2 3.1-2.1 1.6-1.9 2.1-3.1.8-2.4.8-3.8-.3-2.6-.8-3.7c-.5-1.2-1.2-2.2-2.1-3.1zm62.9 53c.9-.9 1.6-1.9 2.1-3.1s.8-2.5.8-3.8v-19.6c0-4-.9-7.9-2.5-11.4-1.6-3.6-3.7-6.7-6.4-9.4s-5.8-4.8-9.4-6.3-7.4-2.3-11.5-2.3-7.9.8-11.5 2.3c-3.6 1.6-6.8 3.7-9.5 6.4s-4.9 5.9-6.4 9.5c-1.6 3.6-2.4 7.5-2.4 11.6s.8 7.9 2.4 11.6c1.6 3.6 3.7 6.8 6.4 9.5s5.9 4.8 9.5 6.4 7.4 2.3 11.5 2.3 4.6-.3 6.7-1 4.2-1.6 6.2-2.7c.8 1 1.8 1.7 3 2.2s2.5.8 4 .8 2.7-.3 3.9-.8 2.2-1.2 3.1-2.1zm-17.2-22.1c-.5 1.3-1.3 2.3-2.2 3.3-1 .9-2.1 1.7-3.3 2.2-1.3.5-2.6.8-4 .8s-2.8-.3-4-.8-2.4-1.3-3.3-2.2c-1-.9-1.7-2-2.3-3.3-.6-1.2-.8-2.6-.8-4.1s.3-2.8.8-4.1c.6-1.2 1.3-2.3 2.3-3.3 1-.9 2.1-1.7 3.3-2.2s2.6-.8 4-.8 2.8.3 4 .8c1.3.5 2.4 1.3 3.3 2.2 1 .9 1.7 2 2.2 3.3.5 1.2.8 2.6.8 4.1s-.3 2.8-.8 4.1m34.9-40.4c.9.9 2 1.6 3.2 2.2 1.2.5 2.5.8 3.9.8s2.7-.3 3.9-.8 2.3-1.3 3.2-2.2 1.7-2 2.2-3.2.8-2.5.8-3.9-.3-2.7-.8-3.9-1.3-2.3-2.2-3.2-2-1.6-3.2-2.2c-1.2-.5-2.5-.8-3.9-.8s-2.7.3-3.9.8-2.3 1.2-3.2 2.2c-.9.9-1.6 2-2.2 3.2s-.8 2.5-.8 3.9.3 2.7.8 3.9 1.3 2.3 2.2 3.2m14.2 9.3q-1.35-1.35-3-2.1c-1.65-.75-2.4-.8-3.7-.8s-2.7.3-3.8.8-2.2 1.2-3.1 2.1-1.6 1.9-2.1 3.1-.8 2.4-.8 3.7v39.8c0 1.3.3 2.6.8 3.7s1.2 2.2 2.1 3 1.9 1.6 3.1 2.1 2.4.7 3.8.7 2.6-.2 3.8-.7 2.2-1.2 3-2.1c.9-.9 1.5-1.9 2-3s.8-2.4.8-3.7v-39.8c0-1.3-.2-2.5-.7-3.7s-1.1-2.2-2-3.1zM809 370c-1-3.5-2.5-6.6-4.4-9.3s-4.3-4.8-7.2-6.4-6.1-2.4-9.8-2.4-4.8.5-7.2 1.4c-2.4 1-4.7 2.2-6.9 3.9-.8-1.6-1.9-2.9-3.4-3.9s-3.2-1.5-5.1-1.5-2.7.3-3.8.8-2.2 1.2-3.1 2.1-1.6 1.9-2.1 3.1-.8 2.4-.8 3.7v39.8c0 1.3.3 2.6.8 3.7s1.2 2.2 2.1 3 1.9 1.6 3.1 2.1 2.4.7 3.8.7 2.6-.2 3.8-.7 2.2-1.2 3-2.1c.9-.9 1.5-1.9 2-3s.8-2.4.8-3.7v-20.7c0-1.4.2-2.6.8-3.8q.75-1.8 2.1-3c.9-.8 1.9-1.5 3.1-1.9 1.2-.5 2.4-.7 3.8-.7s2.4.3 3.3.9 1.6 1.3 2.2 2.3 1 2 1.3 3.2.4 2.4.5 3.6v20.5c0 1.3.3 2.6.8 3.7s1.2 2.1 2.1 3 1.9 1.5 3.1 2 2.4.7 3.7.7 2.5-.2 3.7-.7 2.2-1.1 3.1-2q1.35-1.2 2.1-3c.5-1.1.8-2.4.8-3.7v-20.5q0-5.85-1.5-11.1zm-273.7 52.2c-.8-.8-1.8-1.5-2.9-2s-2.3-.7-3.5-.7h-27.3c-1.7 0-3.1.3-4.3.8s-2.1 1.3-2.8 2.1c-.7.9-1.2 1.8-1.5 2.9s-.5 2.1-.5 3v58.4c0 1.3.2 2.5.7 3.5.5 1.1 1.1 2 2 2.9.8.8 1.8 1.5 2.9 1.9 1.1.5 2.3.7 3.6.7s2.5-.2 3.6-.7 2.1-1.1 2.9-1.9 1.5-1.8 2-2.9.7-2.3.7-3.5v-20.1h10.6c1.3 0 2.5-.2 3.6-.7 1.1-.4 2.1-1 2.9-1.8s1.5-1.7 2-2.8.7-2.2.7-3.5-.2-2.5-.7-3.6-1.1-2.1-2-2.9-1.8-1.5-2.9-2-2.3-.7-3.6-.7h-10.6v-10.8H529c1.3 0 2.5-.2 3.5-.7 1.1-.5 2-1.1 2.9-2 .8-.8 1.5-1.8 1.9-2.9s.7-2.3.7-3.6-.2-2.5-.7-3.6-1.1-2.1-1.9-2.9zm101.6 25.7c-2.5-2.5-5.5-4.5-8.9-6-3.4-1.4-7-2.2-10.9-2.2s-7.6.7-11.1 2.2-6.5 3.5-9.1 6.1-4.7 5.6-6.2 9c-1.5 3.5-2.3 7.1-2.3 11.1s.8 7.6 2.3 11 3.6 6.4 6.2 9 5.6 4.6 9.1 6.1 7.1 2.2 11.1 2.2 4.2-.1 6-.4 3.2-.6 4.5-1.1c1.3-.4 2.4-.9 3.4-1.5 1-.5 1.8-1.1 2.5-1.6 1-.8 1.7-1.7 2.2-2.7.5-1.1.8-2.2 1-3.3s0-2.2-.1-3.3c-.2-1.1-.5-2.1-1-2.9s-1.1-1.5-1.8-2.1-1.5-1.1-2.4-1.4c-1.2-.5-2.5-.6-3.9-.4s-2.8.8-4.3 1.9c-.3.2-.6.4-1 .6-.3.2-.7.3-1.1.5s-1 .3-1.6.4c-.6 0-1.4.1-2.4.1-2 0-3.6-.4-5-1.3-1.3-.9-2.7-2.1-4-3.8h28.8q1.8 0 3.3-.3c1-.2 1.9-.6 2.6-1.1s1.3-1.1 1.7-2c.4-.8.6-1.8.6-2.9 0-3.9-.9-7.5-2.3-10.9-1.5-3.4-3.5-6.4-6-8.9zM608 463.1c1-1.8 2.3-3.3 3.8-4.4 1.5-1.2 3.4-1.7 5.7-1.7s4.3.5 5.9 1.6 2.9 2.6 4 4.5h-19.5zm-32.5-23.4h-.8c-2.3 0-4.5.4-6.7.9s-4.2 1.3-6.1 2.3q-1.2-1.5-3-2.4c-1.8-.9-2.5-.9-4-.9s-2.5.2-3.6.7-2.2 1.1-3 2c-.9.8-1.5 1.8-2 2.9s-.7 2.3-.7 3.5v37.9c0 1.3.2 2.5.7 3.5.5 1.1 1.2 2.1 2 2.9s1.8 1.5 2.9 2 2.3.7 3.6.7 2.5-.2 3.6-.7 2.1-1.1 2.9-2c.8-.8 1.5-1.8 1.9-2.9.5-1.1.7-2.3.7-3.5v-17.1c0-1.5.3-3 .9-4.4s1.4-2.6 2.4-3.7 2.2-1.9 3.5-2.5c1.4-.6 2.8-1 4.3-1.1h.3c1.3 0 2.5-.2 3.7-.7s2.2-1.1 3-1.9 1.6-1.8 2.1-2.9.7-2.3.7-3.6c0-2.6-.8-4.8-2.4-6.5s-3.9-2.6-6.8-2.7zm113.8 27.1c-1.5-1.3-3.2-2.4-5.2-3.3-1.9-.9-4-1.7-6.1-2.4-2.6-.8-4.5-1.5-5.8-2s-2-1.1-2-1.8 0-.3.1-.5c0-.2.2-.4.5-.6s.7-.3 1.2-.4 1.3-.2 2.2-.2 1.9.2 2.9.5q1.35.45 2.7 1.2c.9.4 1.7.8 2.6 1.2.9.3 1.7.5 2.7.5s1.2-.2 2.1-.5q1.2-.45 2.4-1.5c.8-.7 1.4-1.5 1.9-2.4s.8-2.1.8-3.4q0-2.85-1.8-5.1c-1.2-1.4-2.8-2.7-4.6-3.6-1.9-1-3.9-1.7-6.2-2.2s-4.5-.7-6.6-.7-5.7.4-8.3 1.3-4.8 2.1-6.7 3.7-3.4 3.4-4.5 5.6-1.7 4.5-1.7 7.1.6 4.8 1.8 6.7 2.8 3.5 4.8 5c2 1.4 4.2 2.7 6.7 3.8s5.1 2.2 7.8 3.2c1 .3 1.8.7 2.4 1.3s.9 1 1 1.5-.2.9-.7 1.3-1.3.5-2.4.5-2.7-.4-3.7-1.2-2-1.6-3-2.6-2.1-1.8-3.3-2.6-2.7-1.2-4.5-1.2-2.2.2-3.2.6-1.9.9-2.7 1.6-1.4 1.5-1.8 2.5c-.5 1-.7 2.1-.7 3.2 0 1.7.5 3.4 1.5 5.2 1.1 1.9 2.5 3.6 4.3 4.9s3.7 2.4 5.7 3.2 4 1.4 6.1 1.8c2 .4 3.9.5 5.6.5 3.1 0 6-.5 8.6-1.4s4.8-2.2 6.7-3.8c1.8-1.6 3.3-3.5 4.3-5.7s1.5-4.5 1.5-7-.4-4.9-1.3-6.8-2.1-3.5-3.6-4.8zm61.2-18.7c-1.8-2.6-4.1-4.6-6.9-6.1-2.7-1.5-5.9-2.3-9.4-2.3s-4.3.4-6.4 1.2-4.2 1.9-6.1 3.2v-15.3c0-1.3-.2-2.5-.7-3.6s-1.1-2.1-2-2.9-1.8-1.5-2.9-2-2.3-.7-3.5-.7-2.5.2-3.6.7-2.1 1.1-2.9 2c-.8.8-1.5 1.8-2 2.9s-.7 2.3-.7 3.6v57.9c0 1.3.2 2.5.7 3.5.5 1.1 1.1 2.1 2 2.9.8.8 1.8 1.5 2.9 2s2.4.7 3.7.7 2.5-.2 3.6-.7 2.1-1.1 2.9-2c.8-.8 1.5-1.8 1.9-2.9.5-1.1.7-2.3.7-3.5v-19.8c0-2.7.7-4.8 2.1-6.5s3.4-2.5 5.9-2.5 2.3.3 3.3.8c1 .6 1.8 1.3 2.5 2.2s1.2 1.9 1.6 3.1.6 2.3.7 3.5v19.6c0 1.3.2 2.5.7 3.5.5 1.1 1.1 2 2 2.8.8.8 1.8 1.4 2.9 1.9s2.3.7 3.6.7 2.4-.2 3.5-.7 2.1-1.1 2.9-1.9 1.5-1.7 2-2.8.7-2.3.7-3.5v-19.4c0-3.7-.5-7.2-1.4-10.6-1-3.4-2.4-6.3-4.2-8.9zm82.8 3.6h-21.4v-21.5c0-2.7-2.4-5-5.2-5h-8.8c-2.8 0-5.2 2.3-5.2 5v21.5h-21.3c-2.8 0-5.2 2.4-5.2 5.2v8.8c0 2.8 2.4 5.2 5.2 5.2h21.3V492c0 2.7 2.4 5 5.2 5h8.8c2.8 0 5.2-2.3 5.2-5v-21.1h21.4c2.7 0 5-2.4 5-5.2v-8.8c0-2.8-2.3-5.2-5-5.2" style="fill:#fff"/></g></svg>