<svg xmlns="http://www.w3.org/2000/svg" xmlns:xlink="http://www.w3.org/1999/xlink" id="Layer_1" version="1.1" viewBox="0 0 1080 600"><defs><clipPath id="clippath"><circle cx="542.777" cy="321.866" r="186.258" class="st0"/></clipPath><clipPath id="clippath-1"><path d="M602.798 336.275c-7.595-9.705-29.913 1.402-35.399-7.037s-3.376-27.429-3.376-27.429l-40.509-2.11s2.111 9.284 1.267 20.678-7.596 12.235-18.989 9.704c-10.228-2.273-38.139-1.481-45.265 12.14a24 24 0 0 0-1.518 2.713c-8.385 17.702-4.924 36.646-8.34 47.516s-12.778 24.224-14.641 46.585c0 0-24.224-9.628-59.318-15.218s-46.275-2.795-46.275-2.795 40.063 37.889 71.12 51.864c31.056 13.976 39.752 15.528 55.28-4.658 15.529-20.187 26.709-41.926 29.504-67.082.486-4.375 1.141-9.37 1.892-14.637l118.834-1.993s3.329-38.537-4.267-48.24" class="st0"/></clipPath><clipPath id="clippath-2"><circle cx="542.776" cy="321.867" r="186.259" class="st0" transform="rotate(-45 542.776 321.867)"/></clipPath><clipPath id="clippath-3"><path d="m506.123 276.643-4.588-19.503s-6.425-20.42.687-32.582c7.115-12.162 27.536-19.734 36.943-18.816 4.646.454 14.496 6.055 23.25 16.64.28.338 3.176-2.119 3.176-2.119s-1.737 3.894-.898 5.024c12.958 17.458 14.396 45.162 14.396 45.162-.229 41.76-4.589 45.432-4.589 45.432s4.13-2.984 5.507-9.638c0 0 .69 1.147-.229 5.048 0 0 5.507-4.13 8.26-12.62 0 0 1.147 2.525-1.835 8.26 0 0 8.49-7.572 13.309-32.352 4.819-24.781-48.258 9.661-48.258 9.661s-84.597-13.225-44.672 26.363c0 0-5.737-7.343-8.26-14.685 0 0 9.407 17.209 18.586 23.634 0 0-6.655-8.261-8.72-14.227 0 0 6.196 8.49 8.949 10.326 0 0-15.833-21.798-11.014-39.008" class="st0"/></clipPath><clipPath id="clippath-4"><path d="M531.289 248.738h5.749v20.426h-5.749z" class="st0"/></clipPath><clipPath id="clippath-5"><path d="M542.293 283.86h2.453v4.07h-2.453z" class="st0"/></clipPath><clipPath id="clippath-6"><path d="M545.953 247.229h3.628v18.815h-3.628z" class="st0"/></clipPath><clipPath id="clippath-7"><path d="M502.223 224.557c-7.112 12.162-.689 32.583-.689 32.583s-6.653-4.589-5.505 5.737c1.147 10.324 10.095 13.766 10.095 13.766s16.34 39.49 39.921 39.993c11.95.253 25.602-17.78 32.928-37.641.06-2.66.1-5.49.117-8.545.106-19.328-6.422-34.424-14.4-45.16-.437-.59.828-5.416.383-5.98-.325-.214-2.355 3.822-2.673 3.61-16.388-10.908-23.236-17.178-23.236-17.178a17 17 0 0 0-1.638-.075c-9.963 0-28.579 7.395-35.303 18.89" class="st0"/></clipPath><clipPath id="clippath-8"><path d="M528.635 208.289h61.272v165.874h-61.272z" class="st0"/></clipPath><clipPath id="clippath-9"><path d="M332.427 429.972c4.878 6.935 7.477 16.347 7.477 16.347s-7.153.496-18.532 5.448c-11.377 4.954-16.903 4.707-16.903 4.707s4.551 7.183 24.057 18.08c19.505 10.898 52.99 10.403 52.99 10.403s32.17-50.978 34.135-58.451c1.965-7.476-18.531-6.195-43.562-7.679-25.031-1.486-48.44-21.55-48.44-21.55-.65 11.148 3.901 25.761 8.778 32.695" class="st0"/></clipPath><clipPath id="clippath-10"><path d="M707.912 418.827c-25.033 1.485-45.53.203-43.563 7.679 1.966 7.473 34.135 58.45 34.135 58.45s33.486.496 52.99-10.402c19.506-10.897 24.058-18.08 24.058-18.08s-5.527.248-16.905-4.707c-11.38-4.952-18.53-5.448-18.53-5.448s2.602-9.412 7.476-16.347c4.878-6.934 9.428-21.547 8.777-32.694 0 0-23.405 20.063-48.438 21.549" class="st0"/></clipPath><clipPath id="clippath-11"><path d="M618.89 367.497s-2.472 72.391-1.163 86.784c.946 10.405 13.745 12.83 20.765 13.376l-.067.144h2.914c1.054.021 1.684 0 1.684 0h14.736s.628.021 1.68 0h2.918l-.068-.144c7.02-.545 19.818-2.971 20.764-13.376 1.31-14.393-1.162-86.784-1.162-86.784z" class="st0"/></clipPath><clipPath id="clippath-12"><path d="M647.088 364.06c-43.757 0-31.835 6.98-30.091 8.87s3.925 2.907-2.618 10.176c-6.541 7.268-1.89 12.21 2.326 7.414 2.007-2.282 3.058-.68 4.47.92 1.556 1.763 3.551 3.527 7.742.098 7.996-6.543 3.198 4.941 11.34 5.523 0 0 3.489.582 4.651-5.67 1.164-6.25 8.723-3.779 8.576 1.019-.145 4.797 7.126 4.651 7.126 4.651 8.14-.582 3.342-12.066 11.337-5.523 4.191 3.43 6.185 1.665 7.742-.097 1.413-1.601 2.464-3.203 4.469-.921 4.216 4.796 8.869-.146 2.327-7.414-6.543-7.269-4.361-8.287-2.619-10.176 1.746-1.89 13.667-8.87-30.09-8.87z" class="st0"/></clipPath><clipPath id="clippath-13"><path d="M397.65 367.497s-2.47 72.391-1.163 86.784c.948 10.405 13.745 12.83 20.764 13.376l-.068.144h2.917c1.055.021 1.681 0 1.681 0h14.738s.628.021 1.682 0h2.916l-.066-.144c7.019-.545 19.816-2.971 20.763-13.376 1.308-14.393-1.163-86.784-1.163-86.784z" class="st0"/></clipPath><clipPath id="clippath-14"><path d="M425.85 364.06c-43.758 0-31.837 6.98-30.093 8.87 1.745 1.89 3.925 2.907-2.616 10.176-6.542 7.268-1.892 12.21 2.326 7.414 2.005-2.282 3.056-.68 4.469.92 1.555 1.763 3.549 3.527 7.741.098 7.996-6.543 3.198 4.941 11.34 5.523 0 0 3.489.582 4.653-5.67 1.162-6.25 8.72-3.779 8.577 1.019-.148 4.797 7.121 4.651 7.121 4.651 8.141-.582 3.344-12.066 11.34-5.523 4.19 3.43 6.184 1.665 7.74-.097 1.412-1.601 2.464-3.203 4.472-.921 4.215 4.796 8.867-.146 2.325-7.414-6.543-7.269-4.361-8.287-2.616-10.176 1.744-1.89 13.664-8.87-30.094-8.87z" class="st0"/></clipPath><clipPath id="clippath-15"><path d="M452.96 385.695s-2.47 72.394-1.163 86.784c.946 10.407 13.745 12.832 20.763 13.377l-.066.145h2.916c1.054.021 1.682 0 1.682 0h14.737s.627.021 1.682 0h2.915l-.066-.145c7.02-.545 19.818-2.97 20.764-13.377 1.308-14.39-1.164-86.784-1.164-86.784z" class="st0"/></clipPath><clipPath id="clippath-16"><path d="M481.16 382.262c-43.758 0-31.838 6.977-30.094 8.867s3.926 2.908-2.617 10.177c-6.54 7.27-1.888 12.21 2.327 7.413 2.005-2.28 3.057-.681 4.468.921 1.556 1.763 3.55 3.525 7.743.097 7.995-6.543 3.2 4.943 11.339 5.525 0 0 3.49.58 4.653-5.67 1.162-6.252 8.721-3.78 8.576 1.017-.146 4.798 7.123 4.653 7.123 4.653 8.14-.582 3.343-12.068 11.34-5.525 4.19 3.428 6.186 1.666 7.74-.097 1.413-1.602 2.465-3.202 4.471-.92 4.216 4.797 8.867-.145 2.324-7.414-6.54-7.27-4.36-8.287-2.616-10.177 1.746-1.89 13.667-8.867-30.09-8.867z" class="st0"/></clipPath><clipPath id="clippath-17"><path d="M563.58 388.935s-2.472 72.394-1.162 86.784c.946 10.407 13.744 12.831 20.763 13.378l-.067.141h2.917c1.051.025 1.68 0 1.68 0h14.737s.63.025 1.682 0h2.917l-.069-.141c7.02-.547 19.82-2.97 20.767-13.378 1.308-14.39-1.164-86.784-1.164-86.784z" class="st0"/></clipPath><clipPath id="clippath-18"><path d="M591.778 385.501c-43.756 0-31.836 6.98-30.09 8.869 1.742 1.888 3.923 2.906-2.618 10.175-6.542 7.268-1.889 12.21 2.325 7.414 2.005-2.282 3.057-.68 4.47.92 1.554 1.763 3.55 3.529 7.743.097 7.994-6.541 3.196 4.942 11.337 5.524 0 0 3.49.582 4.652-5.67 1.163-6.25 8.723-3.779 8.578 1.018-.146 4.8 7.124 4.652 7.124 4.652 8.14-.582 3.343-12.065 11.337-5.524 4.191 3.432 6.187 1.666 7.742-.098 1.412-1.6 2.464-3.2 4.47-.92 4.216 4.797 8.869-.145 2.326-7.413-6.541-7.269-4.36-8.287-2.616-10.175 1.744-1.89 13.665-8.869-30.092-8.869z" class="st0"/></clipPath><clipPath id="clippath-19"><path d="M508.27 407.201s-2.471 72.393-1.163 86.786c.945 10.405 13.746 12.83 20.765 13.377l-.068.141h2.915c1.055.023 1.683 0 1.683 0h14.736s.63.023 1.683 0h2.917l-.07-.14c7.02-.547 19.82-2.973 20.765-13.378 1.308-14.393-1.163-86.786-1.163-86.786z" class="st0"/></clipPath><clipPath id="clippath-20"><path d="M536.469 403.768c-43.756 0-31.837 6.978-30.091 8.868 1.742 1.89 3.925 2.907-2.618 10.175-6.543 7.267-1.89 12.21 2.326 7.415 2.005-2.283 3.056-.682 4.469.918 1.556 1.764 3.55 3.528 7.742.098 7.997-6.541 3.198 4.943 11.339 5.525 0 0 3.49.582 4.651-5.67 1.164-6.252 8.723-3.779 8.579 1.018-.146 4.798 7.123 4.652 7.123 4.652 8.141-.582 3.342-12.066 11.337-5.525 4.191 3.43 6.186 1.666 7.742-.098 1.413-1.6 2.464-3.201 4.472-.918 4.214 4.796 8.866-.148 2.325-7.415-6.542-7.268-4.362-8.286-2.616-10.175 1.744-1.89 13.664-8.868-30.093-8.868z" class="st0"/></clipPath><clipPath id="clippath-21"><path d="M559.668 454.245h-39.336c-114.76 0-142.066-29.97-142.066-29.97s-5.202 1.24-.976 17.09c4.226 15.852 5.201 26.503.976 40.621-4.226 14.118-2.602 19.319-2.602 19.319s36.736 30.713 147.594 30.713h33.484c110.857 0 147.594-30.713 147.594-30.713s1.625-5.201-2.602-19.319c-4.226-14.118-3.25-24.769.978-40.621 4.225-15.85-.978-17.09-.978-17.09s-27.306 29.97-142.066 29.97" class="st0"/></clipPath><linearGradient id="linear-gradient" x1="377.05" x2="378.585" y1="90.648" y2="90.648" gradientTransform="matrix(331.48923 0 0 331.48923 -124692.643 -29607.32)" gradientUnits="userSpaceOnUse"><stop offset="0" stop-color="#fdd556"/><stop offset=".03" stop-color="#fddb74"/><stop offset=".1" stop-color="#fdebb8"/><stop offset=".153" stop-color="#fde398"/><stop offset=".25" stop-color="#fdd556"/><stop offset=".295" stop-color="#fddb74"/><stop offset=".4" stop-color="#fdebb8"/><stop offset=".6" stop-color="#fdebb8"/><stop offset=".653" stop-color="#fde398"/><stop offset=".75" stop-color="#fdd556"/><stop offset=".795" stop-color="#fddb74"/><stop offset=".9" stop-color="#fdebb8"/><stop offset=".935" stop-color="#fde398"/><stop offset="1" stop-color="#fdd556"/></linearGradient><linearGradient xlink:href="#linear-gradient" id="linear-gradient1" y1="90.686" y2="90.686" gradientTransform="matrix(331.48923 0 0 331.48923 -124692.643 -29583.21)"/><style>.st0,.st1,.st2,.st3,.st4,.st7{fill:none}.st8{fill:#5a220b}.st10{fill:#dcd4b8}.st13{fill:#f2dc8c}.st15{fill:#f3b88e}.st16{fill:#231f20}.st18{fill:#f4b98e}.st19{fill:#fbf4e9}.st1,.st2{stroke:#eaa820}.st1{stroke-width:.4090325px}.st1,.st3,.st4{stroke-linecap:round;stroke-linejoin:round}.st21{fill:url(#linear-gradient)}.st22{fill:#e12726}.st23{fill:#e1c171}.st24{fill:#e0986f}.st26{fill:#eaa820}.st41{fill:#e8594c}.st2{stroke-width:.2382838px}.st2,.st7{stroke-miterlimit:10}.st43{fill:#f5ab90}.st54{fill:#ea5547}.st55{fill:#b22326}.st56{fill:#fdf9ef}.st57{fill:#5a210c}.st58{fill:#df2726}.st60{fill:#fff}.st64{opacity:.399994}.st66{fill:#ebafa7}.st67{fill:#3677ba}.st3{stroke:#dcd4b8;stroke-width:.119779px}.st4{stroke:#a77c51;stroke-width:.2392394px}.st7{stroke:#5a210c;stroke-width:.050056px}</style></defs><g style="clip-path:url(#clippath)"><path d="M458.954 347.382c2.11-18.566 35.446-19.833 46.838-17.301s18.145 1.689 18.99-9.704c.843-11.394-1.267-20.677-1.267-20.677l40.508 2.109s-2.11 18.99 3.376 27.43c5.486 8.438 27.804-2.669 35.399 7.036s4.267 48.24 4.267 48.24l-140.093 2.35z" class="st15"/><path d="M497.519 330.337c-6.833.931-30.125-3.106-38.51 14.596-8.386 17.702-4.924 36.647-8.341 47.517s-12.777 24.224-14.641 46.584c0 0-24.224-9.626-59.318-15.217s-46.274-2.796-46.274-2.796 40.063 37.889 71.12 51.865c31.056 13.975 39.751 15.529 55.28-4.658 15.528-20.187 26.707-41.927 29.503-67.083s11.18-70.808 11.18-70.808" class="st15"/><path d="M497.52 330.337c-6.833.932-30.125-3.106-38.51 14.597s-4.925 36.646-8.34 47.516-12.78 24.224-14.643 46.585c0 0-24.224-9.628-59.317-15.218s-46.274-2.795-46.274-2.795 40.062 37.889 71.119 51.864c31.056 13.976 39.752 15.528 55.28-4.658s26.709-41.926 29.504-67.082 11.18-70.809 11.18-70.809" class="st18"/><g style="clip-path:url(#clippath-1)"><path d="M447.388 373.936s20.796-45.994 80.503-38.607c0 0-6.175-15.441 18.654-15.733 0 0 11.625-2.022 14.657-7.582 1.836-3.41 3.703-6.98 3.703-6.98l-97.952-1.776z" style="isolation:isolate;opacity:.8;fill:#e2996e"/></g><path d="M585.673 332.344c6.833.931 30.125-3.106 38.51 14.596s4.924 36.647 8.34 47.517c3.417 10.87 12.779 24.224 14.642 46.584 0 0 24.224-9.627 59.318-15.217s46.274-2.795 46.274-2.795-40.063 37.888-71.12 51.864-39.752 15.528-55.28-4.659-26.708-41.926-29.503-67.082-11.18-70.808-11.18-70.808" class="st18"/><g style="opacity:.8"><path d="M575.641 470.705c-1.24-9.19 8.656-22.122 10.836-33.644 5.475-28.94 22.682-28.94 13.296-57.098s-3.491-43.72-4.273-47.632-14.08-6.257-14.08 0 6.62 41.028-9.023 44.157c-11.094 2.218-22.968 2.804-28.94 2.958-5.972-.154-17.845-.74-28.94-2.958-15.643-3.13-10.088-36.516-10.088-42.773s-13.297-3.91-14.079 0 6.177 18.09-3.209 46.248 7.822 28.158 13.297 57.098c2.18 11.522 2.741 21.8 1.5 30.99 0 0 25.789 53.09-10.578 104.535 0 0-25.125 16.245-14.481 13.584s30.158 1.774 40.801 4.435 20.401 1.774 32.819.887 22.175-1.774 31.045 0 23.061-4.435 30.157-7.983-29.652-2.438-18.12-13.97c0 0 .571-43.104-17.94-98.834" style="fill:#e2996e"/></g><path d="M589.2 478.026c-1.378-10.211-.754-21.631 1.668-34.432 6.084-32.156 25.203-32.156 14.775-63.443-10.43-31.287-7.822-43.454-8.691-47.8s-15.644-6.952-15.644 0 11.298 45.193-6.083 48.67c-12.327 2.464-25.52 3.116-32.156 3.286-6.635-.17-19.829-.822-32.156-3.287-17.381-3.476-6.083-44.909-6.083-51.861s-14.775-4.346-15.644 0c-.869 4.345 1.738 19.705-8.69 50.992-10.43 31.287 8.69 31.287 14.774 63.443 2.422 12.801 3.046 24.22 1.667 34.432 0 0-21.93 69.155-62.338 126.317 0 0 22.668 7.884 34.494 4.927s33.509 1.971 45.335 4.928 22.668 1.971 36.465.986 24.639-1.971 34.494 0 25.624-4.928 33.509-8.87c7.884-3.942 27.595.985 40.407-11.827 0 0-49.534-54.539-70.102-116.46" class="st22"/><g style="clip-path:url(#clippath-2)"><path d="M594.543 243.02s1.583-57.957-41.195-62.213c-42.778-4.255-63.602 12.448-66.52 51.871 0 0 18.873-31.2 48.514-28.573s49.076 22.144 59.201 38.916" style="fill:#f5df8f"/><path d="M571.519 309.912s-5.966-5.966-23.175-6.653c-17.208-.69-28.45 9.865-28.45 9.865l-18.357-15.833-12.161-49.33s97.745 4.359 97.516 5.506c-.23 1.148 1.147 33.041 1.147 33.729 0 .69-11.473 10.556-16.52 22.716" class="st23"/><path d="m506.123 276.643-4.588-19.503s-6.425-20.42.688-32.582c7.114-12.162 27.535-19.734 36.942-18.816s40.154 22.945 39.924 64.707c-.229 41.76-4.589 45.432-4.589 45.432s4.13-2.984 5.507-9.638c0 0 .69 1.147-.228 5.048 0 0 5.506-4.13 8.259-12.62 0 0 1.147 2.525-1.835 8.26 0 0 8.49-7.571 13.309-32.352s-5.04-84.822-65.166-85.816c-65.308-1.08-67.69 82.252-27.764 121.84 0 0-5.737-7.343-8.26-14.685 0 0 9.407 17.209 18.586 23.634 0 0-6.655-8.261-8.72-14.227 0 0 6.196 8.49 8.949 10.326 0 0-15.832-21.798-11.014-39.008" class="st13"/><path d="M585.91 252.773c-.173.641 2.034-18.032-7.982-37.029l4.337 1.079s8.77 16.95 3.645 35.95" class="st22"/><path d="M579.09 270.449c.106-19.327-6.422-34.422-14.4-45.16-.437-.589 1.006-4.44.56-5.004-.325-.215-2.532 2.848-2.85 2.636-16.39-10.91-23.234-17.179-23.234-17.179-9.408-.918-29.83 6.655-36.943 18.815-7.112 12.162-.69 32.583-.69 32.583s-6.653-4.589-5.504 5.736c1.146 10.325 10.095 13.767 10.095 13.767s16.34 39.49 39.923 39.992c11.948.255 25.6-17.78 32.928-37.64.058-2.662.098-5.49.115-8.546" style="fill:#efb289"/><g style="clip-path:url(#clippath-3)"><path d="M497.273 213.796c5.175-11.904 11.127-20.96 25.36-24.583 14.23-3.623 24.58-4.398 32.344-1.034s11.385.776 14.75 7.246l-3.004 19.462s4.299 13.917-6.57 17.023c0 0 4.917-5.435 4.14-10.352 0 0-6.727 15.786-31.83 17.339 0 0 14.233-8.799 15.528-19.408 0 0-8.281 14.232-28.724 24.583 0 0 13.456-12.939 13.456-20.96-1.034-.26-6.21 16.56-26.91 26.135 0 0 6.21-18.89.516-21.737 0 0-4.398 13.198-2.587 23.03 0 0-1.294-.776-2.07-2.845 0 0 0 3.88 1.553 8.796l-2.846-3.104-3.106-39.59Z" style="stroke-width:.4090325px;fill:#e0986f;opacity:.6;stroke:#e0986f;stroke-miterlimit:14;isolation:isolate"/></g><path d="M572.47 238.504c-4.63-1.992-8.845-3.102-14.223-.365-7.27 3.7-9.646 3.964-10.572 3.7-1.151-.329 0 4.757 3.832 2.511 3.832-2.247 8.061-4.23 12.819-5.286 3.5-.778 6.779-.483 8.27-.273q-.062-.144-.126-.287M530.333 243.198c-.854.445-3.237.661-11.098-1.508-6.222-1.718-10.26.613-14.73 3.82 0 0 4.086-1.78 8.959-1.697s9.414 1.178 13.617 2.612c4.205 1.433 4.312-3.78 3.252-3.227" class="st8"/><path d="m500.939 255.128-3.781 1.25s-.662-3.25-.402-5.579c.259-2.329-1.295-5.433-1.295-5.433s-.517 1.81-2.846 3.104c0 0 1.294-4.657 1.294-10.092 0-5.433-4.564-13.985.61-25.887 5.176-11.904 12.113-21.33 26.346-24.954 14.23-3.623 27.146-4.57 34.91-1.206 7.763 3.363 11.384.777 14.748 7.246l-2.09 17.631s2.589 17.597-8.28 20.7c0 0 4.917-5.432 4.14-10.35 0 0-6.727 15.785-31.829 17.339 0 0 14.233-8.798 15.527-19.408 0 0-8.281 14.233-28.723 24.583 0 0 13.455-12.938 13.455-20.961-1.034-.258-6.21 16.561-26.911 26.136 0 0 6.211-18.89.517-21.736 0 0-4.398 13.196-2.587 23.03 0 0-1.294-.776-2.07-2.846 0 0 0 3.881 1.553 8.797l-2.61-2.845z" class="st13"/><path d="M548.503 225.766c1.506-2.483 2.723-5.093 3.922-7.698a122 122 0 0 0 3.207-7.978c.981-2.696 1.861-5.429 2.702-8.18l2.427-8.326c-.109 1.449-.296 2.89-.47 4.336-.253 1.43-.46 2.876-.8 4.291-.613 2.85-1.444 5.65-2.42 8.4-1.021 2.733-2.173 5.425-3.579 7.987-1.398 2.559-3.003 5.034-4.989 7.168" class="st23"/><path d="M535.476 223.467c1.73-2.866 3.685-5.579 5.704-8.24 2.012-2.669 4.163-5.231 6.395-7.721 2.268-2.46 4.581-4.885 7.1-7.099 2.512-2.215 5.132-4.332 8.003-6.058-1.219 1.155-2.491 2.214-3.652 3.41-1.225 1.116-2.375 2.318-3.536 3.499a314 314 0 0 0-6.779 7.275c-2.241 2.444-4.406 4.96-6.623 7.438l-3.285 3.755zM558.848 226.915a18 18 0 0 0 1.978-3.951c.536-1.365.948-2.773 1.31-4.19.703-2.838 1.131-5.743 1.33-8.669.28-2.921.242-5.866.248-8.818l-.163-4.435c-.07-1.483-.196-2.963-.225-4.463.371 1.446.646 2.914.973 4.378.233 1.476.428 2.962.608 4.451.24 2.989.347 6.003.086 9.01-.235 3.003-.745 6.006-1.713 8.88-.95 2.85-2.297 5.681-4.432 7.807" class="st23"/><path d="M509.042 223.467c.545-2.447 1.592-4.77 2.878-6.934 1.296-2.163 2.894-4.167 4.787-5.866 3.744-3.437 8.528-5.759 13.491-6.773 4.856-1.12 9.662-2.435 14.458-3.783 4.793-1.345 9.565-2.832 14.238-4.493l.302 1.202c-4.05.417-8.095.414-12.123.262-4.026-.218-8.04-.55-12.02-1.14 4.015.228 8.028.376 12.037.35 4.005 0 8.016-.154 11.948-.711l5.404-.766-5.102 1.968c-4.697 1.811-9.466 3.328-14.27 4.765-4.806 1.425-9.686 2.579-14.576 3.664-4.816.981-9.44 2.922-13.195 6.13-3.72 3.189-6.696 7.37-8.257 12.125" class="st23"/><path d="M552.906 259.756s8.362-14.414 17.495-8.692c0 0 1.652 4.621-3.192 7.262-4.84 2.642-11.002.88-14.303 1.43" class="st56"/><path d="M557.527 254.2a4.787 4.787 0 1 0 9.573 0 4.787 4.787 0 0 0-9.573 0" class="st67"/><circle cx="562.313" cy="254.2" r="4.787" style="fill:none;stroke:#426ab1;stroke-miterlimit:9.9999998;stroke-width:.2045163px" transform="rotate(-45 562.313 254.2)"/><path d="M559.398 253.265a2.642 2.642 0 0 0 5.28 0 2.64 2.64 0 1 0-5.28 0" class="st16"/><path d="M558.738 257.226a1.32 1.32 0 1 1 2.64-.001 1.32 1.32 0 0 1-2.64 0M563.029 253.1a1.046 1.046 0 1 1 2.091 0 1.046 1.046 0 0 1-2.091 0" class="st60"/><path d="M567.21 258.326c4.842-2.64 3.192-7.261 3.192-7.261-9.133-5.723-17.495 8.692-17.495 8.692s1.51-6.207 5.838-9.526c3.038-2.33 4.602-3.457 4.602-3.457s.679.615.185 1.417c0 0 1.788-.493 2.138-1.749 0 0 .55.99.55 1.542 0 0 2.09-.221 2.531-1.431 0 0 .33 1.21.11 1.98 0 0 2.187-.65 2.803-2.068 0 0 .277 1.958.056 2.839 0 0 1.945-.338 2.716-2.099 0 0-.293 4.08-2.825 7.27-2.53 3.191-4.401 3.851-4.401 3.851" class="st8"/><path d="M552.882 253.706s4.57-8.207 12.739-6.753l-.038.126c-6.189-1.14-12.637 6.55-12.701 6.627" class="st8"/><path d="M528.797 261.8s-11.08-12.447-18.883-5.014c0 0-.69 4.859 4.58 6.477 5.274 1.618 10.958-1.34 14.303-1.463" class="st56"/><path d="M523.156 257.281a4.786 4.786 0 1 1-9.378 1.917 4.786 4.786 0 0 1 9.378-1.917" class="st67"/><path d="M523.156 257.281a4.786 4.786 0 1 1-9.378 1.917 4.786 4.786 0 0 1 9.378-1.917Z" style="fill:none;stroke-miterlimit:10;stroke-width:.2045163px;stroke:#426ab1"/><path d="M521.136 256.74a2.641 2.641 0 1 1-5.175 1.057 2.641 2.641 0 0 1 5.175-1.058" class="st16"/><path d="M522.576 260.488a1.319 1.319 0 1 0-2.587.53 1.32 1.32 0 1 0 2.587-.53M517.545 257.304a1.045 1.045 0 1 0-2.048.417 1.045 1.045 0 0 0 2.048-.417" class="st60"/><path d="M514.495 263.263c-5.272-1.618-4.581-6.477-4.581-6.477 7.803-7.435 18.883 5.014 18.883 5.014s-2.724-5.779-7.63-8.164c-3.442-1.674-5.201-2.464-5.201-2.464s-.54.738.103 1.424c0 0-1.85-.125-2.444-1.284 0 0-.341 1.079-.23 1.62 0 0-2.093.202-2.767-.896 0 0-.082 1.251.288 1.962 0 0-2.273-.2-3.159-1.463 0 0 .118 1.973.511 2.791 0 0-1.971.058-3.08-1.512 0 0 1.104 3.938 4.224 6.557 3.118 2.62 5.083 2.892 5.083 2.892" class="st8"/><path d="M527.609 255.867s-6.121-7.126-13.834-4.065l.061.115c5.837-2.356 13.694 3.887 13.773 3.95" class="st8"/><g class="st64"><path d="M531.318 248.935c4.603 5.72 4.983 12.888 5.065 19.938.004.386.59.386.6 0 .207-7.2.108-14.841-5.502-20.1-.11-.105-.255.049-.163.162" class="st24" style="clip-path:url(#clippath-4)"/></g><path d="M550.324 277.994c-.096-.104-.264-.041-.324.063-.661 1.14-3.09 1.047-4.31 1.532-.832.33-1.555.806-2.41.883-.859.03-1.637-.353-2.503-.579-1.271-.33-3.669.065-4.467-.985-.074-.097-.247-.139-.329-.022-.431.605-.526 1.102-.012 1.766.402.515 1.134.62 1.72.666 1.243.098 2.14.12 3.282.67.847.409 1.605.55 2.43.449.832 0 1.566-.236 2.356-.746 1.066-.688 1.951-.821 3.175-1.073.574-.117 1.288-.31 1.621-.872.43-.723.273-1.204-.229-1.752" class="st24"/><g class="st64"><path d="m542.697 284.538-.354 1.475c-.254 1.052.51 2.044 1.355 1.904.906-.15 1.279-1.308.903-2.267l-.524-1.334c-.294-.753-1.206-.5-1.38.222" class="st24" style="clip-path:url(#clippath-5)"/></g><g class="st64"><path d="M546.294 265.948c.28-6.446.493-12.338 3.256-18.292.163-.353-.345-.605-.537-.27-3.224 5.61-3.276 12.294-2.903 18.574.007.12.18.105.184-.012" class="st24" style="clip-path:url(#clippath-6)"/></g><path d="m533.937 291.267 1.096 3.58 4.762 3.352 9.242-.565s4.644-3.846 4.771-4.04c.128-.193 1.105-3.813 1.105-3.813s-.448-1.552-.8-1.401c-.357.149-14.237 3.581-14.237 3.581z" class="st60"/><path d="M528.935 290.317c1.396.665 2.633 1.118 5.234.017 2.602-1.1 5.926-1.81 7.496-.732 1.57 1.077 2.358.466 3.095-.264s3.362-1.772 6.505-1.427c3.142.343 8.04-2.078 8.04-2.078s-5.426 5.293-12.479 6.742c-7.052 1.451-9.122.514-11.125-.103-2.263-.695-3.11.062-4.575-.434-1.463-.496-2.19-1.721-2.19-1.721" class="st41"/><path d="M534.626 291.743c-.102.253 1.607 4.13 6.651 4.852 5.047.723 8.037-.61 10.213-2.715 2.175-2.107 2.996-4.614 2.996-4.614l1.776-1.239s.83 5.92-3.689 10.062c-4.52 4.144-12.289 3.735-15.881.516-3.593-3.22-3.465-7.037-3.465-7.037z" class="st41"/><path d="M540.293 271.775c-.391 1.65-.371 3.167-.16 4.85.119.93 1.471.75 1.272-.171-.333-1.54-.52-3.123-.756-4.68-.027-.184-.316-.168-.356 0" style="fill:#f2d9c7"/></g><path d="M493.535 236.875s-12.089-45.614 45.453-53.351l4.836 8.059s-44.97-3.062-50.29 45.292Z" class="st7"/><path d="M493.535 236.875s-12.089-45.614 45.453-53.351l4.836 8.059s-44.97-3.062-50.29 45.292" class="st22"/><path d="M525.771 167.728s3.224 27.401 31.27 26.112l4.352 1.773 1.934-3.224s.967-9.349-7.898-17.891-25.467-3.546-29.658-6.77ZM591.5 225.55s-24.74-.361-26.162-25.499l-1.981-3.72 2.698-2.02s8.251-1.72 16.685 5.404 5.5 22.393 8.76 25.836Z" class="st7"/><path d="M525.771 167.728s3.224 27.401 31.27 26.112l4.352 1.773 1.934-3.224s.967-9.349-7.898-17.891-25.467-3.546-29.658-6.77" class="st22"/><path d="M533.024 174.659c3.818 2.524 7.34 1.054 11.16-.467 2.78-.861 5.759-1.518 8.666-1.004.953.195 1.9.592 2.579 1.31-.682-.715-1.63-1.107-2.581-1.297-2.905-.502-5.877.168-8.648 1.039-3.846 1.506-7.343 2.964-11.176.419M549.465 177.883c2.594 4.98 5.915 9.665 10.154 13.378-4.277-3.678-7.603-8.372-10.154-13.378M544.79 187.392c4.651 2.405 9.727 3.896 14.83 4.997-5.115-1.052-10.2-2.546-14.83-4.997" class="st57"/><path d="M591.5 225.55s-24.74-.361-26.162-25.499l-1.981-3.72 2.698-2.02s8.251-1.72 16.685 5.404 5.5 22.393 8.76 25.836" class="st22"/><path d="M584.652 219.716c-1.055-1.387-1.807-3.09-1.718-4.866.028-1.772.708-3.433 1.066-5.142.523-2.552.848-5.265.134-7.81-.257-.832-.694-1.641-1.394-2.183.703.539 1.144 1.348 1.405 2.18.726 2.546.413 5.264-.1 7.822-.368 1.713-1.053 3.366-1.089 5.134-.096 1.769.647 3.473 1.696 4.865M580.268 205.345c-4.7-1.816-9.193-4.353-12.866-7.83 3.7 3.44 8.185 5.973 12.866 7.83M572.213 210.388c-2.61-3.906-4.41-8.304-5.818-12.77 1.45 4.45 3.247 8.842 5.818 12.77" class="st57"/><path d="M563.004 188.037c-2.233.165 0 2.257-2.417 4.03s-4.352.322-4.675 2.256 1.451 4.03 6.448 3.224 4.996-9.832.644-9.51Z" class="st7"/><path d="M563.004 188.037c-2.233.165 0 2.257-2.417 4.03s-4.352.322-4.675 2.256 1.451 4.03 6.448 3.224 4.996-9.832.644-9.51" class="st22"/><path d="M558.471 270.947c.573 2.8 4.603 4.342 9.002 3.442s7.503-3.898 6.93-6.698c-.572-2.8-4.602-4.34-9.002-3.44-4.4.898-7.503 3.898-6.93 6.696M509.75 273.045c-.299 2.841 3.077 5.528 7.545 5.998 4.464.47 8.328-1.451 8.627-4.293s-3.078-5.528-7.544-5.998-8.328 1.451-8.627 4.293" class="st43"/><g class="st64"><path d="M516.87 290.6c-2.649-1.433-4.812-3.628-6.645-5.997-.884-1.214-1.73-2.464-2.4-3.807-.713-1.322-1.255-2.728-1.702-4.153.797 1.27 1.557 2.535 2.366 3.764.79 1.24 1.649 2.429 2.522 3.603.874 1.175 1.815 2.297 2.78 3.4.983 1.092 1.978 2.18 3.079 3.19" class="st24"/></g><g style="clip-path:url(#clippath-7)"><g style="opacity:.600006"><g style="clip-path:url(#clippath-8)"><path d="M572.454 212.182c.556 14.302 4.088 28.286 4.417 42.603.327 14.231-2.662 28.148-8.375 41.16-5.075 11.557-11.693 22.352-18.604 32.885-6.992 10.656-16.45 21.393-20.773 33.444-3.126 8.715 9.64 16.089 15.674 9.125 8.852-10.218 15.125-24.012 21.849-35.731 6.807-11.866 13.215-24.13 17.521-37.153 9.16-27.707 6.962-60.425-3.723-87.414-1.564-3.953-8.178-3.87-7.986 1.081" style="fill:#e0986c"/></g></g></g></g><path d="M323.65 395.835s23.406 20.063 48.44 21.55c25.03 1.484 45.527.202 43.562 7.677s-34.135 58.454-34.135 58.454-33.486.494-52.992-10.404c-19.504-10.897-24.529-17.359-24.529-17.359s6-.474 17.378-5.426c11.377-4.956 18.53-5.45 18.53-5.45s-2.6-9.413-7.476-16.349c-4.878-6.934-9.428-21.547-8.779-32.693" class="st26"/><path d="M323.65 395.835s23.406 20.063 48.44 21.55c25.03 1.484 45.527.202 43.562 7.677s-34.135 58.454-34.135 58.454-33.486.494-52.992-10.404c-19.504-10.897-24.529-17.359-24.529-17.359s6-.474 17.378-5.426c11.377-4.956 18.53-5.45 18.53-5.45s-2.6-9.413-7.476-16.349c-4.878-6.934-9.428-21.547-8.779-32.693Z" class="st2"/><path d="M756.351 395.835s-23.407 20.063-48.44 21.55c-25.03 1.484-45.527.202-43.562 7.677s34.136 58.454 34.136 58.454 33.484.494 52.989-10.404c19.506-10.897 24.532-17.359 24.532-17.359s-6-.474-17.38-5.426c-11.379-4.956-18.53-5.45-18.53-5.45s2.601-9.413 7.477-16.349c4.877-6.934 9.429-21.547 8.778-32.693" class="st26"/><path d="M756.351 395.835s-23.407 20.063-48.44 21.55c-25.03 1.484-45.527.202-43.562 7.677s34.136 58.454 34.136 58.454 33.484.494 52.989-10.404c19.506-10.897 24.532-17.359 24.532-17.359s-6-.474-17.38-5.426c-11.379-4.956-18.53-5.45-18.53-5.45s2.601-9.413 7.477-16.349c4.877-6.934 9.429-21.547 8.778-32.693Z" class="st2"/><path d="M304.469 397.278h113.148v88.175H304.469z" class="st21" style="clip-path:url(#clippath-9)"/><path d="M323.65 397.278s23.406 20.062 48.44 21.548c25.03 1.486 45.527.204 43.562 7.68-1.966 7.472-34.135 58.451-34.135 58.451s-33.486.496-52.992-10.402c-19.504-10.898-24.056-18.08-24.056-18.08s5.526.247 16.905-4.707c11.377-4.952 18.53-5.45 18.53-5.45s-2.6-9.412-7.476-16.345c-4.878-6.936-9.428-21.55-8.779-32.695" class="st1"/><path d="M378.265 423.194s2.601-2.724 12.68.743c10.076 3.468 22.432 5.695 24.707 1.486 0 0-2.926 6.936-1.951 12.633a236 236 0 0 1 1.625 11.392s-38.035-12.384-37.06-26.254" class="st26"/><path d="M378.265 423.194s2.601-2.724 12.68.743c10.076 3.468 22.432 5.695 24.707 1.486 0 0-2.926 6.936-1.951 12.633a236 236 0 0 1 1.625 11.392s-38.035-12.384-37.06-26.254Z" class="st2"/><path d="M662.383 397.278h113.149v88.175H662.383z" class="st21" style="clip-path:url(#clippath-10)"/><path d="M756.351 397.278s-23.407 20.062-48.44 21.548c-25.03 1.486-45.527.204-43.562 7.68 1.966 7.472 34.136 58.451 34.136 58.451s33.484.496 52.989-10.402c19.506-10.898 24.057-18.08 24.057-18.08s-5.525.247-16.905-4.707c-11.379-4.952-18.53-5.45-18.53-5.45s2.601-9.412 7.477-16.345c4.877-6.936 9.429-21.55 8.778-32.695" class="st1"/><path d="M701.735 423.194s-2.6-2.724-12.679.743c-10.077 3.468-22.43 5.695-24.707 1.486 0 0 2.927 6.936 1.951 12.633a234 234 0 0 0-1.626 11.392s38.037-12.384 37.061-26.254" class="st26"/><path d="M701.735 423.194s-2.6-2.724-12.679.743c-10.077 3.468-22.43 5.695-24.707 1.486 0 0 2.927 6.936 1.951 12.633a234 234 0 0 0-1.626 11.392s38.037-12.384 37.061-26.254Z" class="st2"/><path d="M378.265 424.276s2.601-2.725 12.68.741c10.076 3.468 22.432 5.697 24.707 1.488 0 0-2.926 6.934-1.951 12.631.974 5.698 1.625 11.395 1.625 11.395s-38.035-12.386-37.06-26.255" class="st26"/><path d="M378.265 424.276s2.601-2.725 12.68.741c10.076 3.468 22.432 5.697 24.707 1.488 0 0-2.926 6.934-1.951 12.631.974 5.698 1.625 11.395 1.625 11.395s-38.035-12.386-37.06-26.255Z" class="st2"/><path d="M701.735 424.276s-2.6-2.725-12.679.741c-10.077 3.468-22.43 5.697-24.707 1.488 0 0 2.927 6.934 1.951 12.631-.976 5.698-1.626 11.395-1.626 11.395s38.037-12.386 37.061-26.255" class="st26"/><path d="M701.735 424.276s-2.6-2.725-12.679.741c-10.077 3.468-22.43 5.697-24.707 1.488 0 0 2.927 6.934 1.951 12.631-.976 5.698-1.626 11.395-1.626 11.395s38.037-12.386 37.061-26.255Z" class="st2"/><path d="M681.89 367.496h-63s-2.47 72.393-1.163 86.785c.946 10.404 13.745 12.83 20.763 13.376l-.066.143h2.916c1.053.023 1.682 0 1.682 0h14.736s.628.023 1.683 0h2.915l-.067-.143c7.02-.546 19.819-2.972 20.765-13.376 1.308-14.392-1.164-86.785-1.164-86.785" class="st55"/><g style="clip-path:url(#clippath-11)"><path d="M674.992 367.496h-63s-2.47 64.837-1.164 79.228c.945 10.405 13.746 12.83 20.763 13.377l-.064.143h2.913c1.055.021 1.684 0 1.684 0h14.735s.628.021 1.683 0h2.915l-.066-.143c7.019-.546 19.818-2.972 20.763-13.377 1.308-14.391-1.162-79.228-1.162-79.228" style="fill:#d23828"/></g><path d="M626.98 444.218c-1.06-11.33.943-76.722.943-76.722h-6.228s-2.005 65.393-.945 76.722c.766 8.192 11.146 10.102 16.837 10.532l-.054.113h2.363c.856.017 1.364 0 1.364 0h2.503l.054-.113c-5.691-.43-16.07-2.34-16.837-10.532" class="st66"/><path d="M660.609 397.062c8.14-.582 3.344-12.067 11.339-5.525 7.995 6.543 7.995-5.814 12.21-1.017 4.216 4.796 8.868-.146 2.326-7.415-6.54-7.269-4.36-8.285-2.617-10.175 1.745-1.89 13.666-8.869-30.091-8.869h-6.687c-43.758 0-31.837 6.98-30.092 8.87 1.744 1.889 3.924 2.905-2.617 10.174s-1.89 12.211 2.326 7.415c4.215-4.797 4.215 7.56 12.21 1.017s3.198 4.943 11.34 5.525c0 0 3.49.58 4.651-5.67 1.164-6.251 8.723-3.78 8.577 1.018-.144 4.797 7.125 4.652 7.125 4.652" class="st19"/><path d="M660.609 397.062c8.14-.582 3.344-12.067 11.339-5.525 7.995 6.543 7.995-5.814 12.21-1.017 4.216 4.796 8.868-.146 2.326-7.415-6.54-7.269-4.36-8.285-2.617-10.175 1.745-1.89 13.666-8.869-30.091-8.869h-6.687c-43.758 0-31.837 6.98-30.092 8.87 1.744 1.889 3.924 2.905-2.617 10.174s-1.89 12.211 2.326 7.415c4.215-4.797 4.215 7.56 12.21 1.017s3.198 4.943 11.34 5.525c0 0 3.49.58 4.651-5.67 1.164-6.251 8.723-3.78 8.577 1.018-.144 4.797 7.125 4.652 7.125 4.652" class="st3"/><path d="M670.714 390.272c-4.869-2.718-.361-7.66-14.318-7.08s-33.414-4.738-36.915-6.44c0 0 30.372 3.549 29.792.853-.582-2.697-37-3.101-34.345-10.75 0 0 3.236 4.563 35.943 4.127 32.71-.436 31.693-5.249 31.693-5.249l24.421.743 4.07 31.11s-23.258 16.572-22.822 16.426c.436-.145-17.52-23.74-17.52-23.74" class="st10" style="clip-path:url(#clippath-12)"/><path d="M618.018 375.198s28.055 7.27 64.981 2.18" class="st4"/><path d="M617.727 376.651s44.38 2.78 64.421-1.154" class="st4"/><path d="M460.65 367.496h-63s-2.47 72.393-1.163 86.785c.946 10.404 13.745 12.83 20.764 13.376l-.066.143h2.915c1.053.023 1.683 0 1.683 0h14.736s.628.023 1.682 0h2.916l-.068-.143c7.02-.546 19.82-2.972 20.765-13.376 1.308-14.392-1.164-86.785-1.164-86.785" class="st55"/><g style="clip-path:url(#clippath-13)"><path d="M453.752 367.496H390.75s-2.47 64.837-1.162 79.228c.945 10.405 13.744 12.83 20.763 13.377l-.066.143h2.916c1.053.021 1.682 0 1.682 0h14.736s.628.021 1.683 0h2.915l-.067-.143c7.02-.546 19.819-2.972 20.765-13.377 1.307-14.391-1.164-79.228-1.164-79.228" style="fill:#f49220"/></g><path d="M405.74 444.218c-1.06-11.33.943-76.722.943-76.722h-6.228s-2.005 65.393-.944 76.722c.767 8.192 11.145 10.102 16.836 10.532l-.054.113h2.365c.853.017 1.363 0 1.363 0h2.5l.056-.113c-5.693-.43-16.069-2.34-16.836-10.532" style="fill:#f9ae41"/><path d="M439.368 397.062c8.141-.582 3.344-12.067 11.34-5.525 7.994 6.543 7.994-5.814 12.212-1.017 4.215 4.796 8.867-.146 2.324-7.415-6.542-7.269-4.36-8.285-2.616-10.175s13.665-8.869-30.093-8.869h-6.685c-43.758 0-31.837 6.98-30.093 8.87 1.745 1.889 3.925 2.905-2.616 10.174-6.543 7.27-1.891 12.211 2.324 7.415 4.217-4.797 4.217 7.56 12.213 1.017s3.197 4.943 11.338 5.525c0 0 3.49.58 4.652-5.67 1.164-6.251 8.723-3.78 8.577 1.018-.144 4.797 7.123 4.652 7.123 4.652" class="st19"/><path d="M439.368 397.062c8.141-.582 3.344-12.067 11.34-5.525 7.994 6.543 7.994-5.814 12.212-1.017 4.215 4.796 8.867-.146 2.324-7.415-6.542-7.269-4.36-8.285-2.616-10.175s13.665-8.869-30.093-8.869h-6.685c-43.758 0-31.837 6.98-30.093 8.87 1.745 1.889 3.925 2.905-2.616 10.174-6.543 7.27-1.891 12.211 2.324 7.415 4.217-4.797 4.217 7.56 12.213 1.017s3.197 4.943 11.338 5.525c0 0 3.49.58 4.652-5.67 1.164-6.251 8.723-3.78 8.577 1.018-.144 4.797 7.123 4.652 7.123 4.652" class="st3"/><path d="M449.475 390.272c-4.869-2.718-.363-7.66-14.32-7.08-13.954.583-33.414-4.738-36.913-6.44 0 0 30.372 3.549 29.79.853-.58-2.697-36.997-3.101-34.345-10.75 0 0 3.237 4.563 35.945 4.127 32.709-.436 31.691-5.249 31.691-5.249l24.423.743 4.07 31.11s-23.26 16.572-22.823 16.426c.435-.145-17.518-23.74-17.518-23.74" class="st10" style="clip-path:url(#clippath-14)"/><path d="M396.778 375.198s28.057 7.27 64.981 2.18" class="st4"/><path d="M396.487 376.651s44.381 2.78 64.421-1.154" class="st4"/><path d="M515.96 385.695h-63s-2.47 72.394-1.163 86.784c.946 10.407 13.745 12.833 20.764 13.378l-.066.143h2.915c1.053.023 1.683 0 1.683 0h14.736s.628.023 1.682 0h2.916l-.068-.143c7.02-.545 19.82-2.97 20.765-13.378 1.308-14.39-1.163-86.784-1.163-86.784" class="st55"/><g style="clip-path:url(#clippath-15)"><path d="M509.062 385.695h-63.001s-2.47 64.836-1.162 79.228c.946 10.407 13.744 12.833 20.763 13.378l-.066.143h2.916c1.053.023 1.682 0 1.682 0h14.736s.628.023 1.683 0h2.915l-.067-.143c7.019-.545 19.819-2.97 20.765-13.378 1.308-14.392-1.164-79.228-1.164-79.228" style="fill:#d81d5c"/></g><path d="M461.05 462.419c-1.06-11.332.943-76.724.943-76.724h-6.229s-2.005 65.392-.944 76.724c.768 8.191 11.146 10.101 16.837 10.53l-.054.113h2.364c.855.017 1.363 0 1.363 0h2.503l.053-.114c-5.69-.428-16.068-2.338-16.836-10.53" style="fill:#ec2b7b"/><path d="M494.678 415.261c8.142-.582 3.344-12.066 11.34-5.525 7.995 6.543 7.995-5.814 12.21-1.016 4.216 4.796 8.869-.146 2.326-7.415-6.541-7.27-4.36-8.285-2.616-10.175 1.746-1.89 13.665-8.869-30.093-8.869h-6.687c-43.757 0-31.835 6.979-30.091 8.869s3.924 2.906-2.617 10.175-1.89 12.21 2.325 7.415c4.216-4.798 4.216 7.56 12.213 1.016 7.995-6.541 3.197 4.943 11.339 5.525 0 0 3.49.582 4.651-5.67 1.164-6.25 8.723-3.779 8.577 1.019s7.124 4.651 7.124 4.651" class="st19"/><path d="M494.678 415.261c8.142-.582 3.344-12.066 11.34-5.525 7.995 6.543 7.995-5.814 12.21-1.016 4.216 4.796 8.869-.146 2.326-7.415-6.541-7.27-4.36-8.285-2.616-10.175 1.746-1.89 13.665-8.869-30.093-8.869h-6.687c-43.757 0-31.835 6.979-30.091 8.869s3.924 2.906-2.617 10.175-1.89 12.21 2.325 7.415c4.216-4.798 4.216 7.56 12.213 1.016 7.995-6.541 3.197 4.943 11.339 5.525 0 0 3.49.582 4.651-5.67 1.164-6.25 8.723-3.779 8.577 1.019s7.124 4.651 7.124 4.651" class="st3"/><path d="M504.784 408.471c-4.868-2.717-.362-7.659-14.317-7.078-13.957.581-33.415-4.74-36.915-6.44 0 0 30.372 3.547 29.792.851-.582-2.697-37-3.1-34.346-10.749 0 0 3.235 4.563 35.944 4.127 32.708-.436 31.692-5.25 31.692-5.25l24.422.744 4.071 31.109s-23.261 16.574-22.824 16.428-17.519-23.742-17.519-23.742" class="st10" style="clip-path:url(#clippath-16)"/><path d="M452.088 393.398s28.057 7.269 64.983 2.18" class="st4"/><path d="M451.798 394.851s44.38 2.779 64.42-1.154" class="st4"/><path d="M626.58 388.935h-63s-2.471 72.393-1.163 86.784c.946 10.407 13.744 12.833 20.763 13.378l-.066.142h2.916c1.053.023 1.682 0 1.682 0h14.736s.628.023 1.683 0h2.915l-.067-.142c7.02-.545 19.819-2.97 20.765-13.378 1.308-14.39-1.164-86.784-1.164-86.784" style="fill:#2f2e7c"/><g style="clip-path:url(#clippath-17)"><path d="M619.682 388.935h-63s-2.47 64.836-1.163 79.228c.944 10.407 13.745 12.832 20.762 13.378l-.065.142h2.916c1.053.023 1.682 0 1.682 0h14.735s.628.023 1.684 0h2.914l-.066-.142c7.019-.546 19.82-2.971 20.765-13.378 1.306-14.392-1.164-79.228-1.164-79.228" style="fill:#2c398e"/></g><path d="M571.67 465.658c-1.06-11.33.943-76.723.943-76.723h-6.229s-2.004 65.392-.944 76.723c.766 8.192 11.146 10.102 16.837 10.53l-.054.114h2.364c.855.017 1.363 0 1.363 0h2.503l.053-.114c-5.69-.428-16.068-2.338-16.836-10.53" class="st66"/><path d="M605.299 418.501c8.14-.582 3.343-12.067 11.339-5.525 7.995 6.543 7.995-5.814 12.21-1.018s8.868-.144 2.326-7.413c-6.541-7.268-4.36-8.286-2.617-10.176 1.745-1.89 13.666-8.868-30.091-8.868h-6.688c-43.757 0-31.836 6.979-30.09 8.868 1.743 1.89 3.923 2.908-2.618 10.176s-1.89 12.21 2.326 7.413c4.215-4.796 4.215 7.56 12.21 1.018s3.198 4.943 11.34 5.525c0 0 3.49.582 4.65-5.67 1.165-6.25 8.724-3.78 8.578 1.018-.144 4.798 7.125 4.652 7.125 4.652" class="st19"/><path d="M605.299 418.501c8.14-.582 3.343-12.067 11.339-5.525 7.995 6.543 7.995-5.814 12.21-1.018s8.868-.144 2.326-7.413c-6.541-7.268-4.36-8.286-2.617-10.176 1.745-1.89 13.666-8.868-30.091-8.868h-6.688c-43.757 0-31.836 6.979-30.09 8.868 1.743 1.89 3.923 2.908-2.618 10.176s-1.89 12.21 2.326 7.413c4.215-4.796 4.215 7.56 12.21 1.018s3.198 4.943 11.34 5.525c0 0 3.49.582 4.65-5.67 1.165-6.25 8.724-3.78 8.578 1.018-.144 4.798 7.125 4.652 7.125 4.652" class="st3"/><path d="M615.403 411.711c-4.868-2.717-.36-7.659-14.317-7.079-13.956.582-33.415-4.739-36.913-6.44 0 0 30.37 3.548 29.79.852-.582-2.697-37-3.1-34.345-10.75 0 0 3.236 4.564 35.943 4.128 32.71-.436 31.692-5.25 31.692-5.25l24.424.744 4.07 31.109s-23.26 16.574-22.824 16.428-17.52-23.742-17.52-23.742" class="st10" style="clip-path:url(#clippath-18)"/><path d="M562.708 396.637s28.057 7.27 64.981 2.18" class="st4"/><path d="M562.417 398.09s44.38 2.78 64.421-1.154" class="st4"/><path d="M571.27 407.201h-63s-2.471 72.392-1.163 86.784c.946 10.407 13.746 12.833 20.763 13.378l-.066.143h2.915c1.055.023 1.683 0 1.683 0h14.736s.628.023 1.683 0h2.915l-.067-.143c7.02-.545 19.819-2.97 20.764-13.378 1.308-14.392-1.163-86.784-1.163-86.784" style="fill:#eb3230"/><g style="clip-path:url(#clippath-19)"><path d="M564.372 407.201h-63s-2.471 64.836-1.163 79.228c.946 10.406 13.744 12.831 20.763 13.376l-.066.145h2.914c1.055.023 1.684 0 1.684 0h14.736s.628.023 1.681 0h2.917l-.067-.145c7.02-.545 19.819-2.97 20.765-13.376 1.306-14.392-1.164-79.228-1.164-79.228" style="fill:#ed4137"/></g><path d="M516.36 483.925c-1.06-11.332.943-76.724.943-76.724h-6.229s-2.005 65.392-.944 76.724c.768 8.191 11.146 10.101 16.837 10.53l-.054.113h2.364c.855.017 1.363 0 1.363 0h2.503l.053-.114c-5.69-.428-16.068-2.338-16.836-10.53" style="fill:#ef5a29"/><path d="M549.989 436.767c8.14-.582 3.343-12.066 11.339-5.525 7.995 6.541 7.995-5.815 12.212-1.018s8.866-.144 2.324-7.413c-6.541-7.268-4.36-8.286-2.616-10.177 1.744-1.89 13.665-8.867-30.092-8.867h-6.688c-43.757 0-31.835 6.977-30.09 8.867 1.743 1.891 3.923 2.91-2.618 10.177-6.542 7.269-1.89 12.21 2.325 7.413s4.216 7.56 12.211 1.018c7.997-6.541 3.2 4.943 11.34 5.525 0 0 3.49.582 4.652-5.67 1.164-6.252 8.723-3.779 8.577 1.019-.145 4.797 7.124 4.651 7.124 4.651" class="st19"/><path d="M549.989 436.767c8.14-.582 3.343-12.066 11.339-5.525 7.995 6.541 7.995-5.815 12.212-1.018s8.866-.144 2.324-7.413c-6.541-7.268-4.36-8.286-2.616-10.177 1.744-1.89 13.665-8.867-30.092-8.867h-6.688c-43.757 0-31.835 6.977-30.09 8.867 1.743 1.891 3.923 2.91-2.618 10.177-6.542 7.269-1.89 12.21 2.325 7.413s4.216 7.56 12.211 1.018c7.997-6.541 3.2 4.943 11.34 5.525 0 0 3.49.582 4.652-5.67 1.164-6.252 8.723-3.779 8.577 1.019-.145 4.797 7.124 4.651 7.124 4.651" class="st3"/><path d="M560.095 429.977c-4.87-2.718-.363-7.659-14.319-7.078-13.955.581-33.415-4.74-36.915-6.44 0 0 30.374 3.547 29.792.85s-37-3.1-34.345-10.748c0 0 3.236 4.563 35.945 4.127 32.708-.436 31.69-5.249 31.69-5.249l24.424.743 4.07 31.109s-23.26 16.572-22.824 16.426-17.518-23.74-17.518-23.74" class="st10" style="clip-path:url(#clippath-20)"/><path d="M507.398 414.903s28.057 7.269 64.981 2.181" class="st4"/><path d="M507.107 416.357s44.38 2.78 64.42-1.154" class="st4"/><path d="M556.743 530.575c110.857 0 147.594-30.712 147.594-30.712s1.624-5.203-2.602-19.32c-4.227-14.118-3.25-24.77.976-40.62 4.226-15.853-.976-17.091-.976-17.091s-27.308 29.971-142.066 29.971h-39.336c-114.76 0-142.068-29.971-142.068-29.971s-5.201 1.238-.975 17.09c4.227 15.852 5.202 26.503.975 40.62-4.226 14.118-2.6 19.32-2.6 19.32s36.735 30.713 147.592 30.713z" class="st26"/><path d="M556.743 530.575c110.857 0 147.594-30.712 147.594-30.712s1.624-5.203-2.602-19.32c-4.227-14.118-3.25-24.77.976-40.62 4.226-15.853-.976-17.091-.976-17.091s-27.308 29.971-142.066 29.971h-39.336c-114.76 0-142.068-29.971-142.068-29.971s-5.201 1.238-.975 17.09c4.227 15.852 5.202 26.503.975 40.62-4.226 14.118-2.6 19.32-2.6 19.32s36.735 30.713 147.592 30.713z" class="st2"/><path d="M556.743 532.018c110.857 0 147.594-30.713 147.594-30.713s1.624-5.203-2.602-19.319c-4.227-14.118-3.25-24.769.976-40.621 4.226-15.85-.976-17.09-.976-17.09s-27.308 29.97-142.066 29.97h-39.336c-114.76 0-142.068-29.97-142.068-29.97s-5.201 1.24-.975 17.09c4.227 15.852 5.202 26.503.975 40.621-4.226 14.116-2.6 19.319-2.6 19.319s36.735 30.713 147.592 30.713z" class="st26"/><path d="M556.743 532.018c110.857 0 147.594-30.713 147.594-30.713s1.624-5.203-2.602-19.319c-4.227-14.118-3.25-24.769.976-40.621 4.226-15.85-.976-17.09-.976-17.09s-27.308 29.97-142.066 29.97h-39.336c-114.76 0-142.068-29.97-142.068-29.97s-5.201 1.24-.975 17.09c4.227 15.852 5.202 26.503.975 40.621-4.226 14.116-2.6 19.319-2.6 19.319s36.735 30.713 147.592 30.713z" class="st1"/><g style="clip-path:url(#clippath-21)"><path d="M373.064 424.275h333.874v107.742H373.064z" style="fill:url(#linear-gradient1)"/></g><path d="M556.743 532.018c110.857 0 147.594-30.713 147.594-30.713s1.624-5.203-2.602-19.319c-4.227-14.118-3.25-24.769.976-40.621 4.226-15.85-.976-17.09-.976-17.09s-27.308 29.97-142.066 29.97h-39.336c-114.76 0-142.068-29.97-142.068-29.97s-5.201 1.24-.975 17.09c4.227 15.852 5.202 26.503.975 40.621-4.226 14.116-2.6 19.319-2.6 19.319s36.735 30.713 147.592 30.713z" class="st1"/><path d="m495.382 461.452-4.066 43.58c-.705 7.543-7.39 13.197-15.054 12.483-7.543-.703-13.188-7.512-12.483-15.054l.413-4.43c.101-1.077 1.136-1.826 2.094-1.737l3.832.36a1.897 1.897 0 0 1 1.736 2.093l-.413 4.43c-.313 3.35 2.183 6.363 5.536 6.674 3.471.324 6.363-2.183 6.675-5.534l4.068-43.58c.1-1.079 1.138-1.826 2.094-1.739l3.832.36a1.9 1.9 0 0 1 1.736 2.094M531.342 474.258l-.85 43.638a1.9 1.9 0 0 1-1.96 1.887l-3.848-.076a1.9 1.9 0 0 1-1.887-1.96l.467-23.923-12.383-.24-.467 23.922a1.897 1.897 0 0 1-1.96 1.885l-3.847-.075a1.9 1.9 0 0 1-1.885-1.96l.849-43.64c.149-7.573 6.521-13.703 14.215-13.552 7.573.147 13.703 6.52 13.556 14.094m-7.694-.15c.064-3.365-2.645-6.184-6.012-6.25-3.486-.067-6.305 2.642-6.371 6.009l-.233 12.022 12.38.241zM588.72 473.23l1.158 43.752c.025.961-.79 1.945-1.871 1.974l-3.847.103c-1.081.028-1.949-.912-1.975-1.873l-1.159-43.75c-.089-3.366-2.926-6.059-6.412-5.965-3.365.09-6.057 2.926-5.967 6.293l1.16 43.75c.025.962-.792 1.944-1.873 1.974l-3.847.1c-1.08.032-1.946-.91-1.973-1.87l-1.16-43.752c-.09-3.365-2.926-6.056-6.293-5.965-3.485.09-6.176 2.929-6.087 6.294l1.16 43.75c.025.962-.79 1.946-1.872 1.975l-3.847.102c-.961.026-1.949-.91-1.973-1.872l-1.16-43.751c-.202-7.572 5.884-13.987 13.576-14.191 3.846-.102 7.495 1.484 10.091 4.063 2.453-2.712 6.015-4.49 9.862-4.593 7.691-.204 14.107 5.88 14.308 13.453M616.832 474.102l-.536-4.053c-.44-3.337-3.543-5.717-6.88-5.276-3.34.44-5.719 3.543-5.278 6.882q.204 1.549.626 1.979l19.466 19.747q3.366 3.437 3.869 7.25c.99 7.512-4.39 14.53-11.9 15.521-7.51.99-14.527-4.389-15.518-11.899l-.536-4.053a1.9 1.9 0 0 1 1.656-2.16l3.814-.503a1.9 1.9 0 0 1 2.16 1.656l.534 4.051c.44 3.34 3.546 5.719 6.884 5.278 3.337-.44 5.717-3.544 5.276-6.883q-.205-1.548-.625-1.98l-19.467-19.745q-3.365-3.437-3.867-7.25c-.994-7.512 4.387-14.53 11.899-15.521 7.508-.992 14.527 4.389 15.517 11.899l.536 4.053a1.9 1.9 0 0 1-1.655 2.158l-3.815.504a1.9 1.9 0 0 1-2.16-1.655" class="st58"/><path d="M350.913 118.44c1.82-1.643 4.498-2.146 6.488.058 5.969 6.612 20.98 27.672 42.202 50.603-10.34-28.407-21.4-51.642-25.625-60.176-3.769-4.946-4.868-8.476-1.322-11.677 1.82-1.644 4.497-2.147 6.486.057 3.373 3.738 30.27 40.854 42.123 53.983 4.93 5.462 8.61 8.576 9.855 7.45 2.397-2.163-.552-10.63-3.745-21.489-.464-1.669-.312-2.85.169-3.282.382-.346.833-.232 1.44.439.345.384.855 1.142 1.172 2.072 3.527 9.686 10.959 25.24 3.197 32.247-4.888 4.412-14.823-3.318-25.722-15.392-7.18-7.954-14.806-17.942-21.728-27.345 7.372 14.91 16.645 35.586 23.745 54.048.973 2.427-.27 5.287-2.283 7.105-1.726 1.557-3.864 2.27-5.517.632-4.095-3.957-10.698-10.694-18.137-18.935-6.661-7.38-13.995-15.889-20.86-24.65 15.392 31.5 25.733 54.516 27.294 59.714.387 1.391.061 2.38-.801 3.16-1.63 1.469-5.103 1.475-6.92-.538-2.853-3.162-7.772-32.116-30.958-77.453 0 0-.672-1.131-1.78-2.74-1.865-2.839-.882-5.987 1.227-7.891" class="st54"/><path d="M411.84 88.989c-2.693-4.855-2.251-13.369 3.959-16.815 4.627-2.57 8.162-.989 9.918 2.172 2.63 4.74 1.324 13.293-5.787 17.242-3.5 1.942-6.46.336-8.09-2.6m32.11 58.375c1.315 2.37 2.632 3.412 4.098 2.597 4.177-2.318 2.805-19.423 2.668-22.596-.012-1.618.289-2.672.854-2.985.451-.25 1.04.013 1.417.691.313.564.513 1.19.612 2.17.614 4.828 4.343 26.974-5.14 32.238-4.402 2.444-9.881 1.351-14.582-7.115-3.76-6.774-11.063-30.038-15.757-49.139-.5-2.232.741-4.25 2.886-5.442 2.822-1.566 6.934-1.338 9.065 2.5 3.322 5.982 9.053 38.388 13.878 47.08" class="st54"/><path d="M449.062 130.726c3.362-10.653 5.98-25.26 7.307-34.115-2.015-2.776-3.57-5.818-4.433-8.795-2.447-8.431-.46-16.402 4.252-17.768 2.977-.865 5.165.652 6.1 3.875 1.258 4.34.686 11.632-1.935 21.13 5.283 8.01 15.556 17.935 18.435 27.854 1.295 4.463 1.635 9.339.446 13.582 2.26-2.403 3.777-4.59 4.793-7.575-.493-3.082.488-6.19 2.664-7.494 3.693-11.826 6.259-30.316 7.424-40.198-2.335-2.952-3.84-6.279-4.74-9.378-2.445-8.433-.581-16.367 4.13-17.735 2.977-.862 4.916.725 5.851 3.949 1.333 4.587.743 12.286-1.893 22.193 5.198 9.11 16.494 22.099 19.445 32.266 2.915 10.043.781 21.686-11.866 25.355-10.043 2.915-16.1.103-19.045-4.017-3.252 6.859-9.28 11.566-18.208 14.155-14.753 4.282-21.64-1.381-23.367-7.333-1.26-4.34.142-8.778 3.613-9.787zm3.727.801c1.55 1.164 2.197 3.396 4.032 9.72 1.186 4.09 3.197 5.927 6.174 5.063 4.091-1.187 7.828-6.841 3.295-22.463-1.26-4.342-4.234-11.812-6.783-18.736-1.25 10.042-4.633 20.165-6.718 26.416m37.641-10.654c3.16.697 3.947 2.484 4.74 5.212.503 1.735 2.226 10.915 6.317 9.727 3.968-1.151 7.277-7.354 2.923-22.357-1.296-4.463-4.833-15.266-7.636-23.998-1.018 11.319-4.334 23.977-6.344 31.416M555.44 132.667c-2.414-.438-4.78-2.572-4.16-6.003 1.197-6.604 5.188-15.591 8.566-24.82-.393-.727-.485-1.662-.324-2.55.276-1.525 1.315-2.912 2.792-3.825 6.009-15.05 13.4-31.947 21.394-47.818 1.05-2.17 3.267-2.818 5.553-2.404 3.05.553 5.984 3.183 5.386 6.486-.576 3.176-14.107 29.327-20.6 45.6.589.37.925.694 1.364 1.166 17.116-15.53 24.062-24.897 38.358-46.58.887-1.282 2.148-1.71 3.417-1.48 2.922.53 5.95 4.096 5.35 7.4-.783 4.318-21.738 31.617-43.995 44.377 5.734 10.355 2.15 26.499 7.232 27.42 4.319.785 12.71-8.586 17.603-15.309.714-1.051 1.569-1.421 2.204-1.306.508.092.946.565.786 1.454-.093.508-.311.993-.681 1.582-5.71 9.069-15.426 23.578-25.461 21.759-9.91-1.797-7.283-14.835-10.283-30.862-4.394 10.488-8.084 19.266-9.432 23.089-.797 2.217-3.037 2.992-5.07 2.624" class="st54"/><path d="M607.895 131.96c-.93 2.546-.855 4.223.722 4.799 4.487 1.638 16.517-10.6 18.826-12.78 1.214-1.068 2.207-1.53 2.814-1.309.485.178.67.795.405 1.523-.221.606-.563 1.168-1.237 1.885-3.249 3.623-17.547 20.943-27.735 17.222-4.728-1.727-7.49-6.584-4.168-15.68 2.657-7.276 15.46-28.028 26.823-44.083 1.36-1.84 3.698-2.223 6.002-1.382 3.034 1.109 5.553 4.366 4.049 8.49-2.348 6.427-23.09 31.976-26.5 41.315m23.1-62.489c1.903-5.213 8.628-10.456 15.299-8.02 4.972 1.817 6.093 5.526 4.851 8.922-1.86 5.092-9.18 9.703-16.82 6.913-3.76-1.373-4.482-4.661-3.33-7.815" class="st54"/><path d="M616.493 145.444c-2.152-1.426-3.485-4.323-1.63-7.121 2.427-3.657 23.57-26.195 39.258-39.338 1.82-1.58 4.113-1.299 5.837-.158 2.58 1.713 4.057 5.325 1.988 8.446-.357.538-.713 1.075-4.609 4.379 8.404-4.962 16.06-7.163 21.116-3.81 9.362 6.208 2.828 14.423-3.1 20.095 9.507-6.397 18.488-9.893 23.544-6.538 6.348 4.21 4.608 10.336 1.967 14.318-7.92 11.943-29.907 25.243-34.618 32.344-1.141 1.722-1.353 2.975.046 3.904 4.625 3.067 21.428-8.252 24.11-9.727 1.323-.826 2.504-.972 3.04-.616.432.286.47.93-.03 1.683-.285.431-.75.898-1.572 1.437-4.004 2.766-21.623 16.953-30.983 10.744-4.303-2.854-6.394-8.578-2.114-15.034 6.208-9.36 27.908-23.628 32.62-30.728 1.068-1.615 1.282-2.868.204-3.582-2.797-1.854-16.818 4.337-33.004 18.699-4.429 4.345-9.43 9.082-14.86 14.466-1.715 1.652-4.365 1.443-6.41.087-2.473-1.64-3.986-4.966-1.704-8.41 3.07-4.626 27.19-24.88 33.326-34.133 1.57-2.367 2.031-4.229.848-5.013-4.948-3.283-27.757 12.42-46.899 33.34-1.676 1.83-4.327 1.622-6.37.266M717.166 141.151c-.362-.368-.451-.641-.084-1.005.827-.815 10.605-1.935 15.09-3.821-1.092-.372-1.912-.835-2.908-1.846-2.902-2.941-2.15-6.222.334-8.67 3.309-3.264 9.893-4.86 14.425-.266 3.99 4.045 2.223 8.507-.81 11.499-6.71 6.616-22.69 7.51-26.047 4.11" class="st54"/><path d="M721.243 159.462c1.74-3.285 3.911-6.088 6.415-8.323 6.451-5.762 14.317-7.421 17.586-3.762 2.062 2.31 1.544 5.027-1.151 7.434-3.565 3.18-10.956 6.147-21.02 7.863-5.042 8.312-9.847 22.12-17.549 29-7.8 6.965-19.223 10.069-27.995.245-9.63-10.784-7.497-19.441-2.874-23.57 3.37-3.01 8.462-4.094 10.98-.111 11.618-1.72 27.143-6.238 35.608-8.776m-34.807 12.388c-.21 2.09-2.125 3.629-6.941 7.929-3.178 2.837-3.965 5.444-1.9 7.756 2.837 3.178 9.551 4.106 21.684-6.73 3.274-2.923 9.48-9.156 15.095-14.69-9.877 3.282-21.122 4.84-27.938 5.735" class="st54"/></svg>