<svg xmlns="http://www.w3.org/2000/svg" id="Layer_1" version="1.1" viewBox="0 0 246.2 27.2"><defs><clipPath id="clippath"><path d="M16 10.1V.4c2.5.5 4.7 1.6 6.5 3.2zM4.7 15.8l-2.9 4.5C4 24.2 8 26.8 12.7 27.1V15.8zM0 13.7c0 .9 0 1.9.3 2.8L10.7.5C4.6 1.8 0 7.2 0 13.7m24.3 8.1c1.7-2.3 2.7-5.1 2.7-8.1s-.8-5.4-2.3-7.5l-8 8zm-11.6-9.3V3.6l-5.8 8.9zM16 27c2.2-.4 4.3-1.4 6-2.8l-6-6z" style="fill:none"/></clipPath><style>.st2{fill:#de7a5f}</style></defs><path d="M45.6 1.6h-1.9l-9 23.6h2.2l3-7.8h9.6l3 7.8h2.2l-9-23.3v-.3Zm3.1 13.7h-8l4-10.5zM56.4 0h2v25.2h-2zm22.1 19.1h-2.1v.3c-1.1 2.8-3.2 4.2-6.3 4.2s-6.8-2.9-7-6.8h15.6v-.4c0-2.4-1-4.9-2.7-6.7-1.6-1.7-3.8-2.6-6.1-2.6-4.9 0-8.8 4.2-8.8 9.3s4 9.2 9 9.2 7-2.1 8.3-5.9l.2-.5Zm-8.7-10c3.2 0 5.9 2.3 6.6 5.6H63.2c.7-3.3 3.4-5.6 6.6-5.6" class="st2"/><path d="M93.4 7.5h-2.5l-5 6.8-5-6.8h-2.5l6.3 8.6-6.7 9.1h2.6l5.3-7.4 5.4 7.4h2.5l-6.6-9.1zm28.2-5.9h-2.8l-11.9 12.1V1.6h-2v23.6h2v-8.7l4.2-4.2 9.3 12.9h2.5l-10.4-14.4z" class="st2"/><path d="M137.5 10.6c-1.6-2.2-4.1-3.5-6.8-3.5-4.9 0-8.8 4.2-8.8 9.3s4 9.2 8.8 9.2 5.2-1.3 6.8-3.4v3.1h2V7.5h-2zm-6.8 13c-3.7 0-6.8-3.2-6.8-7.2s3.1-7.3 6.8-7.3 6.8 3.3 6.8 7.3-3 7.2-6.8 7.2m26.9-13c-1.6-2.2-4.1-3.5-6.8-3.5-4.9 0-8.8 4.2-8.8 9.3s4 9.2 8.8 9.2 5.2-1.3 6.8-3.4v3.1h2V0h-2zm-6.8 13c-3.7 0-6.8-3.2-6.8-7.2s3-7.3 6.8-7.3 6.8 3.3 6.8 7.3-3 7.2-6.8 7.2m20.1-16.5c-4.9 0-8.8 4.2-8.8 9.3s4 9.2 9 9.2 7-2.1 8.3-5.9l.2-.5h-2.1v.3c-1.1 2.8-3.2 4.2-6.3 4.2s-6.8-2.9-7-6.8h15.6v-.4c0-2.4-1-4.9-2.7-6.7-1.6-1.7-3.8-2.6-6.1-2.6Zm-6.6 7.6c.7-3.3 3.4-5.6 6.6-5.6s5.9 2.3 6.6 5.6zm36.2-7.6c-2.5 0-4.6 1.2-5.7 3.2-1.2-2-3.4-3.2-5.9-3.2s-3.6.7-4.8 1.9V7.5h-2v17.7h2V13.9c0-2.8 2-4.8 4.8-4.8s4.8 2 4.8 4.8v11.3h2V13.9c0-2.8 2-4.8 4.8-4.8s4.8 2 4.8 4.8v11.3h2V13.9c0-4-2.9-6.8-6.8-6.8m24.8 3.5c-1.6-2.2-4.1-3.5-6.8-3.5-4.9 0-8.8 4.2-8.8 9.3s4 9.2 8.8 9.2 5.2-1.3 6.8-3.4v3.1h2V7.5h-2zm-6.8 13c-3.7 0-6.8-3.2-6.8-7.2s3-7.3 6.8-7.3 6.8 3.3 6.8 7.3-3 7.2-6.8 7.2m20.4-16.5c-2.3 0-4.3.9-5.7 2.4v-2h-2v17.7h2V14.6c0-3.1 2.4-5.5 5.7-5.5s5.3 2 5.3 5.5v10.6h2V14.6c0-4.6-2.8-7.5-7.3-7.5" class="st2"/><g style="clip-path:url(#clippath)"><circle cx="13.5" cy="13.7" r="13.5" style="opacity:.7;fill:#de7a5f"/><circle cx="13.5" cy="13.7" r="10.9" class="st2"/></g></svg>