<?xml version="1.0" encoding="UTF-8"?>
<svg id="Layer_1" xmlns="http://www.w3.org/2000/svg" width="1259" height="757" version="1.1" viewBox="0 0 1259 757">
  <!-- Generator: Adobe Illustrator 29.4.0, SVG Export Plug-In . SVG Version: 2.1.0 Build 152)  -->
  <path d="M493.3617154,405.6112283c-6.1669075,0-10.4806333-1.7308799-14.4274541-5.7865285-1.3888497-1.4313444-3.8763418-1.5360264-5.3874933-.230093l-.9804865.8498931c-.8312369.7172269-1.3266624,1.7578277-1.359829,2.8533607-.0331666,1.0799861.3855613,2.1371703,1.1649755,2.9165845,5.7875649,5.7098308,12.4374604,8.3693744,20.9239543,8.3693744,12.5721996,0,20.3808518-6.0186944,20.3808518-15.7074761,0-12.343143-11.6331713-14.6990053-20.1258839-16.4195207-11.1294542-2.2532532-11.5979319-3.6970351-11.5979319-6.7473223,0-2.1724098,0-7.261404,11.2123706-7.261404,4.7863494,0,7.3049351,1.0012156,9.981062,3.9644405.7338102.8156901,1.7847756,1.2893501,2.8834179,1.3007511.0974268-.0010365.1989994-.0031094.2984991-.011401,1.0260905-.0860258,1.9257094-.5109723,2.6201583-1.2489283l.851966-.9193356c1.382631-1.4935317,1.3867768-3.8348836.0124375-5.3232331-4.3012884-4.6858132-9.6328131-6.8675511-16.780207-6.8675511-12.4892832,0-20.2481856,6.3213393-20.2481856,16.4982913,0,11.8819205,11.1605478,14.0139085,19.2987928,15.5685911,12.425023,2.4242683,12.425023,4.8526825,12.425023,7.6635485,0,4.3386008-3.7498943,6.5379584-11.1460375,6.5379584Z" fill="#5b7e96"/>
  <path d="M563.0425875,414.2552633h1.4489641c1.5588284,0,2.9704801-.922445,3.5985719-2.3558623l3.1300942-7.1815969h25.5797103l3.1238755,7.1878157c.6260188,1.4271986,2.0376706,2.3496436,3.596499,2.3496436h1.4468912c1.3328812,0,2.5621169-.6664406,3.273125-1.7599007.7400289-1.1172985.8602577-2.5165128.3254469-3.7343475l-20.3373207-46.7285753c-.6239459-1.4334173-2.0355977-2.3600081-3.5985719-2.3600081h-1.1836317c-1.5691929,0-2.9849905.9297002-3.5985719,2.3548258l-20.399508,46.7223566c-.5368837,1.2188711-.4208007,2.6118667.3109365,3.733311.7296643,1.1100433,1.9568271,1.7723381,3.2834896,1.7723381ZM592.8116491,395.5472499h-17.5907149l8.8077949-20.1994722,8.78292,20.1994722Z" fill="#5b7e96"/>
  <path d="M701.1688773,359.7387649h-1.3162979c-2.1641181,0-3.9260917,1.7619736-3.9260917,3.9271281v33.5313933l-28.7326065-36.0344323c-.7483205-.9473199-1.8718378-1.4904223-3.0782715-1.4904223h-.9867052c-2.1641181,0-3.9260917,1.7619736-3.9260917,3.9271281v46.7285753c0,2.1651546,1.7619736,3.9271281,3.9260917,3.9271281h1.3162979c2.1641181,0,3.9260917-1.7619736,3.9260917-3.9271281v-32.9395775l28.2060874,35.3762833c.7483205.9473199,1.8718378,1.4904223,3.0782715,1.4904223h1.5132244c2.1641181,0,3.9260917-1.7619736,3.9260917-3.9271281v-46.6622422c0-2.1651546-1.7619736-3.9271281-3.9260917-3.9271281Z" fill="#5b7e96"/>
  <path d="M764.4662229,359.7387649h1.3152614c2.166869,0,3.9260917,1.7592227,3.9260917,3.9260917v46.6632787c0,2.167441-1.7596871,3.9271281-3.9271281,3.9271281h-1.3152614c-2.166869,0-3.9260917-1.7592227-3.9260917-3.9260917v-46.6632787c0-2.167441,1.7596871-3.9271281,3.9271281-3.9271281Z" fill="#5b7e96"/>
  <path d="M827.1738255,387.9075398h18.6240606c2.166869,0,3.9260917,1.7592227,3.9260917,3.9260917v1.3173344c0,2.167441-1.7596871,3.9271281-3.9271281,3.9271281h-18.6240606c-2.166869,0-3.9260917-1.7592227-3.9260917-3.9260917v-1.3173344c0-2.167441,1.7596871-3.9271281,3.9271281-3.9271281Z" fill="#5b7e96"/>
  <path d="M934.5018539,359.6724317h-37.1196007c-2.1641181,0-3.9260917,1.7619736-3.9260917,3.9271281v1.3162979c0,2.1651546,1.7619736,3.9271281,3.9260917,3.9271281h13.9755597v41.4851493c0,2.1651546,1.7619736,3.9271281,3.9260917,3.9271281h1.3162635c2.1641525,0,3.9261261-1.7619736,3.9261261-3.9271281v-41.4851493h13.9755597c2.1641181,0,3.9260917-1.7619736,3.9260917-3.9271281v-1.3162979c0-2.1651546-1.7619736-3.9271281-3.9260917-3.9271281Z" fill="#5b7e96"/>
  <path d="M671.8765851,533.3771136c-42.0510537,42.8480877-98.2642291,66.4460959-158.2874132,66.4460959-39.9429042,0-79.11054-10.7501116-113.1663796-31.0376825-.0082916-.0082916-.1699786-.1347392-.1782703-.1409579-.2031452-.1596141-.4208007-.2902074-.6467479-.39178-1.8759836-.968049-4.0639402-.5203004-5.3273789,1.1255902-1.2758761,1.6438177-1.2085066,3.7146549.1202288,5.3066498.1761974.2446034.3886706.4664048.6312011.6550396l.3223375.2487492c.0279843.022802.1772338.1409579.2062546.1637599.0072552.0041458.0155468.0103646.022802.0165833l.1191923.093281c.2114368.1637599.4363476.2984991.6705864.4000716.011401.0062187.022802.0124375.0331666.0186562,35.3731739,20.9571208,75.89442,32.0326794,117.1930074,32.0326794,62.3220413,0,120.6868974-24.5017971,164.3361648-68.9802285.7897787-.7980704,1.2250899-1.856291,1.2250899-2.9798082,0-1.1483922-.4498215-2.2242325-1.2810584-3.043032-1.6749113-1.6303438-4.3717673-1.6002866-5.992783.0663331Z" fill="#5b7e96"/>
  <path d="M579.1262968,545.2984194c2.1475348-.9286637,3.1383859-3.4327391,2.211795-5.5771646-.4498215-1.0437102-1.2769126-1.8479993-2.3320238-2.2656907-1.0530383-.4187278-2.2097221-.4011081-3.2565417.0528592-25.0428517,10.8589394-51.6714294,16.3645886-79.1416337,16.3645886-41.2716396,0-80.8600761-12.5110487-114.4847504-36.1816089-32.8825725-23.1471503-57.7398736-55.185012-71.8823026-92.6456063-.8219088-2.1869201-3.2741615-3.2948906-5.4745555-2.4771275-2.1900295.8281276-3.2979999,3.2834896-2.4709088,5.4714461,14.7466823,39.060881,40.6611675,72.4627174,74.9408814,96.5945,35.0622374,24.6821402,76.3400957,37.7290362,119.3716359,37.7290362,28.6413985,0,56.405956-5.7419609,82.5184042-17.0652322Z" fill="#5b7e96"/>
  <path d="M489.1868745,507.8709916c.0746248.0051823.1907077.0093281.2674054.0093281,2.2884927,0,4.1520389-1.7909943,4.2432469-4.0919245.0829164-2.3372061-1.7495361-4.3085436-4.079487-4.3956058-46.2818632-1.7806298-89.5124028-21.1509379-121.7295711-54.5434463-32.305267-33.4816435-50.0960177-77.5527481-50.0960177-124.0937251,0-12.0404982,1.2126524-24.1048348,3.6037542-35.8551255.2269837-1.1121163.0062187-2.2459981-.6208366-3.1922815-.6260188-.9462834-1.5837033-1.5909585-2.7217309-1.8210515-2.2760553-.4425663-4.5127252,1.0468196-4.9760206,3.318729-2.5051118,12.3068671-3.7758057,24.9402175-3.7758057,37.5497295,0,48.7517356,18.636498,94.9154429,52.4757185,129.9890813,33.746976,34.9772481,79.0317694,55.2668919,127.4093447,57.1262922Z" fill="#5b7e96"/>
  <path d="M443.7279566,443.9590282c.5659044.2705148,1.1960691.4135456,1.8262338.4135456,1.637599,0,3.1446046-.956648,3.8390295-2.4315235.485061-1.0260905.5410295-2.1796649.1575412-3.2472136-.3834884-1.0685851-1.1608296-1.9236605-2.1869201-2.4066486-55.9861917-26.392291-92.1615818-83.4066462-92.1615818-145.2488088,0-43.185972,16.9273837-83.7113639,47.6644942-114.1105902,1.6624739-1.6469271,1.6769842-4.3406737.0393853-5.9948559-.7980704-.8115443-1.8656191-1.2624022-3.0036467-1.2675845h-.0207291c-1.1214443,0-2.1786285.4332382-2.9870634,1.2271628-32.3612356,32.0046951-50.18308,74.673476-50.18308,120.1458678,0,65.1142512,38.0876497,125.1415811,97.0163372,152.920649Z" fill="#5b7e96"/>
  <path d="M433.3882812,375.3809443c.8022162.8644035,1.9381709,1.3608655,3.1155838,1.3608655,1.0675487,0,2.0894934-.3979987,2.8854908-1.1307724.8644035-.8001433,1.359829-1.936098,1.359829-3.1145474,0-1.0706581-.4000716-2.0946756-1.1276631-2.881345-24.7609108-26.7871804-38.3965133-61.4866586-38.3923675-97.7066163.0020729-38.3519457,15.0431084-74.5128255,42.3516257-101.8223792,23.604227-23.6031905,54.8720025-38.3519457,88.0364908-41.5276439,2.1931389-.2062546,3.8452482-2.0231602,3.8452482-4.2245907,0-.1057184-.0103646-.3130094-.0207291-.4176914-.2280201-2.3226957-2.3423884-4.0421746-4.6288082-3.8089723-35.1275341,3.3632966-68.2381267,18.9806011-93.2353493,43.9757507-28.9129497,28.9129497-44.8391178,67.2068539-44.8422272,107.8255268-.0031094,38.3612738,14.4326364,75.1077507,40.6528759,103.4724157Z" fill="#5b7e96"/>
</svg>