<svg xmlns="http://www.w3.org/2000/svg" id="Layer_1" version="1.1" viewBox="0 0 1080 600"><defs><style>.st0{fill:#fff}.st1{fill:#bac8cf}</style></defs><path d="M570.71 318.024h-54.128c-9.264 0-27.659-7.788-25.624-28.113l9.663-38.66h34.09c-5.571 16.815-19.194 42.965-2.525 42.965h45.658zM502.191 244.036s6.134-22.182 28.043-22.182h67.33l-5.866 22.182zM598.03 251.295l-18.768 66.728h72.37l19.242-23.798-2.268-.012-48.923-.216 12.418-42.794zM812.624 221.855h-88.588l-5.726 22.131h87.477zM804.18 251.295h-87.787l-17.499 66.515h35.998l11.44-41.355h50.23z" class="st0"/><path d="m664.475 289.4 10.213-38.105h33.608l-17.776 66.729H660.2l22.806-28.641zM422.018 294.113l11.83-42.817h-33.736l-10.525 38.217 26.028.13-21.57 28.382h59.173l19.524-23.91zM271.358 318.024h33.856l18.154-66.73H289.43zM908.473 221.855h-88.59l-5.725 22.131h87.478zM900.028 251.295h-87.787l-17.499 66.515h35.998l11.44-41.355h50.23z" class="st0"/><path d="m331.872 251.295-18.767 66.728h72.37l19.242-23.798-2.267-.012-48.923-.216 12.418-42.794zM599.805 244.091l6.172-22.235h33.78l-6.149 22.235zM676.51 244.039l6.172-22.236h33.78l-6.149 22.236zM402.153 244.091l6.172-22.235h33.78l-6.149 22.235zM333.601 244.091l6.172-22.235h33.78l-6.149 22.235zM291.374 244.091l6.172-22.235h33.78l-6.149 22.235zM183.644 244.091l6.172-22.235h33.78l-6.149 22.235zM222.455 244.091l23.6-22.296h45.318l-22.966 22.192zM262.398 250.364h-79.943l-18.666 67.66h33.613l11.845-41.308 20.875 41.307h36.865l-24.427-47.629zM917.161 269.62c0 4.359-3.42 7.78-7.872 7.78-4.406 0-7.92-3.421-7.92-7.78 0-4.264 3.514-7.684 7.92-7.684 4.453 0 7.872 3.42 7.872 7.684m-13.823 0c0 3.423 2.53 6.14 5.997 6.14 3.374 0 5.858-2.717 5.858-6.091 0-3.423-2.484-6.188-5.904-6.188-3.422 0-5.95 2.765-5.95 6.14m4.733 4.03h-1.781v-7.686c.703-.14 1.687-.234 2.95-.234 1.454 0 2.11.234 2.671.564.424.327.751.936.751 1.687 0 .842-.657 1.499-1.593 1.78v.094c.749.28 1.172.843 1.406 1.875.233 1.17.375 1.639.563 1.92h-1.923c-.233-.281-.376-.984-.609-1.874-.14-.843-.609-1.218-1.593-1.218h-.842zm.045-4.358h.843c.984 0 1.78-.327 1.78-1.124 0-.702-.514-1.172-1.638-1.172-.47 0-.797.046-.984.094z" class="st0"/><path d="m200.247 376.158 10.103-30.8h12.088q9.131 0 7.755 7.078a15 15 0 0 1-.458 1.746q-.79 2.36-2.121 4.04a9.9 9.9 0 0 1-3.138 2.638 14.5 14.5 0 0 1-3.866 1.385q-2.058.426-4.543.427h-3.547l-4.444 13.486zm13.675-17.778h2.507q2.721 0 3.955-.937 1.235-.939 2.009-3.336.296-.91.432-1.616a7 7 0 0 0 .115-.836q.073-.984-.777-1.476c-.85-.492-1.529-.492-2.885-.492h-2.508zM228.762 376.158l10.102-30.8h16.961l-1.398 4.272h-9.131l-2.722 8.286h7.12l-1.406 4.31h-7.12l-3.19 9.716h9.25l-1.387 4.216zM250.32 376.158l17.839-30.8h8.515l-2.415 30.8h-7.262l.77-6.874h-6.318l-3.724 6.874zm13.154-10.72h4.779l1.665-12.333zM280.562 376.158l10.103-30.8h7.83l-4.251 12.985 11.49-12.985h7.546l-11.94 13.84 2.428 16.96h-7.902l-1.667-14.174-1.655 1.579-4.153 12.595zM323.113 376.158l10.103-30.8h7.83l-4.142 12.67h7.144l4.142-12.67h7.83l-10.103 30.8h-7.83l4.514-13.728h-7.144l-4.514 13.728zM365.033 376.567q-3.29 0-5.304-.707-2.015-.705-2.784-2.042-.77-1.338-.698-3.288.028-.873.22-1.858.233-1.208.71-2.564l6.801-20.75h7.665l-7.044 21.512q-.238.743-.394 1.3-.08.28-.112.576l-.12.613q-.075.632.028 1.078.102.446.36.827.255.38.812.566.555.187 1.359.187.946 0 1.725-.299a4.4 4.4 0 0 0 1.304-.743q.525-.446.973-1.17.448-.723.717-1.375.266-.65.564-1.56l7.043-21.512h7.688l-6.825 20.75q-.685 2.062-1.51 3.632a14 14 0 0 1-2.03 2.898q-1.205 1.328-2.75 2.164c-1.546.836-2.247.992-3.647 1.3q-2.103.465-4.751.465M384.282 376.158l10.742-30.8h8.208l-1.475 20.007 11.86-20.007h7.996l-9.465 30.8H406.4l6.306-20.88-12.03 20.88h-4.755l1.569-20.973-7.389 20.973zM418.285 376.158l17.839-30.8h8.515l-2.415 30.8h-7.262l.77-6.874h-6.318l-3.724 6.874zm13.154-10.72h4.779l1.664-12.333zM448.527 376.158l10.103-30.8h5.464l3.558 16.254 5.337-16.254h6.505l-10.104 30.8h-5.204l-3.316-17.257-5.672 17.257zM491.338 376.158l10.103-30.8h12.088q9.13 0 7.755 7.078a15 15 0 0 1-.458 1.746q-.79 2.36-2.121 4.04a9.9 9.9 0 0 1-3.139 2.638 14.5 14.5 0 0 1-3.865 1.385q-2.058.426-4.543.427h-3.547l-4.444 13.486zm13.675-17.778h2.507q2.72 0 3.955-.937 1.235-.939 2.009-3.336.295-.91.432-1.616a7 7 0 0 0 .115-.836q.073-.984-.777-1.476c-.85-.492-1.529-.492-2.885-.492h-2.508zM519.853 376.158l10.102-30.8h16.961l-1.398 4.272h-9.13l-2.723 8.286h7.12l-1.406 4.31h-7.12l-3.19 9.716h9.25l-1.387 4.216zM543.376 376.158l10.102-30.8h9.77q2.482 0 4.308.232 1.822.233 3.249.808 1.424.577 2.172 1.486.764.93.869 2.341.07.855-.153 1.876-.133.688-.372 1.43-.94 2.9-2.75 4.775-1.807 1.875-4.755 2.806l.86 15.046h-7.783l-.273-13.932h-2.839l-4.576 13.932zm13.632-17.685h1.94q2.934 0 4.512-1.058 1.575-1.061 2.374-3.456a10 10 0 0 0 .28-1.078q.317-1.503-.242-2.285-.745-1.04-3.532-1.058h-2.389zM573.357 376.158l10.102-30.8h16.511l-1.363 4.216h-8.682l-2.771 8.416h7.168l-1.406 4.31h-7.168l-4.562 13.858zM606.948 376.567q-3.17 0-5.191-.677-2.02-.678-2.918-2.026-.897-1.346-.899-3.168-.005-.946.212-2.061.202-1.041.599-2.229l3.75-11.389q1.635-4.995 5.13-7.523 3.495-2.525 9.693-2.525 3.17-.002 5.192.668 2.024.668 2.95 1.987.875 1.337.9 3.158a12 12 0 0 1-.188 2.063q-.199 1.02-.588 2.172l-3.751 11.389q-1.63 4.978-5.174 7.57-3.543 2.59-9.717 2.59m1.458-4.459q1.134 0 1.99-.324a3.5 3.5 0 0 0 1.419-.966q.563-.641.893-1.31c.33-.67.44-.992.661-1.635l4.7-14.322q.218-.763.35-1.432.039-.334.102-.65.134-.927-.515-1.494-.646-.567-2.136-.567-1.135 0-1.976.307a3.3 3.3 0 0 0-1.388.937 6.3 6.3 0 0 0-.877 1.282q-.327.651-.656 1.617l-4.701 14.322a15 15 0 0 0-.397 1.561 6 6 0 0 0-.085.557q-.134.93.496 1.523.63.595 2.12.594M626.292 376.158l10.102-30.8h9.77q2.484 0 4.309.232 1.822.233 3.248.808 1.425.577 2.171 1.486.765.93.87 2.341.07.855-.152 1.876-.134.688-.372 1.43-.943 2.9-2.75 4.775t-4.756 2.806l.86 15.046h-7.782l-.273-13.932h-2.84l-4.576 13.932zm13.633-17.685h1.94q2.934 0 4.51-1.058 1.578-1.061 2.375-3.456a10 10 0 0 0 .28-1.078q.318-1.503-.241-2.285-.744-1.04-3.533-1.058h-2.388zM656.155 376.158l10.74-30.8h8.209l-1.476 20.007 11.861-20.007h7.996l-9.464 30.8h-5.748l6.305-20.88-12.03 20.88h-4.755l1.57-20.973-7.39 20.973zM690.158 376.158l17.838-30.8h8.515l-2.414 30.8h-7.262l.769-6.874h-6.317l-3.725 6.874zm13.153-10.72h4.779l1.665-12.333zM720.398 376.158l10.103-30.8h5.464l3.558 16.254 5.337-16.254h6.505l-10.103 30.8h-5.204l-3.317-17.257-5.672 17.257zM760.21 376.567q-2.577 0-4.4-.483-1.822-.483-2.806-1.384a5 5 0 0 1-1.398-2.183q-.412-1.28-.2-2.86.07-.484.171-1.003.225-1.152.615-2.434l3.551-10.85q.819-2.505 1.983-4.355a12.9 12.9 0 0 1 2.913-3.242q1.75-1.393 4.241-2.1 2.49-.704 5.708-.704 3.05 0 5 .621c1.95.621 2.232 1.025 2.803 1.83q.853 1.208.88 2.768a8 8 0 0 1-.202 1.895 16 16 0 0 1-.465 1.783l-.899 2.675h-7.593l.93-2.842q.184-.576.242-.752t.19-.679q.134-.501.146-.687.013-.186.031-.584.019-.4-.093-.558a19 19 0 0 1-.275-.409.88.88 0 0 0-.452-.353q-.287-.101-.71-.185c-.422-.084-.602-.084-.964-.084a6 6 0 0 0-1.45.157q-.646.158-1.137.493c-.49.335-.608.455-.845.696q-.355.363-.66.957c-.305.594-.37.756-.504 1.078q-.201.483-.436 1.207l-4.445 13.617q-.277.817-.407 1.487-.239 1.226.027 1.931.405 1.078 2.417 1.077.78 0 1.4-.148a2.9 2.9 0 0 0 1.09-.501q.472-.353.785-.688c.313-.335.412-.538.61-.948q.297-.613.46-1.03t.407-1.18l.976-2.954h7.594l-.834 2.583q-.698 2.136-1.757 3.753t-2.696 2.916q-1.637 1.3-4.04 1.979-2.402.677-5.501.677M778.515 376.158l10.102-30.8h16.961l-1.399 4.272h-9.13l-2.723 8.286h7.121l-1.406 4.31h-7.12l-3.19 9.716h9.25l-1.387 4.216z" class="st1"/></svg>