<svg xmlns="http://www.w3.org/2000/svg" viewBox="0 0 1200 900"><defs><clipPath id="clippath"><path d="M0 0h1200v900H0z" style="fill:none"/></clipPath><style>.st1{fill:#231f20;mix-blend-mode:soft-light;opacity:.2}.st4{fill:#fff}</style></defs><g style="isolation:isolate"><g id="bg"><g style="clip-path:url(#clippath)"><path d="M0 0h1200v900H0z" style="fill:#1d1d1d"/><path d="M0 0h1200v900H0z" style="fill:#2b77bb"/><path d="M961 281.3c-182.8 0-331 148.2-331 331s148.2 331 331 331 331-148.2 331-331-148.2-331-331-331m0 599.3c-148.2 0-268.4-120.1-268.4-268.4S812.7 343.9 961 343.9s268.3 120.1 268.3 268.3S1109.2 880.6 961 880.6" class="st1"/><path d="M1156 592.5c.7 6.5.9 13.1.9 19.8 0 108.3-87.7 196-195.9 196s-196-87.7-196-196 87.8-196 196-196 152 50.3 181.3 121.6l-81.3.3c-22.7-30.6-59.1-50.4-100-50.4-68.7 0-124.5 55.7-124.5 124.4S892.2 736.7 961 736.7s98.9-33.6 116.6-80.9H945.7v-63.6l210.3.2Z" class="st1"/></g><path d="M230.7 505.5h9.2c10 0 11.1 6.9 11.1 9.3 0 3.7-2 5.3-3.2 6.3 1.5.8 5.3 2.9 5.3 8.1s-2 9.7-11.8 9.7h-10.6zm5.2 13.9h4.2c4.8 0 5.7-2.7 5.7-4.7 0-4.7-4.8-4.7-6-4.7h-3.9zm0 15.1h5.6c5.2 0 6.4-3.5 6.4-5.2s-.5-2.4-1.2-3.3c-1.6-2-4-2-5.8-2h-5v10.6Zm54.7 4.4v-33.4h5.2v33.4zm54.7.7c-10.6 0-18.5-8.2-18.5-17.3s7.6-17.3 18.5-17.3 18.4 7.9 18.4 17.4-7.9 17.3-18.4 17.3Zm0-30.2c-9.2 0-13.3 7.5-13.3 12.9s4.2 12.9 13.3 12.9 13.3-7.5 13.3-12.7-4.4-13-13.3-13Zm79.7 29.5v-28.2h-.1L413 538.9h-3.1l-12-28.2v28.2h-5.2v-33.4h8.1l10.6 25.6 10.7-25.6h8.1v33.4zm43 0v-33.4h19.1v4.5h-13.9v9.8h13.9v4.5h-13.9v10.2h13.9v4.5H468Zm53.7-33.4h11.5c7.4 0 11.8 2.7 14.5 6.1 2.5 3.3 3.6 7.4 3.6 10.7s-1.8 9.3-4.5 11.8c-4.1 3.8-8.9 4.8-13.8 4.8h-11.3zm5.2 29h6.2c6.2 0 13.1-2.9 13.1-12.1s-3.3-12.3-13-12.3h-6.3v24.5Zm58.5 4.4v-33.4h5.2v33.4zm63-24.8c-1-1.1-4.2-4.7-10-4.7s-13.2 5.7-13.2 12.8 6.1 13 13.1 13 7.2-1.7 9.7-4.4h6.4c-3.9 6.5-10.6 8.9-16.1 8.9-10.1 0-18.2-8-18.2-17.5s8.3-17.2 18.3-17.2 7 .6 10.8 3.3c3.2 2.2 4.6 4.4 5.5 5.9h-6.2Zm55.8 24.8-3.9-9.8h-12.7l-3.9 9.8h-5.5l13.5-33.4h4.7l13.5 33.4h-5.5Zm-5.7-14.3-4.5-12.8-4.6 12.8zm43.2 14.3v-33.4h5.2v28.9h12.3v4.5zm-429-110.8c.2 1.6.2 3.2.2 4.8 0 26.5-20.8 48.1-46.4 48.1s-46.4-21.5-46.4-48.1 20.7-48 46.4-48 36 12.3 42.9 29.8h-19.3c-5.4-7.4-14-12.3-23.7-12.3-16.3 0-29.4 13.7-29.4 30.5s13.2 30.5 29.4 30.5 23.4-8.2 27.6-19.8h-31.2V428h49.8Zm30.5-37c-.3.9-33.4 83.3-34.2 85.2h20c.3-.9 4.7-12.9 4.7-12.9h33.9l4.3 12.9h20.2c-.7-1.8-33.5-84.3-33.8-85.2h-15.2Zm7.5 23.2 12.2 35.1h-24.3zm86.7-23.2V443c0 6.7 0 19.1-13.4 19.1s-13.6-14.3-13.6-19.1v-51.9h-18.7V443c0 13.3 1.8 18.9 8.4 26.1 7.6 8.2 20.4 8.8 24.2 8.8 9.7 0 17.6-3 23.5-9 5.2-5.3 8.3-11.4 8.3-26V391h-18.7Zm26.1 0V407h17.6v69.2h18.7V407h17.5v-15.9zm113.3 0v33.5h-33.3v-33.5h-18.7v85.2h18.7v-35.7h33.3v35.7h18.7v-85.2zm31.7 0v85.2h18.7v-85.2zm31.7 0v85.2h45.5v-15.9H658V441h26.9v-15.9H658v-18h27.7v-15.9h-45.5Zm56.4 0v85.2h17.7v-33l3.9 5s18.9 26.4 20 28h20.7c-1.7-2.1-23.8-29.8-23.8-29.8l3.4-.6c15.1-2.5 20.5-15.6 20.5-26.1s-3.8-17.7-10.2-22.7c-5.1-3.9-10.6-6-26.2-6h-26.2Zm17.7 16h10.4c10.5 0 16.8 5.3 16.8 14.1s-1.7 14.8-17 14.8h-10.1v-29Zm44.9 85.6H228v-2.2h531.2zm137.1-129.2c-54.6 0-98.8 44.2-98.8 98.8s44.2 98.8 98.8 98.8 98.8-44.2 98.8-98.8-44.2-98.8-98.8-98.8m0 178.9c-44.3 0-80.1-35.9-80.1-80.1s35.9-80.1 80.1-80.1 80.1 35.9 80.1 80.1-35.9 80.1-80.1 80.1" class="st4"/><path d="M954.5 456.4c.2 1.9.3 3.9.3 5.9 0 32.3-26.2 58.5-58.5 58.5s-58.5-26.2-58.5-58.5 26.2-58.5 58.5-58.5 45.4 15 54.1 36.3h-24.3c-6.8-9-17.6-15-29.8-15-20.5 0-37.2 16.6-37.2 37.2s16.6 37.2 37.2 37.2 29.5-10 34.8-24.2h-39.4v-19h62.8Z" class="st4"/></g></g></svg>