<svg xmlns="http://www.w3.org/2000/svg" viewBox="0 0 1200 900"><defs><clipPath id="clippath"><path d="M0 0h1200v900H0z" style="fill:none"/></clipPath><style>.st1{fill:#231f20}</style></defs><g style="isolation:isolate"><g id="bg" style="clip-path:url(#clippath)"><path d="M0 0h1200v900H0z" style="fill:#8ec640"/><g style="mix-blend-mode:soft-light;opacity:.2"><path d="M441.8 446.9c-37.6-31.9-92.4-50.9-163-56.6 62.4-80.5 100-128.1 111.9-141.5 2.5-2.9 5.9-6.7 10.2-11.1 50.1-8.5 93.3-20.9 128.3-36.7 39.4-17.9 58.6-36.1 58.6-55.4s-6-15.8-18.9-26.2c-12.5-10-23.2-14.9-32.9-14.9-51.5 0-109.7 36.6-172.9 108.6-2.5 2.7-5.6 6.3-9.1 10.7-12.4 1-25.1 1.5-37.7 1.5-52.5 0-101.8-12.4-146.4-37-31.3-17.2-52.2-33.6-62.1-48.5l-1.2-1.7h-2.1c-3.8 0-7.1 1.3-9.6 3.9-3.4 3.5-3.6 6.9-3.1 9.2l.6 1.4c12.5 18.6 36.5 37.4 71.2 55.8 46.5 25.3 95.9 38.1 146.9 38.1s16.6 0 25.2-.1c-46.6 60.8-81.9 107.7-108 143.2-108.8 2.2-201.6 21.8-276 58.3-72.7 35.5-109.5 77.3-109.5 124.2s10.4 46.2 31 64.2c20.4 17.8 44.6 26.9 71.9 26.9 45.3 0 92.1-17.1 139.2-50.7 34.1-24.1 65.9-54.9 94.5-91.7l82-106.1c73.8 2.6 129.6 19.5 166.1 50.2 20.2 16.4 32.7 34.7 37.2 54.4l.3 1.3 1 .8c2.3 1.9 6.2 3.4 12.4.1 5.8-3.2 7.1-7.1 7.1-9.8v-.8c-5-22.3-19.4-43.8-42.9-63.9Zm-10.4-236.7c53.7-47.6 93.3-71.7 117.6-71.7s2.6 0 2.6 5.3-6.2 17.6-35.8 33.8c-23.2 13.2-51.5 24.2-84.4 32.6M207.9 415.1c-3.5 4.6-6.6 8.5-9.3 11.8-20.3 26.3-40.9 52.5-61 77.9-31.6 37.8-62.5 67.5-91.8 88.4C7.5 621-29.6 635.1-64.5 635.1s-38.4-5.8-50.7-17.3c-11.5-10.3-17.1-23.1-17.1-39.1 0-36 34.9-71.3 103.8-104.9 69.2-33.4 148.7-53.2 236.4-58.8Z" class="st1"/><path d="M568.1 225.9c-4.3 5.6-6.5 11.1-6.5 16.4s2.9 9.9 8.9 15.6c6 5.7 10.6 8.4 14.5 8.4s6.9-2.5 11.6-8.1c4.5-5.4 6.5-9.2 6.5-12.3s-.4-6.3-3.6-19.6c-.8-4.2-4.3-9.2-16.3-9.2s-10.7 3-15.2 8.8Zm167.2 111.7c5.5-1.2 8.4-5.3 7.8-10.9-.8-7-1.4-14.4-1.9-22.4-3-13.1-11.1-15.8-17.4-15.8-11.3 0-17.5 5.9-17.5 16.7s-10.2 35.3-30.2 66.2c-10.9 16.4-22.7 30.7-35.3 42.6-15.8 15-22.4 17.2-24.9 17.2s-5 0-5-10.7 3.5-18 20.1-58c20.8-49.8 20.8-53.6 20.8-55.5 0-7.1-2.1-14.6-6.1-22.2-4.5-8.6-9.2-12.8-14.4-12.8-7.6 0-18.9 6.9-39.2 61.1-8 21.5-13.5 39-16.8 53l-1.1.9c-10.1 8.8-23.5 18.3-39.8 28.3-24.7 15.2-36.4 18.3-41.8 18.3s-3.2 0-3.2-4.1 3.3-14.4 25.1-42c16.1-18.5 28.4-32.5 37-41.9 4.8-7.1 7.2-17.5 7.2-30.8s-2.7-16.1-20.5-16.1-14.8 3.9-22.1 11.6c-7.3 7.8-10.8 14.2-10.8 19.8s-1.7 7.4-5.2 11.7c-6.7 9-14.4 20.6-22.8 34.6-13.5 23.6-20.1 41.8-20.1 55.6s8.9 27.1 25.8 27.1 30.2-7.2 54.8-21.9c13.2-8 24.4-16.4 33.9-24.9.4 12 4.5 23.7 12.5 34.8 8.7 12 18.1 18.1 28.1 18.1 19.4 0 44.5-24.1 76.9-73.9 13.3-22.6 23.1-39.5 29.5-50.5 5.9-1.7 11.3-2.7 16.6-3.2m-.8 121.5c12.3 0 30.2-7.2 54.8-21.9 3.5-2.1 6.8-4.3 10-6.5 1.5 3.1 4.7 6.3 10 10 9.6 6.8 12.3 7.4 14.1 7.4s2 0 46.8-36.9c34.1-28.7 63.4-51.4 87.2-67.5 35-23.8 60.6-35.9 75.8-35.9s4.4.7 4.4 4.5c-.2 1.8-3.6 12-30.4 67.3-21 43.2-31.2 69.9-31.2 81.6s2.4 13.6 7 19.7c5 6.7 9.3 9.8 13.5 9.8s10-1.7 27.3-14.8c18.4-14.1 19.9-17.4 19.9-20.2 0-9.2-5.7-10-7.5-10s-4.2.5-10.7 3.8c-2 1-3.4 1.7-4.4 2.1 3.7-6.7 10.5-22.1 25.5-56.2 18.4-41.7 27.3-68.1 27.3-80.6s-3.6-16.9-10.7-22.4c-6.8-5.2-14.5-7.9-22.8-7.9-34.8 0-86.3 27.5-156.9 84 21.5-32.9 21.5-35.1 21.5-36.9 0-3.8-1.6-7.6-4.9-11.1-3.3-3.7-7-5.6-10.9-5.6s-9.6 0-50.5 51.5c-8.3 10.4-14.8 18.9-20 25.9-9.1 7.2-20 14.7-32.9 22.6-24.7 15.2-36.4 18.3-41.8 18.3s-3.2 0-3.2-4.1 3.3-14.4 25.1-42c15.9-18.4 28.2-32.3 37-41.9 4.8-7.1 7.2-17.5 7.2-30.8s-2.7-16.1-20.5-16.1-14.8 3.9-22.1 11.6c-7.3 7.8-10.8 14.2-10.8 19.8s-1.7 7.4-5.1 11.7c-6.7 8.9-14.4 20.5-22.8 34.6-13.5 23.6-20.1 41.8-20.1 55.6s8.9 27.1 25.8 27.1Zm101.9-192.7c3.3 0 6.9-2.5 11.6-8.1 4.5-5.4 6.5-9.2 6.5-12.3s-1.2-9.7-3.6-19.7c-.8-4.2-4.3-9.2-16.3-9.2s-10.7 3-15.2 8.8c-4.3 5.6-6.4 11.1-6.4 16.4s2.9 9.9 8.9 15.6c6 5.7 10.6 8.4 14.5 8.4Z" class="st1"/><path d="M1199.7 469.6h-12.3c41.9-64.3 63.1-118.8 63.1-162.1s-1.8-12.8-4.2-15.4l1-2.6c1-2.5 1.5-5.4 1.5-8.7 0-11.8-5.7-25.8-32.9-25.8s-67.9 25.2-105.6 74.9c-36.3 47-54.7 87.7-54.7 121s9.8 27.8 18.1 27.8c12.3 0 32-13.6 60.2-41.6 18.6-18.6 36.5-39 53.5-60.7-4.9 11.6-11.1 24.9-18.6 40-13.4 27.1-24 46.4-31.7 57.4-41.3 9.1-94.1 29-157 59.1-73.1 35-133.8 72.5-180.4 111.5C742.1 692.5 713 738.5 713 781s4 21.8 12 28.8c7.8 6.9 17.3 10.4 28.1 10.4 58.8 0 136.6-41.5 231.3-123.3 77.6-66.8 141.3-135.8 189.4-205.1 4.2-.6 7.8-.9 10.8-.9h14.2c11.6 0 13.4-5.5 13.4-8.8 0-7.9-4.4-12.5-12.2-12.5Zm-118.1-20.4v-2c0-19.3 19.5-52.3 58-98.1 38.4-45.6 66.8-68.7 84.5-68.7s11.6 2.8 15.6 8.7h-.3c-7.4-1.6-9.4-1.8-10.5-1.8-7.3 0-10.7 3.4-12.4 6.5-10.9 22.8-33.2 54.1-66.4 93.1-40.4 47.5-59.4 60.6-68.3 62.4ZM755.8 798.4c-12.1 0-17.4-6.1-17.4-19.9 0-34.4 27-74.2 80.4-118.4 44.3-36.7 101-72.4 168.8-106.3 54.8-27.4 99.9-46 134.3-55.1-33.8 46.6-90.1 105.2-167.6 174.4-93.6 83.1-160.4 125.3-198.3 125.3Z" class="st1"/></g></g><g id="Layer_1"><path d="M233.3 430.7c-4.5-1.7-7.6-3.5-9.4-5.3-3.6-3.7-5.4-8-5.4-13s1-6.9 2.9-9.8c1.9-2.9 4.5-5.4 7.6-7.5 3.1-2.1 6.6-3.6 10.5-4.8 3.9-1.1 7.8-1.7 11.7-1.7 11.9 0 22.2 4.8 30.7 14.4 1 1.2 1.5 2.7 1.5 4.5s-.7 3.9-2.1 5.3c-1.4 1.4-3.2 2.1-5.3 2.1s-2.8-.4-3.9-1.3-2.1-1.8-3.1-2.8c-4.9-4.9-10.8-7.3-17.8-7.3s-12.4 2.1-16.5 6.3c-.8.8-1.1 1.8-1.1 3.2s.6 2.2 1.9 2.7l33.5 11c4.7 1.8 7.8 3.6 9.4 5.3 3.6 3.7 5.4 8 5.4 13s-1 7-2.9 9.9c-1.9 2.9-4.5 5.4-7.6 7.5-3.1 2.1-6.6 3.7-10.5 4.8-3.9 1.1-7.8 1.6-11.7 1.6-12 0-22.3-4.7-30.7-14.2-1.1-1.4-1.6-2.9-1.6-4.7s.7-3.9 2.1-5.3c1.4-1.4 3.2-2.1 5.3-2.1s2.9.5 4 1.4c1.1.9 2.1 1.8 3 2.7 4.9 4.9 10.8 7.3 17.8 7.3s12.3-2.1 16.5-6.4c.7-.8 1.1-1.8 1.1-2.9s-.6-2.3-1.9-2.8l-33.4-11Zm174.5 30.6c0 2.1-.7 3.9-2.2 5.3-1.5 1.5-3.2 2.2-5.3 2.2s-3.9-.7-5.3-2.2c-1.4-1.5-2.1-3.2-2.1-5.3v-40.7c0-2.3-.4-4.5-1.3-6.5-.9-2.1-2.1-3.9-3.6-5.4-1.5-1.6-3.3-2.8-5.4-3.7-2.1-.9-4.3-1.4-6.7-1.4s-4.5.5-6.6 1.4c-2.1.9-3.9 2.1-5.4 3.7-1.6 1.5-2.8 3.3-3.7 5.4-.9 2.1-1.3 4.2-1.3 6.6v40.7c0 2.1-.7 3.9-2.2 5.3-1.5 1.5-3.2 2.2-5.3 2.2s-3.9-.7-5.3-2.2c-1.5-1.5-2.2-3.2-2.2-5.3v-40.7c0-2.3-.5-4.5-1.4-6.6-.9-2.1-2.1-3.8-3.7-5.4-1.5-1.5-3.3-2.7-5.4-3.7-2.1-.9-4.2-1.4-6.6-1.4s-4.5.4-6.6 1.3c-2.1.9-3.9 2.1-5.4 3.7-1.6 1.6-2.8 3.4-3.7 5.4-.9 2.1-1.3 4.2-1.3 6.6v40.7c0 2.1-.7 3.9-2.2 5.3-1.5 1.5-3.2 2.2-5.3 2.2s-3.9-.7-5.3-2.2c-1.5-1.5-2.2-3.2-2.2-5.3v-65.2c0-2.1.7-3.8 2.2-5.3 1.5-1.5 3.2-2.2 5.3-2.2s3.2.5 4.4 1.4c1.3.9 2.2 2.2 2.6 3.7 5.1-3.4 10.9-5.1 17.4-5.1s9.3.9 13.5 2.8c4.2 1.9 7.9 4.7 11 8.6 6.6-7.6 14.8-11.4 24.4-11.4s8.5.8 12.3 2.5c3.9 1.7 7.3 4 10.2 6.9 2.9 2.9 5.2 6.3 6.9 10.2 1.7 3.9 2.5 8 2.5 12.3v40.7Zm78 .1V460c-3.6 2.9-7.5 5.1-11.7 6.6-4.2 1.5-8.7 2.3-13.5 2.3-11.1 0-20.5-3.9-28.3-11.7-7.8-7.8-11.7-17.3-11.7-28.3s3.9-20.5 11.7-28.3c7.8-7.8 17.3-11.7 28.3-11.7s20.4 3.9 28.3 11.7c7.8 7.8 11.7 17.3 11.7 28.3v32.6c0 2.1-.7 3.8-2.2 5.3-1.5 1.5-3.2 2.2-5.3 2.2s-3.9-.7-5.3-2.2c-1.5-1.5-2.2-3.2-2.2-5.3Zm-25.1-57.8c-3.5 0-6.8.7-9.9 2-3.1 1.3-5.7 3.1-7.9 5.4-2.2 2.3-4 4.9-5.3 8-1.3 3.1-2 6.3-2 9.7s.7 6.7 2 9.7c1.3 3.1 3.1 5.7 5.3 8 2.2 2.3 4.9 4.1 7.9 5.4 3.1 1.3 6.3 2 9.9 2s6.8-.7 9.8-2c3.1-1.3 5.7-3.2 8-5.4 2.3-2.3 4.1-5 5.4-8 1.3-3 2-6.3 2-9.7s-.7-6.7-2-9.7c-1.3-3-3.1-5.7-5.4-8-2.3-2.3-4.9-4.1-8-5.4-3.1-1.3-6.3-2-9.8-2m69.2-7.5v1.4c3.6-2.9 7.5-5.1 11.7-6.6 4.2-1.5 8.7-2.3 13.5-2.3s4.4.1 6.8.4c2.4.3 4.6.8 6.7 1.5 2 .7 3.7 1.8 5 3 1.3 1.3 2 3 2 5s-.2 2-.6 2.9c-.4.9-.9 1.7-1.6 2.4-.7.7-1.5 1.2-2.4 1.6-.9.4-1.9.6-2.9.6s-2-.3-3.1-.8c-3-1.2-6.3-1.8-9.8-1.8s-6.8.7-9.8 2c-3.1 1.3-5.7 3.1-8 5.4-2.3 2.3-4.1 4.9-5.4 8-1.3 3.1-2 6.3-2 9.8v32.6c0 2.1-.7 3.8-2.2 5.3-1.5 1.5-3.2 2.2-5.3 2.2s-3.9-.7-5.3-2.2c-1.5-1.5-2.2-3.2-2.2-5.3v-65.3c0-2.1.7-3.8 2.2-5.3 1.5-1.5 3.2-2.2 5.3-2.2s3.8.7 5.3 2.2c1.5 1.5 2.2 3.2 2.2 5.3Zm61-7.5h3.4v-26.9c0-2.1.7-3.8 2.2-5.3 1.5-1.5 3.2-2.2 5.3-2.2s3.8.7 5.3 2.2c1.5 1.5 2.2 3.2 2.2 5.3v26.9h8.9c2.1 0 3.8.7 5.2 2.2 1.4 1.5 2.1 3.2 2.1 5.3s-.7 3.9-2.1 5.3c-1.4 1.5-3.2 2.2-5.2 2.2h-8.9v36c0 9.5 4.8 14.2 14.3 14.2s3.8.7 5.2 2.2c1.4 1.5 2.1 3.2 2.1 5.3s-.7 3.9-2.1 5.3c-1.4 1.5-3.2 2.2-5.2 2.2-19.5 0-29.3-9.7-29.3-29.2v-36h-3.4c-2 0-3.7-.7-5.2-2.2-1.5-1.5-2.2-3.2-2.2-5.3s.7-3.8 2.2-5.3c1.5-1.5 3.2-2.2 5.2-2.2" style="fill:#fff"/><path d="M741.1 453.5c-12-10.2-29.6-16.3-52.2-18.1 20-25.8 32-41 35.8-45.3.8-.9 1.9-2.1 3.3-3.6 16-2.7 29.9-6.7 41.1-11.7 12.6-5.7 18.8-11.5 18.8-17.7s-1.9-5.1-6.1-8.4c-4-3.2-7.4-4.8-10.5-4.8-16.5 0-35.1 11.7-55.4 34.8-.8.9-1.8 2-2.9 3.4-4 .3-8 .5-12.1.5-16.8 0-32.6-4-46.9-11.8-10-5.5-16.7-10.7-19.9-15.5l-.4-.6h-.7c-1.2 0-2.3.4-3.1 1.3-1.1 1.1-1.1 2.2-1 3l.2.5c4 6 11.7 12 22.8 17.9 14.9 8.1 30.7 12.2 47 12.2h8.1c-14.9 19.5-26.2 34.5-34.6 45.8-34.8.7-64.6 7-88.4 18.7-23.3 11.4-35.1 24.7-35.1 39.8s3.3 14.8 9.9 20.6c6.5 5.7 14.3 8.6 23 8.6 14.5 0 29.5-5.5 44.6-16.2 10.9-7.7 21.1-17.6 30.3-29.4l26.3-34c23.6.8 41.5 6.2 53.2 16.1 6.5 5.3 10.5 11.1 11.9 17.4v.4l.4.3c.7.6 2 1.1 4 0 1.9-1 2.3-2.3 2.3-3.2v-.3c-1.6-7.2-6.2-14-13.7-20.4Zm-3.3-75.7c17.2-15.2 29.9-22.9 37.6-22.9s.8 0 .8 1.7-2 5.6-11.5 10.8c-7.4 4.2-16.5 7.7-27 10.4Zm-71.6 65.6c-1.1 1.5-2.1 2.7-3 3.8-6.5 8.4-13.1 16.8-19.5 25-10.1 12.1-20 21.6-29.4 28.3-12.3 8.9-24.1 13.4-35.3 13.4s-12.3-1.9-16.2-5.5c-3.7-3.3-5.5-7.4-5.5-12.5 0-11.5 11.2-22.8 33.2-33.6 22.2-10.7 47.6-17 75.7-18.8Z" class="st1"/><path d="M781.5 382.8c-1.4 1.8-2.1 3.5-2.1 5.3s.9 3.2 2.9 5c1.9 1.8 3.4 2.7 4.7 2.7s2.2-.8 3.7-2.6c1.4-1.7 2.1-2.9 2.1-3.9s-.1-2-1.2-6.3c-.3-1.4-1.4-3-5.2-3s-3.4 1-4.9 2.8m53.6 35.8c1.7-.4 2.7-1.7 2.5-3.5-.2-2.3-.4-4.6-.6-7.2-1-4.2-3.6-5.1-5.6-5.1-3.6 0-5.6 1.9-5.6 5.4s-3.3 11.3-9.7 21.2c-3.5 5.2-7.3 9.8-11.3 13.7-5.1 4.8-7.2 5.5-8 5.5s-1.6 0-1.6-3.4 1.1-5.8 6.4-18.6c6.6-15.9 6.6-17.2 6.6-17.8 0-2.3-.7-4.7-2-7.1-1.4-2.7-3-4.1-4.6-4.1-2.4 0-6.1 2.2-12.6 19.6-2.6 6.9-4.3 12.5-5.4 17l-.3.3c-3.2 2.8-7.5 5.9-12.7 9.1-7.9 4.9-11.7 5.9-13.4 5.9s-1 0-1-1.3 1-4.6 8-13.4c5.1-5.9 9.1-10.4 11.9-13.4 1.5-2.3 2.3-5.6 2.3-9.9s-.9-5.2-6.6-5.2-4.8 1.2-7.1 3.7-3.5 4.6-3.5 6.3-.5 2.4-1.6 3.7c-2.2 2.9-4.6 6.6-7.3 11.1-4.3 7.6-6.4 13.4-6.4 17.8s2.9 8.7 8.3 8.7 9.7-2.3 17.5-7c4.2-2.6 7.8-5.2 10.9-8 .1 3.8 1.4 7.6 4 11.1 2.8 3.8 5.8 5.8 9 5.8 6.2 0 14.2-7.7 24.6-23.7 4.3-7.2 7.4-12.6 9.4-16.2 1.9-.5 3.6-.9 5.3-1Zm-.3 38.9c3.9 0 9.7-2.3 17.5-7 1.1-.7 2.2-1.4 3.2-2.1.5 1 1.5 2 3.2 3.2 3.1 2.2 3.9 2.4 4.5 2.4s.6 0 15-11.8c10.9-9.2 20.3-16.4 27.9-21.6 11.2-7.6 19.4-11.5 24.3-11.5s1.4.2 1.4 1.5c0 .6-1.1 3.8-9.7 21.6-6.7 13.8-10 22.4-10 26.1s.8 4.3 2.2 6.3c1.6 2.1 3 3.1 4.3 3.1s3.2-.5 8.7-4.7c5.9-4.5 6.4-5.6 6.4-6.5 0-3-1.8-3.2-2.4-3.2s-1.3.1-3.4 1.2c-.6.3-1.1.5-1.4.7 1.2-2.2 3.3-7.1 8.2-18 5.9-13.4 8.7-21.8 8.7-25.8s-1.2-5.4-3.4-7.2c-2.2-1.7-4.6-2.5-7.3-2.5-11.2 0-27.6 8.8-50.2 26.9 6.9-10.5 6.9-11.2 6.9-11.8 0-1.2-.5-2.4-1.6-3.6-1.1-1.2-2.2-1.8-3.5-1.8s-3.1 0-16.2 16.5c-2.6 3.3-4.7 6-6.4 8.3-2.9 2.3-6.4 4.7-10.5 7.2-7.9 4.9-11.7 5.9-13.4 5.9s-1 0-1-1.3 1-4.6 8-13.4c5.1-5.9 9-10.3 11.9-13.4 1.5-2.3 2.3-5.6 2.3-9.9s-.9-5.2-6.6-5.2-4.7 1.2-7.1 3.7c-2.3 2.5-3.5 4.6-3.5 6.3s-.5 2.4-1.6 3.7c-2.2 2.9-4.6 6.6-7.3 11.1-4.3 7.6-6.4 13.4-6.4 17.8s2.9 8.7 8.3 8.7Zm32.6-61.7c1.1 0 2.2-.8 3.7-2.6 1.4-1.7 2.1-2.9 2.1-3.9s-.4-3.1-1.2-6.3c-.3-1.4-1.4-3-5.2-3s-3.4 1-4.9 2.8c-1.4 1.8-2.1 3.5-2.1 5.2s.9 3.2 2.9 5c1.9 1.8 3.4 2.7 4.7 2.7Z" class="st1"/><path d="M983.8 460.8h-4c13.4-20.6 20.2-38.1 20.2-51.9s-.6-4.1-1.4-4.9l.3-.8c.3-.8.5-1.7.5-2.8 0-3.8-1.8-8.3-10.5-8.3s-21.7 8.1-33.8 24c-11.6 15-17.5 28.1-17.5 38.8s3.2 8.9 5.8 8.9c3.9 0 10.2-4.4 19.3-13.3 6-6 11.7-12.5 17.1-19.4-1.6 3.7-3.6 8-5.9 12.8-4.3 8.7-7.7 14.9-10.2 18.4-13.2 2.9-30.1 9.3-50.3 18.9-23.4 11.2-42.8 23.2-57.8 35.7-18.4 15.4-27.8 30.1-27.8 43.7s1.3 7 3.8 9.2c2.5 2.2 5.5 3.3 9 3.3 18.8 0 43.7-13.3 74.1-39.5 24.8-21.4 45.2-43.5 60.6-65.7 1.3-.2 2.5-.3 3.5-.3h4.6c3.7 0 4.3-1.8 4.3-2.8 0-2.5-1.4-4-3.9-4m-37.9-6.5v-.6c0-6.2 6.3-16.7 18.6-31.4 12.3-14.6 21.4-22 27-22s3.7.9 5 2.8c-2.4-.5-3-.6-3.4-.6-2.3 0-3.4 1.1-4 2.1-3.5 7.3-10.6 17.3-21.3 29.8-12.9 15.2-19 19.4-21.9 20ZM841.6 566.1c-3.9 0-5.6-2-5.6-6.4 0-11 8.7-23.8 25.7-37.9 14.2-11.7 32.3-23.2 54-34 17.5-8.8 32-14.7 43-17.7-10.8 14.9-28.8 33.7-53.7 55.8-30 26.6-51.3 40.1-63.5 40.1Zm-619.4-34.9c0-.5.2-.9.5-1.2.3-.3.7-.5 1.2-.5s.9.2 1.2.5c.3.3.5.7.5 1.2v11.6c2.1-2.1 4.7-3.1 7.7-3.1s5.7 1.1 7.8 3.2c2.2 2.2 3.2 4.8 3.2 7.8v11.1c0 .5-.2.9-.5 1.2-.3.3-.7.5-1.2.5s-.9-.2-1.2-.5c-.3-.3-.5-.7-.5-1.2v-11.1c0-2.1-.7-3.9-2.2-5.4-1.5-1.5-3.3-2.2-5.4-2.2s-3.9.8-5.4 2.2c-1.5 1.5-2.2 3.3-2.2 5.4v11.1c0 .5-.2.9-.5 1.2-.3.3-.7.5-1.2.5s-.9-.2-1.2-.5c-.3-.3-.5-.7-.5-1.2v-30.7Zm66.8 20.4c0 3.3-1.2 6.1-3.5 8.4-2.3 2.3-5.1 3.5-8.4 3.5s-6.1-1.2-8.4-3.5c-2.3-2.3-3.5-5.1-3.5-8.4s1.2-6.1 3.5-8.4c2.3-2.3 5.1-3.5 8.4-3.5s6.1 1.2 8.4 3.5c2.3 2.3 3.5 5.1 3.5 8.4m-11.9-8.5c-2.4 0-4.4.8-6 2.5-1.7 1.7-2.5 3.7-2.5 6s.8 4.4 2.5 6c1.7 1.7 3.7 2.5 6 2.5s4.4-.8 6-2.5c1.7-1.7 2.5-3.7 2.5-6s-.8-4.4-2.5-6c-1.7-1.7-3.7-2.5-6-2.5m36.2 18.8c0 .5-.2.9-.5 1.2-.3.3-.7.5-1.2.5s-.9-.2-1.2-.5c-.3-.3-.5-.7-.5-1.2v-20.4c0-.5.2-.9.5-1.2.3-.3.7-.5 1.2-.5s.9.2 1.2.5c.3.3.5.7.5 1.2v.4c1.7-1.4 3.7-2.1 6-2.1s4.8.9 6.6 2.7c.4.4.7.8 1 1.2.3-.4.7-.8 1-1.2 1.8-1.8 4-2.7 6.6-2.7s4.8.9 6.6 2.7c1.8 1.8 2.7 4 2.7 6.6v12.8c0 .5-.2.9-.5 1.2-.3.3-.7.5-1.2.5s-.9-.2-1.2-.5c-.3-.3-.5-.7-.5-1.2v-12.8c0-1.6-.6-3-1.7-4.2-1.2-1.2-2.6-1.7-4.2-1.7s-3.1.6-4.2 1.7c-1.2 1.2-1.7 2.6-1.7 4.2v12.8c0 .5-.2.9-.5 1.2-.3.3-.7.5-1.2.5s-.9-.2-1.2-.5c-.3-.3-.5-.7-.5-1.2v-12.8c0-1.6-.6-3-1.7-4.2-1.2-1.2-2.6-1.7-4.2-1.7s-3.1.6-4.2 1.7c-1.2 1.2-1.7 2.6-1.7 4.2v12.8Zm70-4.1c.5 0 .9.2 1.2.5.3.3.5.7.5 1.2s-.2.9-.5 1.2c-2.2 1.9-4.8 2.9-7.8 2.9s-6.1-1.2-8.4-3.5c-2.3-2.3-3.5-5.1-3.5-8.4s1.2-6.1 3.5-8.4c2.3-2.3 5.1-3.5 8.4-3.5s6.1 1.2 8.4 3.5c2.3 2.3 3.5 5.1 3.5 8.4s-.2.9-.5 1.2c-.3.3-.7.5-1.2.5h-18.6c.3 1.6 1.1 3.1 2.3 4.3 1.7 1.7 3.7 2.5 6 2.5s4-.7 5.5-2c.3-.2.7-.4 1.1-.4Zm1.8-7.9c-.3-1.6-1.1-3.1-2.3-4.3-1.7-1.7-3.7-2.5-6-2.5s-4.4.8-6 2.5c-1.2 1.3-2 2.7-2.3 4.3h16.7Zm66-4.7 7.5 7.6 3.8-4c.3-.3.7-.5 1.2-.5s.9.2 1.2.5c.3.3.5.7.5 1.2s-.1.8-.4 1.1l-3.8 4.1 5.5 5.6c.3.3.5.7.5 1.1s-.2.9-.5 1.2c-.3.3-.7.5-1.2.5s-.9-.2-1.2-.5l-5.4-5.4-3 3.2c-1.8 1.8-4 2.7-6.6 2.7s-4.8-.9-6.6-2.7c-1.8-1.8-2.7-4.2-2.7-7s1.3-4.9 4-7.1l2.3-1.8-2.3-2.4c-1.5-1.5-2.2-3.3-2.2-5.4s.8-3.9 2.2-5.4c1.5-1.5 3.3-2.2 5.4-2.2s3.9.8 5.4 2.2c1.5 1.5 2.2 3.3 2.2 5.4s-1 4.3-3.1 6.1l-2.6 2Zm5.2 10-7.9-7.9-2.4 1.8c-1.9 1.5-2.8 3-2.8 4.6s.6 3.5 1.7 4.6c1.2 1.2 2.6 1.7 4.2 1.7s3.1-.6 4.2-1.7l3-3.2Zm-10.2-15 2.6 2.7 2.5-2c1.4-1.1 2.1-2.3 2.1-3.7s-.4-2.2-1.2-3c-.8-.8-1.8-1.2-3-1.2s-2.2.4-3 1.2c-.8.8-1.2 1.8-1.2 3s.4 2.2 1.2 3m92.4 19.8c-2.3 2.3-5.1 3.5-8.4 3.5s-6.1-1.2-8.4-3.5c-2.3-2.3-3.5-5.1-3.5-8.4s1.2-6.1 3.5-8.4c2.3-2.3 5.1-3.5 8.4-3.5s6.1 1.2 8.4 3.5c2.3 2.3 3.5 5.1 3.5 8.4v11.9c0 2.5-.9 4.6-2.7 6.5-2.5 2.5-5.5 3.7-9 3.7s-6.5-1.2-9-3.7c-.9-.9-1.7-1.9-2.3-3-.2-.3-.3-.6-.3-.9s.2-.9.5-1.2c.3-.3.7-.5 1.2-.5s.9.2 1.2.5c.1.2.3.3.4.5.4.8 1 1.5 1.6 2.2 1.8 1.8 4 2.7 6.6 2.7s4.8-.9 6.6-2.7c1.1-1.4 1.7-2.7 1.7-4.1v-3.6Zm-8.5-16.9c-2.4 0-4.4.8-6 2.5-1.7 1.7-2.5 3.7-2.5 6s.8 4.4 2.5 6c1.7 1.7 3.7 2.5 6 2.5s4.4-.8 6-2.5c1.7-1.7 2.5-3.7 2.5-6s-.8-4.4-2.5-6c-1.7-1.7-3.7-2.5-6-2.5m53.2 16.9c-2.4 2.4-5.2 3.6-8.5 3.6s-6.1-1.2-8.4-3.5c-2.3-2.3-3.5-5.1-3.5-8.4s1.2-6.1 3.5-8.4c2.3-2.3 5.1-3.5 8.4-3.5s6.1 1.2 8.4 3.5c2.3 2.3 3.5 5.1 3.5 8.4v10.2c0 .5-.2.9-.5 1.2-.3.3-.7.5-1.2.5s-.9-.2-1.2-.5c-.3-.3-.5-.7-.5-1.2zm-8.5-16.9c-2.4 0-4.4.8-6 2.5-1.7 1.7-2.5 3.7-2.5 6s.8 4.4 2.5 6c1.7 1.7 3.7 2.5 6 2.5s4.4-.8 6-2.5c1.7-1.7 2.5-3.7 2.5-6s-.8-4.4-2.5-6c-1.7-1.7-3.7-2.5-6-2.5m32.8-1.7c0-.5.2-.9.5-1.2.3-.3.7-.5 1.2-.5s.9.2 1.2.5c.3.3.5.7.5 1.2v1.9c2.4-2.4 5.2-3.6 8.5-3.6s3.2.3 4.6.9c.3 0 .5.2.7.5.3.3.5.7.5 1.2s-.2.9-.5 1.2c-.3.3-.7.5-1.2.5s-.5 0-.7-.2c-1-.4-2.1-.6-3.3-.6-2.4 0-4.4.8-6 2.5-1.7 1.7-2.5 3.7-2.5 6v10.2c0 .5-.2.9-.5 1.2-.3.3-.7.5-1.2.5s-.9-.2-1.2-.5c-.3-.3-.5-.7-.5-1.2v-20.4Zm58.3-10.3c0-.5.2-.9.5-1.2.3-.3.7-.5 1.2-.5s.9.2 1.2.5c.3.3.5.7.5 1.2v20.5c0 3.3-1.2 6.1-3.5 8.4-2.3 2.3-5.1 3.5-8.4 3.5s-6.1-1.2-8.4-3.5c-2.3-2.3-3.5-5.1-3.5-8.4s1.2-6.1 3.5-8.4c2.3-2.3 5.1-3.5 8.4-3.5s6.1 1.2 8.4 3.5v-12.1Zm0 20.5c0-2.4-.8-4.4-2.5-6-1.7-1.7-3.7-2.5-6-2.5s-4.4.8-6 2.5c-1.7 1.7-2.5 3.7-2.5 6s.8 4.4 2.5 6c1.7 1.7 3.7 2.5 6 2.5s4.4-.8 6-2.5c1.7-1.7 2.5-3.7 2.5-6m42.8 6.2c.5 0 .9.2 1.2.5.3.3.5.7.5 1.2s-.2.9-.5 1.2c-2.2 1.9-4.8 2.9-7.8 2.9s-6.1-1.2-8.4-3.5c-2.3-2.3-3.5-5.1-3.5-8.4s1.2-6.1 3.5-8.4c2.3-2.3 5.1-3.5 8.4-3.5s6.1 1.2 8.4 3.5c2.3 2.3 3.5 5.1 3.5 8.4s-.2.9-.5 1.2c-.3.3-.7.5-1.2.5h-18.6c.3 1.6 1.1 3.1 2.3 4.3 1.7 1.7 3.7 2.5 6 2.5s4-.7 5.5-2c.3-.2.7-.4 1.1-.4Zm1.8-7.9c-.3-1.6-1.1-3.1-2.3-4.3-1.7-1.7-3.7-2.5-6-2.5s-4.4.8-6 2.5c-1.2 1.3-2 2.7-2.3 4.3h16.7Zm24.4-8.5c0-.5.2-.9.5-1.2.3-.3.7-.5 1.2-.5s.9.2 1.2.5c.3.3.5.7.5 1.2v1.4c2.1-2.1 4.7-3.1 7.7-3.1s5.7 1.1 7.8 3.2c2.2 2.2 3.2 4.8 3.2 7.8v11.1c0 .5-.2.9-.5 1.2-.3.3-.7.5-1.2.5s-.9-.2-1.2-.5c-.3-.3-.5-.7-.5-1.2v-11.1c0-2.1-.7-3.9-2.2-5.4-1.5-1.5-3.3-2.2-5.4-2.2s-3.9.8-5.4 2.2c-1.5 1.5-2.2 3.3-2.2 5.4v11.1c0 .5-.2.9-.5 1.2-.3.3-.7.5-1.2.5s-.9-.2-1.2-.5c-.3-.3-.5-.7-.5-1.2v-20.4Z" class="st1"/></g></g></svg>